0
SECTION
2
HEADER
9
$INSUNITS
70
4
9
$ACADVER
1
AC1014
9
$HANDSEED
5
FFFF
0
ENDSEC
0
SECTION
2
TABLES
0
TABLE
2
VPORT
5
8
100
AcDbSymbolTable
0
ENDTAB
0
TABLE
2
LTYPE
5
5
100
AcDbSymbolTable
0
LTYPE
5
14
100
AcDbSymbolTableRecord
100
AcDbLinetypeTableRecord
2
BYBLOCK
70
0
0
LTYPE
5
15
100
AcDbSymbolTableRecord
100
AcDbLinetypeTableRecord
2
BYLAYER
70
0
0
LTYPE
5
16
100
AcDbSymbolTableRecord
100
AcDbLinetypeTableRecord
2
DASHED
70
0
3
Dashed __ __ __ __ __ __ __ __ __ __ __ __ __ _
72
65
73
2
40
0.75
49
0.5
74
0
49
-0.25
74
0
0
ENDTAB
0
TABLE
2
LAYER
5
2
100
AcDbSymbolTable
70
2
0
LAYER
5
50
100
AcDbSymbolTableRecord
100
AcDbLayerTableRecord
2
0
70
0
62
7
6
CONTINUOUS
0
ENDTAB
0
TABLE
2
STYLE
5
3
100
AcDbSymbolTable
70
1
0
STYLE
5
11
100
AcDbSymbolTableRecord
100
AcDbTextStyleTableRecord
2
STANDARD
70
0
0
ENDTAB
0
TABLE
2
VIEW
5
6
100
AcDbSymbolTable
70
0
0
ENDTAB
0
TABLE
2
UCS
5
7
100
AcDbSymbolTable
70
0
0
ENDTAB
0
TABLE
2
APPID
5
9
100
AcDbSymbolTable
70
2
0
APPID
5
12
100
AcDbSymbolTableRecord
100
AcDbRegAppTableRecord
2
ACAD
70
0
0
ENDTAB
0
TABLE
2
DIMSTYLE
5
A
100
AcDbSymbolTable
70
1
0
ENDTAB
0
TABLE
2
BLOCK_RECORD
5
1
100
AcDbSymbolTable
70
1
0
BLOCK_RECORD
5
1F
100
AcDbSymbolTableRecord
100
AcDbBlockTableRecord
2
*MODEL_SPACE
0
BLOCK_RECORD
5
1B
100
AcDbSymbolTableRecord
100
AcDbBlockTableRecord
2
*PAPER_SPACE
0
ENDTAB
0
ENDSEC
0
SECTION
2
BLOCKS
0
BLOCK
5
20
100
AcDbEntity
100
AcDbBlockBegin
2
*MODEL_SPACE
0
ENDBLK
5
21
100
AcDbEntity
100
AcDbBlockEnd
0
BLOCK
5
1C
100
AcDbEntity
100
AcDbBlockBegin
2
*PAPER_SPACE
0
ENDBLK
5
1D
100
AcDbEntity
100
AcDbBlockEnd
0
ENDSEC
0
SECTION
2
ENTITIES
0
LWPOLYLINE
5
100
100
AcDbEntity
8
0
100
AcDbPolyline
90
208
70
1
43
0.0
10
12.632233047033601
20
-6.0999999999999996
10
7.3677669529663801
20
-6.0999999999999996
42
-0.19891236737963444
10
7.0142135623731008
20
-5.9535533905932798
10
4.6464466094067198
20
-3.58578643762691
42
-0.19891236737965026
10
4.5
20
-3.2322330470336302
10
4.5
20
-2.2999999999999998
42
-0.41421356237309359
10
5
20
-1.8000000000000003
10
6.875
20
-1.8000000000000003
10
6.875
20
-1.4550000000000001
10
5.5664466094067402
20
-0.14644660940672294
42
0.1989123673796595
10
5.2128932188134591
20
3.4694469519536142e-17
10
0.49999999999999989
20
0
42
0.41421356237309453
10
0
20
-0.5
10
0
20
-5.2128932188134502
42
0.19891236737966872
10
0.14644660940672294
20
-5.5664466094067313
10
1.4549999999999801
20
-6.875
10
1.8000000000000103
20
-6.875
10
1.80000000000001
20
-4.9999999999999991
42
-0.41421356237309653
10
2.30000000000001
20
-4.5
10
3.2322330470336205
20
-4.5000000000000009
42
-0.19891236737970094
10
3.58578643762689
20
-4.6464466094067198
10
5.9535533905932692
20
-7.0142135623731008
42
-0.19891236737969528
10
6.0999999999999899
20
-7.3677669529663703
10
6.0999999999999899
20
-12.632233047033601
42
-0.19891236737972437
10
5.95355339059327
20
-12.985786437626901
10
3.58578643762689
20
-15.3535533905933
42
-0.19891236737967888
10
3.2322330470336205
20
-15.5
10
2.30000000000001
20
-15.5
42
-0.41421356237311829
10
1.8000000000000103
20
-15
10
1.8000000000000103
20
-13.125
10
1.4549999999999801
20
-13.125
10
0.14644660940672294
20
-14.433553390593302
42
0.19891236737968798
10
-6.9388939039072284e-17
20
-14.787106781186502
10
0
20
-19.5
42
0.41421356237309115
10
0.5
20
-20
10
5.21289321881346
20
-20
42
0.19891236737960258
10
5.5664466094067402
20
-19.853553390593301
10
6.875
20
-18.545000000000002
10
6.875
20
-18.199999999999999
10
5
20
-18.200000000000003
42
-0.4142135623730937
10
4.5
20
-17.699999999999999
10
4.5000000000000009
20
-16.767766952966401
42
-0.19891236737971732
10
4.6464466094067198
20
-16.414213562373099
10
7.014213562373099
20
-14.046446609406702
42
-0.19891236737966053
10
7.3677669529663801
20
-13.900000000000002
10
12.632233047033601
20
-13.900000000000002
42
-0.19891236737965431
10
12.985786437626901
20
-14.046446609406702
10
15.3535533905933
20
-16.414213562373103
42
-0.19891236737965592
10
15.5
20
-16.767766952966401
10
15.500000000000004
20
-17.699999999999999
42
-0.41421356237309115
10
15
20
-18.199999999999999
10
13.125
20
-18.199999999999999
10
13.125
20
-18.545000000000002
10
14.433553390593302
20
-19.853553390593301
42
0.19891236737965848
10
14.787106781186502
20
-20
10
25.212893218813402
20
-20
42
0.19891236737965104
10
25.5664466094067
20
-19.853553390593301
10
26.875
20
-18.545000000000002
10
26.875
20
-18.199999999999999
10
25
20
-18.199999999999999
42
-0.41421356237308593
10
24.5
20
-17.699999999999999
10
24.5
20
-16.767766952966401
42
-0.19891236737963952
10
24.646446609406702
20
-16.414213562373099
10
27.014213562373101
20
-14.046446609406701
42
-0.19891236737967566
10
27.367766952966402
20
-13.900000000000002
10
32.632233047033601
20
-13.900000000000002
42
-0.19891236737964485
10
32.985786437626899
20
-14.046446609406702
10
35.353553390593298
20
-16.414213562373099
42
-0.19891236737965004
10
35.5
20
-16.767766952966401
10
35.500000000000007
20
-17.699999999999999
42
-0.41421356237309764
10
35
20
-18.199999999999999
10
33.125
20
-18.199999999999999
10
33.125
20
-18.545000000000002
10
34.433553390593303
20
-19.853553390593301
42
0.19891236737966356
10
34.787106781186509
20
-20
10
45.212893218813399
20
-20
42
0.19891236737966778
10
45.566446609406697
20
-19.853553390593301
10
46.875
20
-18.545000000000002
10
46.875
20
-18.199999999999999
10
45
20
-18.199999999999999
42
-0.41421356237309503
10
44.5
20
-17.699999999999999
10
44.5
20
-16.767766952966401
42
-0.1989123673796169
10
44.646446609406702
20
-16.414213562373099
10
47.014213562373108
20
-14.046446609406702
42
-0.19891236737966239
10
47.367766952966399
20
-13.900000000000002
10
52.632233047033601
20
-13.899999999999999
42
-0.19891236737966239
10
52.985786437626899
20
-14.046446609406702
10
55.353553390593298
20
-16.414213562373099
42
-0.19891236737967982
10
55.500000000000007
20
-16.767766952966401
10
55.500000000000007
20
-17.699999999999999
42
-0.41421356237310025
10
55
20
-18.199999999999999
10
53.125
20
-18.199999999999999
10
53.125
20
-18.545000000000002
10
54.433553390593303
20
-19.853553390593301
42
0.19891236737966295
10
54.787106781186509
20
-20
10
65.212893218813406
20
-20
42
0.19891236737966317
10
65.566446609406697
20
-19.853553390593301
10
66.875
20
-18.545000000000002
10
66.875
20
-18.199999999999999
10
65
20
-18.200000000000006
42
-0.41421356237310936
10
64.5
20
-17.699999999999999
10
64.500000000000014
20
-16.767766952966401
42
-0.19891236737961299
10
64.646446609406695
20
-16.414213562373099
10
67.014213562373101
20
-14.046446609406702
42
-0.19891236737970255
10
67.367766952966406
20
-13.900000000000002
10
72.632233047033594
20
-13.899999999999999
42
-0.19891236737966689
10
72.985786437626899
20
-14.046446609406702
10
75.353553390593305
20
-16.414213562373103
42
-0.19891236737966214
10
75.5
20
-16.767766952966401
10
75.5
20
-17.699999999999999
42
-0.41421356237308071
10
75
20
-18.199999999999999
10
73.125
20
-18.199999999999999
10
73.125
20
-18.545000000000002
10
74.433553390593303
20
-19.853553390593301
42
0.19891236737965828
10
74.787106781186495
20
-20
10
79.5
20
-20
42
0.41421356237307422
10
80
20
-19.5
10
80
20
-14.787106781186601
42
0.19891236737960319
10
79.853553390593305
20
-14.433553390593302
10
78.545000000000002
20
-13.125
10
78.200000000000003
20
-13.125
10
78.200000000000003
20
-15
42
-0.41421356237307422
10
77.700000000000003
20
-15.5
10
76.767766952966397
20
-15.500000000000004
42
-0.19891236737965765
10
76.414213562373106
20
-15.3535533905933
10
74.046446609406701
20
-12.985786437626901
42
-0.19891236737962811
10
73.900000000000006
20
-12.632233047033601
10
73.900000000000006
20
-7.3677669529663703
42
-0.19891236737963169
10
74.046446609406701
20
-7.0142135623731008
10
76.414213562373106
20
-4.6464466094067198
42
-0.19891236737966977
10
76.767766952966397
20
-4.5
10
77.700000000000003
20
-4.4999999999999964
42
-0.41421356237307749
10
78.200000000000003
20
-5
10
78.200000000000003
20
-6.875
10
78.545000000000002
20
-6.875
10
79.853553390593305
20
-5.5664466094067313
42
0.1989123673796129
10
80
20
-5.2128932188134502
10
80
20
-0.49999999999999989
42
0.41421356237307683
10
79.5
20
0
10
74.787106781186495
20
0
42
0.19891236737967641
10
74.433553390593303
20
-0.14644660940672299
10
73.125
20
-1.4550000000000001
10
73.125
20
-1.8000000000000003
10
75
20
-1.799999999999996
42
-0.41421356237313472
10
75.5
20
-2.2999999999999998
10
75.5
20
-3.2322330470336302
42
-0.19891236737959464
10
75.353553390593305
20
-3.58578643762691
10
72.985786437626899
20
-5.95355339059327
42
-0.19891236737968257
10
72.632233047033594
20
-6.0999999999999996
10
67.367766952966406
20
-6.0999999999999988
42
-0.1989123673796902
10
67.014213562373101
20
-5.9535533905932798
10
64.646446609406695
20
-3.5857864376269104
42
-0.19891236737963319
10
64.5
20
-3.2322330470336302
10
64.5
20
-2.2999999999999998
42
-0.41421356237307649
10
65
20
-1.8000000000000003
10
66.875
20
-1.8000000000000003
10
66.875
20
-1.4550000000000001
10
65.566446609406697
20
-0.14644660940672294
42
0.19891236737970897
10
65.212893218813406
20
1.0408340855860843e-16
10
54.787106781186509
20
0
42
0.19891236737967818
10
54.433553390593303
20
-0.14644660940672299
10
53.125
20
-1.4550000000000001
10
53.125
20
-1.8000000000000003
10
55
20
-1.7999999999999998
42
-0.4142135623731012
10
55.500000000000007
20
-2.2999999999999998
10
55.500000000000007
20
-3.2322330470336302
42
-0.1989123673796116
10
55.353553390593298
20
-3.58578643762691
10
52.985786437626899
20
-5.9535533905932692
42
-0.19891236737967796
10
52.632233047033601
20
-6.0999999999999996
10
47.367766952966399
20
-6.0999999999999996
42
-0.19891236737964993
10
47.014213562373108
20
-5.9535533905932798
10
44.646446609406702
20
-3.58578643762691
42
-0.19891236737963677
10
44.5
20
-3.2322330470336302
10
44.5
20
-2.2999999999999998
42
-0.41421356237307649
10
45
20
-1.8000000000000003
10
46.875
20
-1.8000000000000003
10
46.875
20
-1.4550000000000001
10
45.566446609406697
20
-0.14644660940672294
42
0.19891236737971357
10
45.212893218813399
20
6.9388939039072284e-17
10
34.787106781186509
20
0
42
0.1989123673796977
10
34.433553390593303
20
-0.14644660940672297
10
33.125
20
-1.4550000000000001
10
33.125
20
-1.8000000000000003
10
35
20
-1.8000000000000016
42
-0.41421356237310802
10
35.5
20
-2.2999999999999998
10
35.5
20
-3.2322330470336302
42
-0.19891236737962245
10
35.353553390593298
20
-3.58578643762691
10
32.985786437626899
20
-5.9535533905932709
42
-0.19891236737966955
10
32.632233047033601
20
-6.0999999999999996
10
27.367766952966402
20
-6.0999999999999988
42
-0.19891236737965812
10
27.014213562373101
20
-5.9535533905932798
10
24.646446609406702
20
-3.58578643762691
42
-0.19891236737963491
10
24.5
20
-3.2322330470336302
10
24.5
20
-2.2999999999999998
42
-0.4142135623730861
10
25
20
-1.8000000000000003
10
26.875
20
-1.8000000000000003
10
26.875
20
-1.4550000000000001
10
25.5664466094067
20
-0.14644660940672294
42
0.19891236737970461
10
25.212893218813402
20
1.0408340855860843e-16
10
14.787106781186502
20
0
42
0.19891236737969276
10
14.433553390593302
20
-0.14644660940672302
10
13.125
20
-1.4550000000000001
10
13.125
20
-1.8000000000000003
10
15
20
-1.8000000000000003
42
-0.4142135623730972
10
15.5
20
-2.2999999999999998
10
15.500000000000004
20
-3.2322330470336302
42
-0.19891236737961807
10
15.3535533905933
20
-3.58578643762691
10
12.985786437626901
20
-5.95355339059327
42
-0.19891236737966481
0
LWPOLYLINE
5
101
100
AcDbEntity
8
0
100
AcDbPolyline
90
24
70
1
43
0.0
10
17
20
-3.8535533905932806
10
17
20
-2.2999999999999998
42
-0.41421356237308254
10
17.5
20
-1.8000000000000003
10
22.5
20
-1.8000000000000005
42
-0.41421356237309825
10
23.000000000000004
20
-2.2999999999999998
10
23.000000000000004
20
-3.85355339059325
42
0.1989123673796204
10
23.146446609406702
20
-4.2071067811865204
10
25.953553390593299
20
-7.0142135623731008
42
-0.19891236737961909
10
26.100000000000001
20
-7.3677669529663703
10
26.100000000000001
20
-12.632233047033601
42
-0.19891236737965004
10
25.953553390593299
20
-12.985786437626901
10
23.146446609406702
20
-15.792893218813502
42
0.19891236737967044
10
23.000000000000004
20
-16.146446609406699
10
23.000000000000004
20
-17.699999999999999
42
-0.41421356237308854
10
22.5
20
-18.199999999999999
10
17.5
20
-18.199999999999999
42
-0.41421356237308593
10
17
20
-17.699999999999999
10
17
20
-16.146446609406699
42
0.19891236737966767
10
16.853553390593305
20
-15.792893218813502
10
14.046446609406702
20
-12.985786437626901
42
-0.1989123673796602
10
13.900000000000002
20
-12.632233047033601
10
13.900000000000002
20
-7.3677669529663703
42
-0.19891236737963838
10
14.046446609406704
20
-7.0142135623731008
10
16.853553390593305
20
-4.2071067811865497
42
0.1989123673796149
0
LWPOLYLINE
5
102
100
AcDbEntity
8
0
100
AcDbPolyline
90
24
70
1
43
0.0
10
37
20
-3.8535533905932806
10
37
20
-2.2999999999999998
42
-0.41421356237309082
10
37.5
20
-1.8000000000000003
10
42.5
20
-1.8000000000000005
42
-0.4142135623730957
10
43
20
-2.2999999999999998
10
43
20
-3.85355339059325
42
0.19891236737966403
10
43.146446609406709
20
-4.2071067811865204
10
45.953553390593306
20
-7.014213562373099
42
-0.19891236737963169
10
46.100000000000001
20
-7.3677669529663703
10
46.100000000000001
20
-12.632233047033601
42
-0.1989123673796169
10
45.953553390593306
20
-12.985786437626901
10
43.146446609406709
20
-15.792893218813502
42
0.19891236737969137
10
43
20
-16.146446609406699
10
43
20
-17.699999999999999
42
-0.41421356237309503
10
42.5
20
-18.199999999999999
10
37.5
20
-18.200000000000003
42
-0.41421356237307161
10
37
20
-17.699999999999999
10
37
20
-16.146446609406699
42
0.19891236737968879
10
36.853553390593298
20
-15.792893218813502
10
34.046446609406701
20
-12.985786437626903
42
-0.19891236737965512
10
33.899999999999999
20
-12.632233047033598
10
33.899999999999999
20
-7.3677669529663703
42
-0.19891236737964207
10
34.046446609406701
20
-7.0142135623731008
10
36.853553390593298
20
-4.2071067811865497
42
0.19891236737963802
0
LWPOLYLINE
5
103
100
AcDbEntity
8
0
100
AcDbPolyline
90
24
70
1
43
0.0
10
57
20
-3.8535533905932806
10
57
20
-2.2999999999999998
42
-0.41421356237308382
10
57.5
20
-1.8000000000000003
10
62.5
20
-1.8000000000000007
42
-0.41421356237310075
10
63.000000000000007
20
-2.2999999999999998
10
63.000000000000007
20
-3.85355339059325
42
0.19891236737964338
10
63.146446609406709
20
-4.2071067811865204
10
65.953553390593299
20
-7.0142135623731008
42
-0.19891236737965257
10
66.099999999999994
20
-7.3677669529663703
10
66.099999999999994
20
-12.632233047033601
42
-0.19891236737959925
10
65.953553390593299
20
-12.985786437626901
10
63.146446609406709
20
-15.792893218813502
42
0.19891236737967044
10
63.000000000000007
20
-16.146446609406699
10
63.000000000000007
20
-17.699999999999999
42
-0.41421356237308071
10
62.5
20
-18.199999999999999
10
57.5
20
-18.199999999999999
42
-0.41421356237306384
10
57
20
-17.699999999999999
10
57
20
-16.146446609406699
42
0.19891236737970097
10
56.853553390593305
20
-15.792893218813502
10
54.046446609406701
20
-12.985786437626901
42
-0.19891236737966608
10
53.900000000000006
20
-12.632233047033601
10
53.900000000000006
20
-7.3677669529663703
42
-0.19891236737963169
10
54.046446609406701
20
-7.0142135623731008
10
56.853553390593305
20
-4.2071067811865497
42
0.19891236737962764
0
CIRCLE
5
104
100
AcDbEntity
8
0
100
AcDbCircle
10
10.000000000000002
20
-10.000000000000002
30
0
40
2.1000000000000014
210
2.4275571330138536e-17
220
-9.4377150946582114e-16
230
1
0
CIRCLE
5
105
100
AcDbEntity
8
0
100
AcDbCircle
10
30.000000000000004
20
-10.000000000000002
30
0
40
2.1000000000000032
210
2.4275571330138438e-17
220
-9.4377150946582133e-16
230
1
0
CIRCLE
5
106
100
AcDbEntity
8
0
100
AcDbCircle
10
50.000000000000007
20
-10.000000000000014
30
0
40
2.1000000000000076
210
2.4275571330133994e-17
220
-9.437715094658239e-16
230
1
0
CIRCLE
5
107
100
AcDbEntity
8
0
100
AcDbCircle
10
70.000000000000014
20
-10.000000000000016
30
0
40
2.0999999999999992
210
2.4275571330133498e-17
220
-9.4377150946582469e-16
230
1
0
LWPOLYLINE
5
108
100
AcDbEntity
8
0
100
AcDbPolyline
90
208
70
1
43
0.0
10
12.632233047033601
20
-6.0999999999999996
10
7.3677669529663801
20
-6.1000000000000014
42
-0.19891236737963341
10
7.0142135623731008
20
-5.9535533905932798
10
4.6464466094067198
20
-3.58578643762691
42
-0.19891236737965073
10
4.5
20
-3.2322330470336302
10
4.5000000000000009
20
-2.2999999999999998
42
-0.41421356237309265
10
5
20
-1.8000000000000003
10
6.875
20
-1.8000000000000003
10
6.875
20
-1.4550000000000001
10
5.5664466094067402
20
-0.14644660940672294
42
0.19891236737965898
10
5.21289321881346
20
1.0408340855860843e-16
10
0.49999999999999989
20
0
42
0.41421356237309459
10
-2.8486165671914897e-31
20
-0.50000000000000011
10
0
20
-5.2128932188134502
42
0.1989123673796688
10
0.14644660940672308
20
-5.5664466094067313
10
1.4549999999999801
20
-6.875
10
1.8000000000000103
20
-6.875
10
1.80000000000001
20
-4.9999999999999991
42
-0.41421356237309653
10
2.30000000000001
20
-4.5
10
3.2322330470336205
20
-4.5000000000000009
42
-0.19891236737970117
10
3.5857864376268895
20
-4.6464466094067198
10
5.95355339059327
20
-7.0142135623731008
42
-0.19891236737969528
10
6.0999999999999899
20
-7.3677669529663694
10
6.0999999999999899
20
-12.632233047033601
42
-0.1989123673797239
10
5.95355339059327
20
-12.985786437626901
10
3.58578643762689
20
-15.3535533905933
42
-0.19891236737967599
10
3.2322330470336205
20
-15.5
10
2.30000000000001
20
-15.500000000000004
42
-0.41421356237311996
10
1.8000000000000103
20
-15
10
1.8000000000000103
20
-13.125
10
1.4549999999999801
20
-13.125
10
0.14644660940672294
20
-14.433553390593302
42
0.19891236737968798
10
-6.9388939039072284e-17
20
-14.787106781186502
10
0
20
-19.5
42
0.41421356237309115
10
0.5
20
-20
10
5.21289321881346
20
-20
42
0.19891236737960258
10
5.5664466094067402
20
-19.853553390593301
10
6.875
20
-18.545000000000002
10
6.875
20
-18.199999999999999
10
5
20
-18.200000000000003
42
-0.4142135623730937
10
4.5
20
-17.699999999999999
10
4.5
20
-16.767766952966401
42
-0.19891236737971754
10
4.6464466094067198
20
-16.414213562373099
10
7.014213562373099
20
-14.046446609406701
42
-0.19891236737965662
10
7.3677669529663801
20
-13.900000000000002
10
12.632233047033601
20
-13.900000000000002
42
-0.1989123673796579
10
12.985786437626901
20
-14.046446609406702
10
15.353553390593301
20
-16.414213562373099
42
-0.19891236737965431
10
15.5
20
-16.767766952966397
10
15.500000000000004
20
-17.699999999999999
42
-0.41421356237308854
10
15
20
-18.199999999999999
10
13.125
20
-18.199999999999999
10
13.125
20
-18.545000000000002
10
14.433553390593302
20
-19.853553390593301
42
0.19891236737965734
10
14.787106781186498
20
-20
10
25.212893218813402
20
-20
42
0.19891236737965104
10
25.5664466094067
20
-19.853553390593301
10
26.875
20
-18.545000000000002
10
26.875
20
-18.199999999999999
10
25
20
-18.199999999999999
42
-0.41421356237308593
10
24.5
20
-17.699999999999999
10
24.5
20
-16.767766952966401
42
-0.19891236737963919
10
24.646446609406702
20
-16.414213562373099
10
27.014213562373101
20
-14.046446609406704
42
-0.19891236737967416
10
27.367766952966402
20
-13.900000000000002
10
32.632233047033601
20
-13.900000000000002
42
-0.19891236737963919
10
32.985786437626899
20
-14.046446609406702
10
35.353553390593298
20
-16.414213562373099
42
-0.19891236737965085
10
35.5
20
-16.767766952966397
10
35.500000000000007
20
-17.699999999999999
42
-0.41421356237309764
10
35
20
-18.199999999999999
10
33.125
20
-18.199999999999999
10
33.125
20
-18.545000000000002
10
34.433553390593303
20
-19.853553390593301
42
0.19891236737966356
10
34.787106781186509
20
-20
10
45.212893218813399
20
-20
42
0.19891236737966778
10
45.566446609406697
20
-19.853553390593301
10
46.875
20
-18.545000000000002
10
46.875
20
-18.199999999999999
10
45
20
-18.200000000000003
42
-0.41421356237309764
10
44.5
20
-17.699999999999999
10
44.5
20
-16.767766952966401
42
-0.19891236737962015
10
44.646446609406702
20
-16.414213562373099
10
47.014213562373108
20
-14.046446609406704
42
-0.19891236737965765
10
47.367766952966399
20
-13.900000000000002
10
52.632233047033601
20
-13.899999999999997
42
-0.19891236737967266
10
52.985786437626899
20
-14.046446609406702
10
55.353553390593298
20
-16.414213562373099
42
-0.19891236737968743
10
55.500000000000007
20
-16.767766952966401
10
55.500000000000007
20
-17.699999999999999
42
-0.41421356237310936
10
55
20
-18.199999999999999
10
53.125
20
-18.199999999999999
10
53.125
20
-18.545000000000002
10
54.433553390593303
20
-19.853553390593301
42
0.19891236737966295
10
54.787106781186509
20
-20
10
65.212893218813406
20
-20
42
0.19891236737966317
10
65.566446609406697
20
-19.853553390593301
10
66.875
20
-18.545000000000002
10
66.875
20
-18.199999999999999
10
65
20
-18.20000000000001
42
-0.41421356237310153
10
64.5
20
-17.699999999999999
10
64.5
20
-16.767766952966401
42
-0.19891236737962015
10
64.646446609406695
20
-16.414213562373099
10
67.014213562373101
20
-14.046446609406704
42
-0.19891236737969711
10
67.367766952966406
20
-13.900000000000002
10
72.632233047033594
20
-13.899999999999999
42
-0.19891236737965731
10
72.985786437626899
20
-14.046446609406702
10
75.353553390593305
20
-16.414213562373099
42
-0.19891236737965892
10
75.5
20
-16.767766952966401
10
75.5
20
-17.699999999999999
42
-0.41421356237307944
10
75
20
-18.199999999999999
10
73.125
20
-18.199999999999999
10
73.125
20
-18.545000000000002
10
74.433553390593303
20
-19.853553390593301
42
0.19891236737965828
10
74.787106781186495
20
-20
10
79.5
20
-20
42
0.41421356237307422
10
80
20
-19.5
10
80
20
-14.787106781186601
42
0.19891236737960319
10
79.853553390593305
20
-14.433553390593302
10
78.545000000000002
20
-13.125
10
78.200000000000003
20
-13.125
10
78.200000000000003
20
-15
42
-0.4142135623730846
10
77.700000000000003
20
-15.5
10
76.767766952966397
20
-15.499999999999998
42
-0.19891236737965293
10
76.414213562373106
20
-15.3535533905933
10
74.046446609406701
20
-12.985786437626903
42
-0.19891236737961299
10
73.900000000000006
20
-12.632233047033601
10
73.900000000000006
20
-7.3677669529663703
42
-0.19891236737962775
10
74.046446609406701
20
-7.0142135623731008
10
76.414213562373106
20
-4.6464466094067216
42
-0.19891236737966192
10
76.767766952966397
20
-4.5
10
77.700000000000003
20
-4.5000000000000009
42
-0.41421356237308526
10
78.200000000000003
20
-5
10
78.200000000000003
20
-6.875
10
78.545000000000002
20
-6.875
10
79.853553390593305
20
-5.5664466094067313
42
0.19891236737961232
10
80
20
-5.2128932188134511
10
80
20
-0.49999999999999989
42
0.41421356237307683
10
79.5
20
8.1057092265683113e-28
10
74.787106781186495
20
0
42
0.19891236737967641
10
74.433553390593303
20
-0.14644660940672308
10
73.125
20
-1.4550000000000001
10
73.125
20
-1.8000000000000003
10
75
20
-1.8000000000000003
42
-0.41421356237314272
10
75.5
20
-2.2999999999999998
10
75.5
20
-3.2322330470336302
42
-0.19891236737957582
10
75.353553390593305
20
-3.58578643762691
10
72.985786437626899
20
-5.9535533905932683
42
-0.19891236737968465
10
72.632233047033594
20
-6.0999999999999996
10
67.367766952966406
20
-6.0999999999999988
42
-0.19891236737968154
10
67.014213562373101
20
-5.9535533905932798
10
64.646446609406695
20
-3.58578643762691
42
-0.19891236737962881
10
64.5
20
-3.2322330470336307
10
64.5
20
-2.2999999999999998
42
-0.41421356237306545
10
65
20
-1.8000000000000003
10
66.875
20
-1.8000000000000003
10
66.875
20
-1.4550000000000001
10
65.566446609406697
20
-0.14644660940672294
42
0.19891236737970897
10
65.212893218813406
20
1.0408340855860843e-16
10
54.787106781186509
20
0
42
0.19891236737967813
10
54.433553390593303
20
-0.1464466094067228
10
53.125
20
-1.4550000000000001
10
53.125
20
-1.8000000000000003
10
55
20
-1.8000000000000038
42
-0.41421356237310936
10
55.500000000000007
20
-2.2999999999999998
10
55.500000000000007
20
-3.2322330470336302
42
-0.19891236737960041
10
55.353553390593298
20
-3.58578643762691
10
52.985786437626899
20
-5.9535533905932692
42
-0.19891236737967877
10
52.632233047033601
20
-6.0999999999999996
10
47.367766952966399
20
-6.0999999999999996
42
-0.19891236737964127
10
47.014213562373108
20
-5.9535533905932798
10
44.646446609406702
20
-3.5857864376269104
42
-0.19891236737962892
10
44.5
20
-3.2322330470336307
10
44.5
20
-2.2999999999999998
42
-0.41421356237306545
10
45
20
-1.8000000000000003
10
46.875
20
-1.8000000000000003
10
46.875
20
-1.4550000000000001
10
45.566446609406697
20
-0.14644660940672294
42
0.19891236737971352
10
45.212893218813399
20
3.4694469519536142e-17
10
34.787106781186509
20
0
42
0.19891236737969764
10
34.433553390593303
20
-0.14644660940672288
10
33.125
20
-1.4550000000000001
10
33.125
20
-1.8000000000000003
10
35
20
-1.7999999999999994
42
-0.41421356237310414
10
35.5
20
-2.2999999999999998
10
35.5
20
-3.2322330470336302
42
-0.19891236737961276
10
35.353553390593298
20
-3.58578643762691
10
32.985786437626899
20
-5.9535533905932736
42
-0.19891236737966422
10
32.632233047033601
20
-6.0999999999999996
10
27.367766952966402
20
-6.0999999999999996
42
-0.19891236737965939
10
27.014213562373101
20
-5.9535533905932798
10
24.646446609406702
20
-3.5857864376269104
42
-0.19891236737962512
10
24.5
20
-3.2322330470336307
10
24.5
20
-2.2999999999999998
42
-0.41421356237308526
10
25
20
-1.8000000000000003
10
26.875
20
-1.8000000000000003
10
26.875
20
-1.4550000000000001
10
25.5664466094067
20
-0.14644660940672294
42
0.19891236737970461
10
25.212893218813402
20
1.0408340855860843e-16
10
14.787106781186502
20
0
42
0.19891236737969278
10
14.433553390593302
20
-0.14644660940672308
10
13.125
20
-1.4550000000000001
10
13.125
20
-1.8000000000000003
10
15
20
-1.7999999999999994
42
-0.41421356237309764
10
15.5
20
-2.2999999999999998
10
15.5
20
-3.2322330470336302
42
-0.19891236737961979
10
15.3535533905933
20
-3.5857864376269095
10
12.985786437626901
20
-5.9535533905932692
42
-0.1989123673796625
0
LWPOLYLINE
5
109
100
AcDbEntity
8
0
100
AcDbPolyline
90
24
70
1
43
0.0
10
17
20
-3.8535533905932806
10
17
20
-2.2999999999999998
42
-0.41421356237308493
10
17.5
20
-1.8000000000000003
10
22.5
20
-1.7999999999999985
42
-0.41421356237309948
10
23.000000000000004
20
-2.2999999999999998
10
23.000000000000004
20
-3.85355339059325
42
0.1989123673796204
10
23.146446609406702
20
-4.2071067811865204
10
25.953553390593299
20
-7.0142135623731008
42
-0.19891236737961909
10
26.100000000000001
20
-7.3677669529663703
10
26.100000000000009
20
-12.632233047033601
42
-0.19891236737965165
10
25.953553390593299
20
-12.985786437626901
10
23.146446609406702
20
-15.792893218813502
42
0.19891236737966925
10
23.000000000000004
20
-16.146446609406699
10
23.000000000000007
20
-17.699999999999999
42
-0.41421356237308721
10
22.5
20
-18.199999999999999
10
17.5
20
-18.199999999999999
42
-0.41421356237308593
10
17
20
-17.699999999999999
10
17
20
-16.146446609406699
42
0.19891236737966767
10
16.853553390593305
20
-15.792893218813502
10
14.046446609406704
20
-12.985786437626901
42
-0.1989123673796579
10
13.900000000000002
20
-12.632233047033601
10
13.900000000000002
20
-7.3677669529663703
42
-0.19891236737964565
10
14.046446609406702
20
-7.0142135623731008
10
16.853553390593305
20
-4.2071067811865497
42
0.1989123673796149
0
LWPOLYLINE
5
110
100
AcDbEntity
8
0
100
AcDbPolyline
90
24
70
1
43
0.0
10
37
20
-3.8535533905932806
10
37
20
-2.2999999999999998
42
-0.4142135623730947
10
37.5
20
-1.8000000000000003
10
42.5
20
-1.7999999999999983
42
-0.41421356237309698
10
43
20
-2.2999999999999998
10
43
20
-3.85355339059325
42
0.19891236737966403
10
43.146446609406709
20
-4.2071067811865204
10
45.953553390593306
20
-7.014213562373099
42
-0.1989123673796355
10
46.100000000000001
20
-7.3677669529663703
10
46.100000000000001
20
-12.632233047033601
42
-0.19891236737962015
10
45.953553390593306
20
-12.985786437626901
10
43.146446609406709
20
-15.792893218813502
42
0.19891236737969137
10
43
20
-16.146446609406699
10
43
20
-17.699999999999999
42
-0.41421356237309631
10
42.5
20
-18.199999999999999
10
37.5
20
-18.200000000000003
42
-0.41421356237307683
10
37
20
-17.699999999999999
10
37
20
-16.146446609406699
42
0.19891236737968879
10
36.853553390593298
20
-15.792893218813502
10
34.046446609406701
20
-12.985786437626901
42
-0.19891236737965512
10
33.899999999999999
20
-12.632233047033598
10
33.899999999999999
20
-7.3677669529663703
42
-0.19891236737964391
10
34.046446609406701
20
-7.0142135623731008
10
36.853553390593298
20
-4.2071067811865497
42
0.19891236737963802
0
LWPOLYLINE
5
111
100
AcDbEntity
8
0
100
AcDbPolyline
90
24
70
1
43
0.0
10
57
20
-3.8535533905932806
10
57.000000000000014
20
-2.2999999999999998
42
-0.41421356237308854
10
57.5
20
-1.8000000000000003
10
62.5
20
-1.8000000000000038
42
-0.41421356237310936
10
63.000000000000007
20
-2.2999999999999998
10
63.000000000000007
20
-3.85355339059325
42
0.19891236737964338
10
63.146446609406709
20
-4.2071067811865204
10
65.953553390593299
20
-7.0142135623731017
42
-0.19891236737965914
10
66.099999999999994
20
-7.3677669529663694
10
66.099999999999994
20
-12.632233047033601
42
-0.19891236737958784
10
65.953553390593299
20
-12.985786437626901
10
63.146446609406709
20
-15.792893218813502
42
0.19891236737966925
10
63.000000000000007
20
-16.146446609406699
10
63.000000000000007
20
-17.699999999999999
42
-0.41421356237307944
10
62.5
20
-18.199999999999999
10
57.500000000000007
20
-18.200000000000003
42
-0.41421356237305601
10
57
20
-17.699999999999999
10
57
20
-16.146446609406699
42
0.19891236737970097
10
56.853553390593305
20
-15.792893218813502
10
54.046446609406701
20
-12.985786437626901
42
-0.19891236737965892
10
53.900000000000006
20
-12.632233047033601
10
53.900000000000006
20
-7.3677669529663703
42
-0.19891236737962775
10
54.046446609406701
20
-7.0142135623731008
10
56.853553390593305
20
-4.2071067811865497
42
0.19891236737962764
0
CIRCLE
5
112
100
AcDbEntity
8
0
100
AcDbCircle
10
10.000000000000002
20
-10.000000000000002
30
0
40
2.1000000000000014
210
0
220
-0
230
1
0
CIRCLE
5
113
100
AcDbEntity
8
0
100
AcDbCircle
10
30.000000000000004
20
-10.000000000000002
30
0
40
2.1000000000000032
210
0
220
-0
230
1
0
CIRCLE
5
114
100
AcDbEntity
8
0
100
AcDbCircle
10
50.000000000000007
20
-10.000000000000014
30
0
40
2.1000000000000081
210
0
220
-0
230
1
0
CIRCLE
5
115
100
AcDbEntity
8
0
100
AcDbCircle
10
70.000000000000014
20
-10.000000000000016
30
0
40
2.0999999999999996
210
0
220
-0
230
1
0
ENDSEC
0
SECTION
2
OBJECTS
0
DICTIONARY
5
C
100
AcDbDictionary
3
ACAD_GROUP
350
D
3
ACAD_MLINESTYLE
350
17
0
DICTIONARY
5
D
100
AcDbDictionary
0
DICTIONARY
5
1A
330
C
100
AcDbDictionary
0
DICTIONARY
5
17
100
AcDbDictionary
0
ENDSEC
0
EOF
