0
SECTION
2
HEADER
9
$INSUNITS
70
4
9
$ACADVER
1
AC1014
9
$HANDSEED
5
FFFF
0
ENDSEC
0
SECTION
2
TABLES
0
TABLE
2
VPORT
5
8
100
AcDbSymbolTable
0
ENDTAB
0
TABLE
2
LTYPE
5
5
100
AcDbSymbolTable
0
LTYPE
5
14
100
AcDbSymbolTableRecord
100
AcDbLinetypeTableRecord
2
BYBLOCK
70
0
0
LTYPE
5
15
100
AcDbSymbolTableRecord
100
AcDbLinetypeTableRecord
2
BYLAYER
70
0
0
LTYPE
5
16
100
AcDbSymbolTableRecord
100
AcDbLinetypeTableRecord
2
DASHED
70
0
3
Dashed __ __ __ __ __ __ __ __ __ __ __ __ __ _
72
65
73
2
40
0.75
49
0.5
74
0
49
-0.25
74
0
0
ENDTAB
0
TABLE
2
LAYER
5
2
100
AcDbSymbolTable
70
2
0
LAYER
5
50
100
AcDbSymbolTableRecord
100
AcDbLayerTableRecord
2
0
70
0
62
7
6
CONTINUOUS
0
ENDTAB
0
TABLE
2
STYLE
5
3
100
AcDbSymbolTable
70
1
0
STYLE
5
11
100
AcDbSymbolTableRecord
100
AcDbTextStyleTableRecord
2
STANDARD
70
0
0
ENDTAB
0
TABLE
2
VIEW
5
6
100
AcDbSymbolTable
70
0
0
ENDTAB
0
TABLE
2
UCS
5
7
100
AcDbSymbolTable
70
0
0
ENDTAB
0
TABLE
2
APPID
5
9
100
AcDbSymbolTable
70
2
0
APPID
5
12
100
AcDbSymbolTableRecord
100
AcDbRegAppTableRecord
2
ACAD
70
0
0
ENDTAB
0
TABLE
2
DIMSTYLE
5
A
100
AcDbSymbolTable
70
1
0
ENDTAB
0
TABLE
2
BLOCK_RECORD
5
1
100
AcDbSymbolTable
70
1
0
BLOCK_RECORD
5
1F
100
AcDbSymbolTableRecord
100
AcDbBlockTableRecord
2
*MODEL_SPACE
0
BLOCK_RECORD
5
1B
100
AcDbSymbolTableRecord
100
AcDbBlockTableRecord
2
*PAPER_SPACE
0
ENDTAB
0
ENDSEC
0
SECTION
2
BLOCKS
0
BLOCK
5
20
100
AcDbEntity
100
AcDbBlockBegin
2
*MODEL_SPACE
0
ENDBLK
5
21
100
AcDbEntity
100
AcDbBlockEnd
0
BLOCK
5
1C
100
AcDbEntity
100
AcDbBlockBegin
2
*PAPER_SPACE
0
ENDBLK
5
1D
100
AcDbEntity
100
AcDbBlockEnd
0
ENDSEC
0
SECTION
2
ENTITIES
0
LWPOLYLINE
5
100
100
AcDbEntity
8
0
100
AcDbPolyline
90
296
70
1
43
0.0
10
67.014213562373101
20
44.046446609406701
10
64.646446609406695
20
46.414213562373099
42
-0.19891236737966284
10
64.5
20
46.767766952966397
10
64.5
20
47.700000000000003
42
-0.41421356237309503
10
65
20
48.200000000000003
10
66.875
20
48.200000000000003
10
66.875
20
48.545000000000009
10
65.566446609406697
20
49.853553390593305
42
0.19891236737967863
10
65.212893218813392
20
50
10
54.787106781186509
20
50
42
0.19891236737968818
10
54.433553390593303
20
49.853553390593305
10
53.125
20
48.545000000000009
10
53.125
20
48.200000000000003
10
55
20
48.200000000000003
42
-0.41421356237312101
10
55.500000000000007
20
47.700000000000003
10
55.500000000000007
20
46.767766952966397
42
-0.19891236737963791
10
55.353553390593298
20
46.414213562373099
10
52.985786437626899
20
44.046446609406701
42
-0.19891236737965684
10
52.632233047033601
20
43.899999999999999
10
47.367766952966399
20
43.899999999999999
42
-0.1989123673796333
10
47.014213562373108
20
44.046446609406701
10
44.646446609406702
20
46.414213562373099
42
-0.19891236737966284
10
44.5
20
46.767766952966397
10
44.5
20
47.700000000000003
42
-0.41421356237309503
10
45
20
48.200000000000003
10
46.875
20
48.200000000000003
10
46.875
20
48.545000000000009
10
45.566446609406697
20
49.853553390593305
42
0.19891236737967863
10
45.212893218813399
20
50
10
34.787106781186509
20
50
42
0.19891236737970724
10
34.433553390593303
20
49.853553390593305
10
33.125
20
48.545000000000009
10
33.125
20
48.200000000000003
10
35
20
48.200000000000003
42
-0.41421356237312884
10
35.5
20
47.700000000000003
10
35.5
20
46.767766952966397
42
-0.19891236737965037
10
35.353553390593298
20
46.414213562373099
10
32.985786437626906
20
44.046446609406701
42
-0.19891236737964577
10
32.632233047033601
20
43.899999999999999
10
27.367766952966402
20
43.899999999999991
42
-0.19891236737964829
10
27.014213562373101
20
44.046446609406701
10
24.646446609406702
20
46.414213562373099
42
-0.19891236737966284
10
24.5
20
46.767766952966397
10
24.5
20
47.700000000000003
42
-0.41421356237310542
10
25
20
48.200000000000003
10
26.875
20
48.200000000000003
10
26.875
20
48.545000000000009
10
25.5664466094067
20
49.853553390593305
42
0.19891236737967002
10
25.212893218813402
20
50
10
14.787106781186502
20
50
42
0.19891236737970247
10
14.433553390593302
20
49.853553390593305
10
13.125
20
48.545000000000009
10
13.125
20
48.200000000000003
10
15
20
48.200000000000003
42
-0.41421356237311713
10
15.5
20
47.700000000000003
10
15.499999999999998
20
46.767766952966397
42
-0.19891236737964554
10
15.3535533905933
20
46.414213562373099
10
12.985786437626903
20
44.046446609406701
42
-0.19891236737964185
10
12.632233047033601
20
43.899999999999999
10
7.3677669529663801
20
43.899999999999999
42
-0.19891236737960399
10
7.0142135623731008
20
44.046446609406701
10
4.6464466094067189
20
46.414213562373092
42
-0.19891236737965337
10
4.5
20
46.767766952966397
10
4.4999999999999964
20
47.700000000000003
42
-0.41421356237307749
10
5
20
48.200000000000003
10
6.875
20
48.200000000000003
10
6.875
20
48.545000000000009
10
5.5664466094067313
20
49.853553390593305
42
0.19891236737962203
10
5.2128932188134502
20
50
10
0.49999999999999989
20
50
42
0.41421356237307683
10
0
20
49.5
10
0
20
44.787106781186509
42
0.19891236737964149
10
0.14644660940672305
20
44.433553390593303
10
1.4550000000000001
20
43.125
10
1.8000000000000003
20
43.125
10
1.8000000000000027
20
45
42
-0.41421356237311519
10
2.2999999999999998
20
45.5
10
3.2322330470336302
20
45.5
42
-0.19891236737960999
10
3.58578643762691
20
45.353553390593298
10
5.95355339059327
20
42.985786437626899
42
-0.19891236737972945
10
6.0999999999999899
20
42.632233047033601
10
6.0999999999999899
20
37.367766952966399
42
-0.19891236737973303
10
5.95355339059327
20
37.014213562373101
10
3.58578643762691
20
34.646446609406702
42
-0.19891236737962059
10
3.2322330470336302
20
34.5
10
2.2999999999999998
20
34.5
42
-0.41421356237312157
10
1.8000000000000003
20
35
10
1.8000000000000003
20
36.875
10
1.4550000000000001
20
36.875
10
0.14644660940672288
20
35.566446609406697
42
0.19891236737967566
10
-1.0408340855860843e-16
20
35.212893218813399
10
0
20
24.787106781186502
42
0.19891236737965931
10
0.14644660940672297
20
24.433553390593303
10
1.4550000000000001
20
23.125
10
1.8000000000000003
20
23.125
10
1.8000000000000016
20
25
42
-0.41421356237310802
10
2.2999999999999998
20
25.500000000000004
10
3.2322330470336298
20
25.500000000000004
42
-0.19891236737962545
10
3.58578643762691
20
25.353553390593305
10
5.9535533905932692
20
22.985786437626899
42
-0.19891236737973592
10
6.0999999999999899
20
22.632233047033601
10
6.0999999999999908
20
17.367766952966399
42
-0.19891236737972678
10
5.95355339059327
20
17.014213562373101
10
3.58578643762691
20
14.6464466094067
42
-0.19891236737962337
10
3.2322330470336302
20
14.500000000000002
10
2.2999999999999998
20
14.500000000000002
42
-0.41421356237309098
10
1.8000000000000003
20
15
10
1.8000000000000003
20
16.875
10
1.4550000000000001
20
16.875
10
0.14644660940672288
20
15.5664466094067
42
0.19891236737967807
10
0
20
15.212893218813402
10
0
20
10.5
42
0.41421356237309731
10
0.5
20
10
10
5.2128932188134502
20
10
42
0.19891236737966958
10
5.5664466094067313
20
10.1464466094067
10
6.875
20
11.455
10
6.875
20
11.800000000000001
10
5
20
11.800000000000001
42
-0.4142135623731022
10
4.5
20
12.300000000000002
10
4.5000000000000009
20
13.232233047033599
42
-0.19891236737969989
10
4.6464466094067198
20
13.585786437626901
10
7.0142135623731008
20
15.953553390593299
42
-0.19891236737965406
10
7.3677669529663801
20
16.100000000000001
10
12.632233047033601
20
16.100000000000005
42
-0.1989123673796393
10
12.985786437626901
20
15.953553390593299
10
15.3535533905933
20
13.585786437626901
42
-0.19891236737968235
10
15.5
20
13.232233047033599
10
15.5
20
12.300000000000002
42
-0.41421356237309503
10
15
20
11.800000000000001
10
13.125
20
11.800000000000001
10
13.125
20
11.455
10
14.433553390593302
20
10.1464466094067
42
0.19891236737964482
10
14.787106781186601
20
10
10
19.5
20
10
42
0.4142135623730937
10
20
20
10.5
10
20
20
15.212893218813402
42
0.19891236737965104
10
19.853553390593301
20
15.5664466094067
10
18.545000000000002
20
16.875
10
18.199999999999999
20
16.875
10
18.199999999999999
20
15
42
-0.4142135623730937
10
17.699999999999999
20
14.500000000000002
10
16.767766952966401
20
14.500000000000002
42
-0.19891236737963952
10
16.414213562373099
20
14.6464466094067
10
14.046446609406704
20
17.014213562373101
42
-0.19891236737967416
10
13.900000000000002
20
17.367766952966399
10
13.900000000000002
20
22.632233047033601
42
-0.19891236737965107
10
14.046446609406702
20
22.985786437626899
10
16.414213562373103
20
25.353553390593305
42
-0.19891236737966214
10
16.767766952966401
20
25.500000000000004
10
17.699999999999999
20
25.500000000000007
42
-0.41421356237309764
10
18.199999999999999
20
25
10
18.199999999999999
20
23.125
10
18.545000000000002
20
23.125
10
19.853553390593301
20
24.433553390593303
42
0.19891236737966206
10
20
20
24.787106781186502
10
20
20
29.5
42
-0.41421356237308204
10
20.500000000000004
20
30
10
25.212893218813402
20
30
42
0.19891236737966056
10
25.5664466094067
20
30.146446609406699
10
26.875
20
31.455000000000002
10
26.875
20
31.800000000000001
10
25
20
31.800000000000001
42
-0.41421356237308982
10
24.5
20
32.299999999999997
10
24.499999999999996
20
33.232233047033603
42
-0.19891236737964876
10
24.646446609406702
20
33.585786437626901
10
27.014213562373101
20
35.953553390593299
42
-0.19891236737965823
10
27.367766952966402
20
36.100000000000001
10
32.632233047033601
20
36.100000000000001
42
-0.19891236737967105
10
32.985786437626899
20
35.953553390593299
10
35.353553390593305
20
33.585786437626901
42
-0.19891236737965037
10
35.5
20
33.232233047033603
10
35.5
20
32.299999999999997
42
-0.41421356237309764
10
35
20
31.800000000000001
10
33.125
20
31.800000000000001
10
33.125
20
31.455000000000002
10
34.433553390593303
20
30.146446609406699
42
0.19891236737966356
10
34.787106781186509
20
30
10
45.212893218813399
20
30
42
0.19891236737968027
10
45.566446609406697
20
30.146446609406699
10
46.875
20
31.455000000000002
10
46.875
20
31.800000000000001
10
45
20
31.800000000000001
42
-0.41421356237309503
10
44.5
20
32.299999999999997
10
44.5
20
33.232233047033603
42
-0.19891236737962811
10
44.646446609406702
20
33.585786437626901
10
47.014213562373108
20
35.953553390593299
42
-0.19891236737964577
10
47.367766952966399
20
36.100000000000001
10
52.632233047033601
20
36.100000000000001
42
-0.19891236737968848
10
52.985786437626899
20
35.953553390593299
10
55.353553390593298
20
33.585786437626901
42
-0.19891236737967982
10
55.500000000000007
20
33.232233047033603
10
55.500000000000007
20
32.299999999999997
42
-0.41421356237310025
10
55
20
31.800000000000001
10
53.125
20
31.800000000000001
10
53.125
20
31.455000000000002
10
54.433553390593303
20
30.146446609406699
42
0.19891236737966295
10
54.787106781186509
20
30
10
59.5
20
30
42
-0.41421356237306384
10
60
20
29.5
10
60
20
24.787106781186502
42
0.19891236737963006
10
60.146446609406709
20
24.433553390593303
10
61.454999999999998
20
23.125
10
61.799999999999997
20
23.125
10
61.799999999999997
20
25
42
-0.41421356237307944
10
62.300000000000004
20
25.500000000000004
10
63.23223304703361
20
25.500000000000004
42
-0.19891236737966123
10
63.585786437626908
20
25.353553390593305
10
65.953553390593299
20
22.985786437626899
42
-0.19891236737969287
10
66.099999999999994
20
22.632233047033601
10
66.099999999999994
20
17.367766952966399
42
-0.19891236737964796
10
65.953553390593299
20
17.014213562373101
10
63.585786437626908
20
14.646446609406702
42
-0.19891236737964577
10
63.232233047033617
20
14.500000000000002
10
62.300000000000011
20
14.499999999999996
42
-0.41421356237306123
10
61.799999999999997
20
15
10
61.799999999999997
20
16.875
10
61.454999999999998
20
16.875
10
60.146446609406709
20
15.5664466094067
42
0.19891236737967982
10
60
20
15.212893218813402
10
60
20
10.5
42
0.41421356237310281
10
60.500000000000007
20
10
10
65.212893218813406
20
10
42
0.19891236737967263
10
65.566446609406697
20
10.1464466094067
10
66.875
20
11.455
10
66.875
20
11.800000000000001
10
65
20
11.799999999999997
42
-0.41421356237310936
10
64.5
20
12.300000000000002
10
64.5
20
13.232233047033599
42
-0.19891236737966331
10
64.646446609406695
20
13.585786437626901
10
67.014213562373101
20
15.953553390593299
42
-0.19891236737968929
10
67.367766952966406
20
16.100000000000001
10
72.632233047033594
20
16.100000000000001
42
-0.1989123673796265
10
72.985786437626899
20
15.953553390593299
10
75.353553390593305
20
13.585786437626901
42
-0.1989123673797516
10
75.5
20
13.232233047033599
10
75.5
20
12.300000000000002
42
-0.41421356237310281
10
75
20
11.800000000000001
10
73.125
20
11.800000000000001
10
73.125
20
11.455
10
74.433553390593303
20
10.1464466094067
42
0.19891236737963952
10
74.787106781186594
20
10
10
79.5
20
10
42
0.41421356237308332
10
80
20
10.5
10
80
20
15.212893218813402
42
0.19891236737964157
10
79.853553390593305
20
15.5664466094067
10
78.545000000000002
20
16.875
10
78.200000000000003
20
16.875
10
78.200000000000003
20
15
42
-0.41421356237309631
10
77.700000000000003
20
14.500000000000002
10
76.767766952966397
20
14.500000000000002
42
-0.19891236737958876
10
76.414213562373106
20
14.6464466094067
10
74.046446609406701
20
17.014213562373101
42
-0.19891236737971096
10
73.900000000000006
20
17.367766952966399
10
73.900000000000006
20
22.632233047033598
42
-0.19891236737962581
10
74.046446609406701
20
22.985786437626899
10
76.414213562373106
20
25.353553390593309
42
-0.19891236737967566
10
76.767766952966397
20
25.500000000000004
10
77.699999999999989
20
25.500000000000004
42
-0.41421356237309764
10
78.200000000000003
20
25
10
78.200000000000003
20
23.125
10
78.545000000000002
20
23.125
10
79.853553390593305
20
24.433553390593303
42
0.19891236737964199
10
80
20
24.787106781186502
10
80
20
35.212893218813399
42
0.19891236737963894
10
79.853553390593305
20
35.566446609406697
10
78.545000000000002
20
36.875
10
78.200000000000003
20
36.875
10
78.200000000000003
20
35
42
-0.41421356237308721
10
77.700000000000003
20
34.5
10
76.767766952966397
20
34.500000000000007
42
-0.19891236737958876
10
76.414213562373106
20
34.646446609406702
10
74.046446609406701
20
37.014213562373101
42
-0.19891236737970416
10
73.899999999999991
20
37.367766952966399
10
73.90000000000002
20
42.632233047033601
42
-0.1989123673796438
10
74.046446609406701
20
42.985786437626899
10
76.414213562373106
20
45.353553390593305
42
-0.19891236737967866
10
76.767766952966412
20
45.5
10
77.700000000000003
20
45.5
42
-0.41421356237309503
10
78.200000000000003
20
45
10
78.200000000000003
20
43.125
10
78.545000000000002
20
43.125
10
79.853553390593305
20
44.433553390593303
42
0.19891236737964499
10
80
20
44.787106781186509
10
80
20
49.5
42
0.41421356237306384
10
79.5
20
50
10
74.787106781186594
20
50
42
0.19891236737969953
10
74.433553390593303
20
49.853553390593305
10
73.125
20
48.545000000000009
10
73.125
20
48.200000000000003
10
75
20
48.200000000000003
42
-0.41421356237315227
10
75.5
20
47.700000000000003
10
75.5
20
46.767766952966397
42
-0.1989123673796169
10
75.353553390593305
20
46.414213562373099
10
72.985786437626899
20
44.046446609406694
42
-0.19891236737966145
10
72.632233047033594
20
43.899999999999999
10
67.367766952966406
20
43.899999999999999
42
-0.19891236737963791
0
LWPOLYLINE
5
101
100
AcDbEntity
8
0
100
AcDbPolyline
90
22
70
1
43
0.0
10
54.046446609406701
20
42.985786437626899
10
56.853553390593305
20
45.792893218813397
42
0.1989123673795789
10
57
20
46.146446609406702
10
57
20
47.700000000000003
42
-0.41421356237309503
10
57.5
20
48.200000000000003
10
62.5
20
48.200000000000003
42
-0.41421356237310025
10
63.000000000000007
20
47.700000000000003
10
63.000000000000007
20
46.146446609406802
42
0.19891236737964382
10
63.146446609406709
20
45.792893218813504
10
65.953553390593299
20
42.985786437626899
42
-0.19891236737968779
10
66.099999999999994
20
42.632233047033594
10
66.099999999999994
20
37.367766952966399
42
-0.19891236737961829
10
65.953553390593299
20
37.014213562373101
10
60.885786437626905
20
31.946446609406699
42
-0.19891236737968351
10
60.5322330470336
20
31.800000000000001
10
57.5
20
31.800000000000001
42
-0.41421356237304302
10
57
20
32.299999999999997
10
57
20
33.853553390593298
42
0.1989123673797174
10
56.853553390593305
20
34.207106781186511
10
54.046446609406701
20
37.014213562373101
42
-0.19891236737966447
10
53.900000000000006
20
37.367766952966406
10
53.900000000000013
20
42.632233047033601
42
-0.1989123673796438
0
LWPOLYLINE
5
102
100
AcDbEntity
8
0
100
AcDbPolyline
90
22
70
1
43
0.0
10
14.046446609406702
20
42.985786437626899
10
16.853553390593305
20
45.792893218813397
42
0.19891236737956691
10
17
20
46.146446609406702
10
17
20
47.700000000000003
42
-0.41421356237309631
10
17.5
20
48.200000000000003
10
22.5
20
48.200000000000003
42
-0.41421356237309764
10
23.000000000000004
20
47.700000000000003
10
23.000000000000004
20
46.146446609406802
42
0.19891236737962184
10
23.146446609406702
20
45.792893218813504
10
25.953553390593306
20
42.985786437626899
42
-0.19891236737965037
10
26.100000000000001
20
42.632233047033601
10
26.100000000000001
20
37.367766952966399
42
-0.19891236737965914
10
25.953553390593299
20
37.014213562373101
10
23.146446609406702
20
34.207106781186603
42
0.19891236737955756
10
23.000000000000004
20
33.853553390593298
10
23.000000000000004
20
32.299999999999997
42
-0.41421356237309243
10
22.5
20
31.800000000000001
10
19.4677669529664
20
31.800000000000001
42
-0.19891236737956983
10
19.114213562373099
20
31.946446609406699
10
14.046446609406702
20
37.014213562373108
42
-0.19891236737966619
10
13.900000000000002
20
37.367766952966399
10
13.900000000000004
20
42.632233047033601
42
-0.19891236737964865
0
LWPOLYLINE
5
103
100
AcDbEntity
8
0
100
AcDbPolyline
90
22
70
1
43
0.0
10
18.199999999999999
20
30.532233047033699
10
18.200000000000003
20
27.5
42
-0.41421356237307161
10
17.699999999999999
20
27
10
16.146446609406699
20
27
42
0.19891236737967832
10
15.792893218813502
20
26.853553390593305
10
12.985786437626903
20
24.046446609406704
42
-0.19891236737965512
10
12.632233047033598
20
23.899999999999999
10
7.367766952966381
20
23.900000000000002
42
-0.19891236737961288
10
7.0142135623731008
20
24.046446609406704
10
4.2071067811865497
20
26.853553390593305
42
0.19891236737963516
10
3.8535533905932806
20
27
10
2.2999999999999998
20
27
42
-0.41421356237308127
10
1.8000000000000003
20
27.5
10
1.7999999999999998
20
32.5
42
-0.41421356237311419
10
2.2999999999999998
20
33
10
3.85355339059325
20
33
42
0.19891236737961362
10
4.2071067811865204
20
33.146446609406709
10
7.014213562373099
20
35.953553390593299
42
-0.1989123673796423
10
7.367766952966381
20
36.100000000000001
10
12.632233047033601
20
36.100000000000001
42
-0.1989123673796287
10
12.985786437626901
20
35.953553390593299
10
18.053553390593304
20
30.885786437626905
42
-0.19891236737965487
0
LWPOLYLINE
5
104
100
AcDbEntity
8
0
100
AcDbPolyline
90
22
70
1
43
0.0
10
61.946446609406706
20
30.885786437626905
10
67.014213562373101
20
35.953553390593299
42
-0.19891236737968523
10
67.367766952966406
20
36.100000000000001
10
72.632233047033594
20
36.100000000000009
42
-0.19891236737959325
10
72.985786437626899
20
35.953553390593299
10
75.792893218813404
20
33.146446609406709
42
0.19891236737957915
10
76.146446609406695
20
33
10
77.700000000000003
20
33.000000000000007
42
-0.41421356237308982
10
78.200000000000003
20
32.5
10
78.200000000000003
20
27.5
42
-0.41421356237308721
10
77.700000000000003
20
27
10
76.146446609406695
20
27
42
0.19891236737967732
10
75.792893218813504
20
26.853553390593305
10
72.985786437626899
20
24.046446609406704
42
-0.19891236737965501
10
72.632233047033594
20
23.900000000000002
10
67.367766952966406
20
23.900000000000002
42
-0.19891236737965037
10
67.014213562373101
20
24.046446609406704
10
64.207106781186596
20
26.853553390593305
42
0.19891236737958543
10
63.853553390593305
20
27
10
62.300000000000004
20
27
42
-0.41421356237310025
10
61.799999999999997
20
27.5
10
61.799999999999997
20
30.532233047033699
42
-0.19891236737968293
0
LWPOLYLINE
5
105
100
AcDbEntity
8
0
100
AcDbPolyline
90
24
70
1
43
0.0
10
37
20
46.146446609406702
10
37
20
47.700000000000003
42
-0.41421356237310542
10
37.5
20
48.200000000000003
10
42.5
20
48.200000000000003
42
-0.41421356237309503
10
43
20
47.700000000000003
10
43
20
46.146446609406802
42
0.19891236737966475
10
43.146446609406709
20
45.792893218813504
10
45.953553390593306
20
42.985786437626899
42
-0.19891236737966284
10
46.100000000000001
20
42.632233047033601
10
46.100000000000001
20
37.367766952966399
42
-0.19891236737963597
10
45.953553390593306
20
37.014213562373101
10
43.146446609406709
20
34.207106781186603
42
0.19891236737957751
10
43
20
33.853553390593298
10
43
20
32.299999999999997
42
-0.41421356237309503
10
42.5
20
31.800000000000001
10
37.5
20
31.800000000000001
42
-0.4142135623730534
10
37
20
32.299999999999997
10
37
20
33.853553390593298
42
0.198912367379697
10
36.853553390593298
20
34.207106781186511
10
34.046446609406701
20
37.014213562373101
42
-0.19891236737965037
10
33.899999999999999
20
37.367766952966399
10
33.899999999999999
20
42.632233047033601
42
-0.19891236737965362
10
34.046446609406701
20
42.985786437626899
10
36.853553390593298
20
45.792893218813397
42
0.19891236737958706
0
CIRCLE
5
106
100
AcDbEntity
8
0
100
AcDbCircle
10
70
20
39.999999999999993
30
0
40
2.099999999999993
210
9.4377150946583514e-16
220
2.4275571330138536e-17
230
1
0
CIRCLE
5
107
100
AcDbEntity
8
0
100
AcDbCircle
10
69.999999999999986
20
19.999999999999996
30
0
40
2.0999999999999979
210
9.4377150946583041e-16
220
2.4275571330145331e-17
230
1
0
CIRCLE
5
108
100
AcDbEntity
8
0
100
AcDbCircle
10
10.000000000000002
20
20.000000000000004
30
0
40
2.1000000000000032
210
9.4377150946582133e-16
220
2.4275571330138536e-17
230
1
0
CIRCLE
5
109
100
AcDbEntity
8
0
100
AcDbCircle
10
10.000000000000014
20
40
30
0
40
2.1000000000000005
210
9.437715094658239e-16
220
2.427557133013429e-17
230
1
0
CIRCLE
5
110
100
AcDbEntity
8
0
100
AcDbCircle
10
30.000000000000004
20
39.999999999999993
30
0
40
2.1000000000000032
210
2.4275571330136268e-17
220
-9.4377150946581818e-16
230
1
0
CIRCLE
5
111
100
AcDbEntity
8
0
100
AcDbCircle
10
50.000000000000007
20
39.999999999999986
30
0
40
2.100000000000009
210
2.4275571330132761e-17
220
-9.4377150946582035e-16
230
1
0
LWPOLYLINE
5
112
100
AcDbEntity
8
0
100
AcDbPolyline
90
296
70
1
43
0.0
10
67.014213562373101
20
44.046446609406701
10
64.646446609406695
20
46.414213562373099
42
-0.19891236737966608
10
64.5
20
46.767766952966397
10
64.5
20
47.700000000000003
42
-0.41421356237309503
10
65
20
48.200000000000003
10
66.875
20
48.200000000000003
10
66.875
20
48.545000000000009
10
65.566446609406697
20
49.853553390593305
42
0.19891236737966941
10
65.21289321881342
20
50
10
54.787106781186509
20
50
42
0.19891236737968818
10
54.433553390593303
20
49.853553390593305
10
53.125
20
48.545000000000009
10
53.125
20
48.200000000000003
10
55
20
48.199999999999996
42
-0.41421356237311585
10
55.500000000000007
20
47.700000000000003
10
55.500000000000007
20
46.767766952966397
42
-0.19891236737964116
10
55.353553390593298
20
46.414213562373099
10
52.985786437626899
20
44.046446609406694
42
-0.19891236737965037
10
52.632233047033601
20
43.899999999999999
10
47.367766952966399
20
43.899999999999999
42
-0.19891236737964116
10
47.014213562373108
20
44.046446609406701
10
44.646446609406702
20
46.414213562373099
42
-0.19891236737966608
10
44.5
20
46.767766952966397
10
44.5
20
47.700000000000003
42
-0.41421356237309503
10
45
20
48.200000000000003
10
46.875
20
48.200000000000003
10
46.875
20
48.545000000000009
10
45.566446609406697
20
49.853553390593305
42
0.19891236737967863
10
45.212893218813399
20
50
10
34.787106781186509
20
50
42
0.19891236737970724
10
34.433553390593303
20
49.853553390593305
10
33.125
20
48.545000000000009
10
33.125
20
48.200000000000003
10
35
20
48.200000000000003
42
-0.41421356237312101
10
35.5
20
47.700000000000003
10
35.500000000000007
20
46.767766952966397
42
-0.19891236737965362
10
35.353553390593298
20
46.414213562373099
10
32.985786437626906
20
44.046446609406701
42
-0.19891236737964577
10
32.632233047033601
20
43.899999999999999
10
27.367766952966402
20
43.899999999999999
42
-0.19891236737968709
10
27.014213562373101
20
44.046446609406701
10
24.646446609406702
20
46.414213562373099
42
-0.19891236737966447
10
24.5
20
46.767766952966397
10
24.5
20
47.700000000000003
42
-0.41421356237309503
10
25
20
48.200000000000003
10
26.875
20
48.200000000000003
10
26.875
20
48.545000000000009
10
25.5664466094067
20
49.853553390593305
42
0.19891236737966775
10
25.212893218813406
20
50
10
14.787106781186502
20
50
42
0.19891236737970247
10
14.433553390593302
20
49.853553390593305
10
13.125
20
48.545000000000009
10
13.125
20
48.200000000000003
10
15
20
48.199999999999996
42
-0.41421356237312101
10
15.5
20
47.700000000000003
10
15.5
20
46.767766952966397
42
-0.19891236737964255
10
15.3535533905933
20
46.414213562373099
10
12.985786437626901
20
44.046446609406701
42
-0.19891236737963791
10
12.632233047033601
20
43.899999999999999
10
7.3677669529663801
20
43.899999999999999
42
-0.19891236737959325
10
7.0142135623731008
20
44.046446609406701
10
4.6464466094067189
20
46.414213562373092
42
-0.19891236737965337
10
4.5
20
46.767766952966397
10
4.5000000000000009
20
47.700000000000003
42
-0.41421356237308526
10
5
20
48.200000000000003
10
6.875
20
48.200000000000003
10
6.875
20
48.545000000000009
10
5.5664466094067313
20
49.853553390593305
42
0.19891236737962203
10
5.2128932188134502
20
50
10
0.49999999999999989
20
50
42
0.41421356237307683
10
-8.1057092265683113e-28
20
49.5
10
0
20
44.787106781186509
42
0.19891236737964138
10
0.14644660940672288
20
44.433553390593303
10
1.4550000000000001
20
43.125
10
1.8000000000000003
20
43.125
10
1.7999999999999992
20
45
42
-0.41421356237310691
10
2.2999999999999998
20
45.5
10
3.2322330470336302
20
45.5
42
-0.19891236737962523
10
3.58578643762691
20
45.353553390593298
10
5.9535533905932674
20
42.985786437626892
42
-0.19891236737974341
10
6.0999999999999899
20
42.632233047033601
10
6.0999999999999908
20
37.367766952966399
42
-0.19891236737972562
10
5.95355339059327
20
37.014213562373101
10
3.5857864376269104
20
34.646446609406702
42
-0.19891236737961299
10
3.2322330470336302
20
34.5
10
2.2999999999999998
20
34.5
42
-0.41421356237312679
10
1.8000000000000003
20
35
10
1.8000000000000003
20
36.875
10
1.4550000000000001
20
36.875
10
0.14644660940672288
20
35.566446609406697
42
0.19891236737967563
10
-6.9388939039072284e-17
20
35.212893218813399
10
0
20
24.787106781186502
42
0.19891236737965917
10
0.14644660940672272
20
24.433553390593303
10
1.4550000000000001
20
23.125
10
1.8000000000000003
20
23.125
10
1.7999999999999994
20
25
42
-0.41421356237310414
10
2.2999999999999998
20
25.500000000000004
10
3.2322330470336298
20
25.500000000000004
42
-0.19891236737962534
10
3.58578643762691
20
25.353553390593305
10
5.95355339059327
20
22.985786437626899
42
-0.19891236737973117
10
6.0999999999999899
20
22.632233047033601
10
6.0999999999999908
20
17.367766952966399
42
-0.19891236737972678
10
5.95355339059327
20
17.014213562373101
10
3.58578643762691
20
14.6464466094067
42
-0.19891236737962431
10
3.2322330470336302
20
14.500000000000002
10
2.2999999999999998
20
14.5
42
-0.41421356237308982
10
1.8000000000000003
20
15
10
1.8000000000000003
20
16.875
10
1.4550000000000001
20
16.875
10
0.14644660940672288
20
15.5664466094067
42
0.19891236737967688
10
-6.9388939039072284e-17
20
15.212893218813404
10
0
20
10.5
42
0.41421356237309731
10
0.5
20
10
10
5.2128932188134502
20
10
42
0.19891236737966958
10
5.5664466094067313
20
10.1464466094067
10
6.875
20
11.455
10
6.875
20
11.800000000000001
10
5
20
11.800000000000001
42
-0.41421356237310186
10
4.5
20
12.300000000000002
10
4.5000000000000009
20
13.232233047033599
42
-0.19891236737969711
10
4.6464466094067198
20
13.585786437626901
10
7.0142135623731008
20
15.953553390593298
42
-0.19891236737965384
10
7.3677669529663801
20
16.100000000000001
10
12.632233047033601
20
16.100000000000001
42
-0.19891236737963849
10
12.985786437626901
20
15.953553390593299
10
15.353553390593298
20
13.585786437626901
42
-0.19891236737968201
10
15.5
20
13.232233047033599
10
15.499999999999998
20
12.300000000000002
42
-0.41421356237309115
10
15
20
11.800000000000001
10
13.125
20
11.800000000000001
10
13.125
20
11.455
10
14.433553390593302
20
10.1464466094067
42
0.19891236737964482
10
14.787106781186601
20
10
10
19.5
20
10
42
0.4142135623730937
10
20
20
10.5
10
20
20
15.212893218813402
42
0.19891236737965104
10
19.853553390593301
20
15.5664466094067
10
18.545000000000002
20
16.875
10
18.199999999999999
20
16.875
10
18.199999999999999
20
15
42
-0.4142135623730937
10
17.699999999999999
20
14.500000000000002
10
16.767766952966401
20
14.5
42
-0.19891236737963838
10
16.414213562373099
20
14.6464466094067
10
14.046446609406702
20
17.014213562373101
42
-0.19891236737967219
10
13.900000000000002
20
17.367766952966399
10
13.900000000000002
20
22.632233047033601
42
-0.19891236737964726
10
14.046446609406702
20
22.985786437626899
10
16.414213562373099
20
25.353553390593305
42
-0.19891236737966053
10
16.767766952966401
20
25.500000000000004
10
17.699999999999999
20
25.500000000000007
42
-0.41421356237309764
10
18.199999999999999
20
25
10
18.199999999999999
20
23.125
10
18.545000000000002
20
23.125
10
19.853553390593301
20
24.433553390593303
42
0.19891236737966206
10
20
20
24.787106781186502
10
20
20
29.5
42
-0.41421356237308721
10
20.500000000000004
20
30
10
25.212893218813402
20
30
42
0.19891236737966056
10
25.5664466094067
20
30.146446609406699
10
26.875
20
31.455000000000002
10
26.875
20
31.800000000000001
10
25
20
31.800000000000001
42
-0.41421356237309503
10
24.5
20
32.299999999999997
10
24.5
20
33.232233047033603
42
-0.19891236737966447
10
24.646446609406702
20
33.585786437626901
10
27.014213562373101
20
35.953553390593299
42
-0.19891236737965753
10
27.367766952966402
20
36.100000000000001
10
32.632233047033601
20
36.100000000000001
42
-0.19891236737968385
10
32.985786437626906
20
35.953553390593299
10
35.353553390593298
20
33.585786437626901
42
-0.19891236737965362
10
35.5
20
33.23223304703361
10
35.5
20
32.299999999999997
42
-0.41421356237309764
10
35
20
31.800000000000001
10
33.125
20
31.800000000000001
10
33.125
20
31.455000000000002
10
34.433553390593303
20
30.146446609406699
42
0.19891236737966356
10
34.787106781186509
20
30
10
45.212893218813399
20
30
42
0.19891236737968027
10
45.566446609406697
20
30.146446609406699
10
46.875
20
31.455000000000002
10
46.875
20
31.800000000000001
10
45
20
31.799999999999997
42
-0.41421356237309764
10
44.5
20
32.299999999999997
10
44.5
20
33.232233047033603
42
-0.19891236737962406
10
44.646446609406702
20
33.585786437626901
10
47.014213562373108
20
35.953553390593299
42
-0.19891236737965223
10
47.367766952966399
20
36.100000000000001
10
52.632233047033601
20
36.100000000000001
42
-0.19891236737968523
10
52.985786437626899
20
35.953553390593299
10
55.353553390593298
20
33.585786437626908
42
-0.19891236737969009
10
55.500000000000007
20
33.232233047033603
10
55.500000000000007
20
32.299999999999997
42
-0.41421356237311846
10
55
20
31.800000000000001
10
53.125
20
31.800000000000001
10
53.125
20
31.455000000000002
10
54.433553390593303
20
30.146446609406699
42
0.19891236737966295
10
54.787106781186509
20
30
10
59.5
20
30
42
-0.41421356237306384
10
60
20
29.5
10
60
20
24.787106781186502
42
0.19891236737963006
10
60.146446609406709
20
24.433553390593303
10
61.454999999999998
20
23.125
10
61.799999999999997
20
23.125
10
61.799999999999997
20
25
42
-0.41421356237310025
10
62.300000000000004
20
25.500000000000004
10
63.23223304703361
20
25.5
42
-0.19891236737965962
10
63.585786437626908
20
25.353553390593305
10
65.953553390593299
20
22.985786437626899
42
-0.19891236737968881
10
66.099999999999994
20
22.632233047033601
10
66.099999999999994
20
17.367766952966399
42
-0.19891236737964368
10
65.953553390593299
20
17.014213562373101
10
63.585786437626908
20
14.646446609406702
42
-0.19891236737964577
10
63.232233047033617
20
14.500000000000002
10
62.300000000000004
20
14.5
42
-0.41421356237307033
10
61.799999999999997
20
15
10
61.799999999999997
20
16.875
10
61.454999999999998
20
16.875
10
60.146446609406709
20
15.5664466094067
42
0.19891236737967982
10
60
20
15.212893218813402
10
60
20
10.5
42
0.41421356237310281
10
60.500000000000007
20
10
10
65.212893218813406
20
10
42
0.19891236737967263
10
65.566446609406697
20
10.1464466094067
10
66.875
20
11.455
10
66.875
20
11.800000000000001
10
65
20
11.799999999999995
42
-0.41421356237310025
10
64.5
20
12.300000000000002
10
64.5
20
13.232233047033599
42
-0.19891236737966331
10
64.646446609406695
20
13.585786437626901
10
67.014213562373101
20
15.953553390593296
42
-0.19891236737970117
10
67.367766952966406
20
16.100000000000001
10
72.632233047033594
20
16.100000000000001
42
-0.19891236737961945
10
72.985786437626899
20
15.953553390593299
10
75.353553390593305
20
13.585786437626901
42
-0.19891236737975923
10
75.5
20
13.232233047033599
10
75.5
20
12.300000000000002
42
-0.41421356237309115
10
75
20
11.800000000000001
10
73.125
20
11.800000000000001
10
73.125
20
11.455
10
74.433553390593303
20
10.1464466094067
42
0.19891236737963949
10
74.787106781186594
20
9.9999999999999982
10
79.5
20
10
42
0.41421356237308332
10
80
20
10.5
10
80
20
15.212893218813402
42
0.19891236737964157
10
79.853553390593305
20
15.5664466094067
10
78.545000000000002
20
16.875
10
78.200000000000003
20
16.875
10
78.200000000000003
20
15
42
-0.41421356237309503
10
77.700000000000003
20
14.500000000000002
10
76.767766952966397
20
14.499999999999996
42
-0.19891236737959359
10
76.414213562373106
20
14.6464466094067
10
74.046446609406701
20
17.014213562373101
42
-0.19891236737971754
10
73.900000000000006
20
17.367766952966399
10
73.899999999999991
20
22.632233047033601
42
-0.1989123673796139
10
74.046446609406701
20
22.985786437626899
10
76.414213562373106
20
25.353553390593305
42
-0.19891236737968224
10
76.767766952966397
20
25.500000000000004
10
77.700000000000003
20
25.5
42
-0.41421356237309503
10
78.200000000000003
20
25
10
78.200000000000003
20
23.125
10
78.545000000000002
20
23.125
10
79.853553390593305
20
24.433553390593303
42
0.19891236737964199
10
80
20
24.787106781186502
10
80
20
35.212893218813399
42
0.19891236737963894
10
79.853553390593305
20
35.566446609406697
10
78.545000000000002
20
36.875
10
78.200000000000003
20
36.875
10
78.200000000000003
20
35
42
-0.4142135623730846
10
77.700000000000003
20
34.5
10
76.767766952966397
20
34.500000000000014
42
-0.19891236737958379
10
76.414213562373106
20
34.646446609406702
10
74.046446609406701
20
37.014213562373101
42
-0.19891236737971593
10
73.900000000000006
20
37.367766952966399
10
73.900000000000006
20
42.632233047033594
42
-0.19891236737962811
10
74.046446609406701
20
42.985786437626899
10
76.414213562373106
20
45.353553390593298
42
-0.19891236737968052
10
76.767766952966397
20
45.5
10
77.700000000000003
20
45.5
42
-0.41421356237309503
10
78.200000000000003
20
45
10
78.200000000000003
20
43.125
10
78.545000000000002
20
43.125
10
79.853553390593305
20
44.433553390593303
42
0.1989123673796403
10
80
20
44.787106781186495
10
80
20
49.5
42
0.41421356237306384
10
79.5
20
50
10
74.787106781186594
20
50
42
0.19891236737969953
10
74.433553390593303
20
49.853553390593305
10
73.125
20
48.545000000000009
10
73.125
20
48.200000000000003
10
75
20
48.199999999999996
42
-0.41421356237315748
10
75.5
20
47.700000000000003
10
75.5
20
46.767766952966397
42
-0.1989123673796169
10
75.353553390593305
20
46.414213562373099
10
72.985786437626899
20
44.046446609406694
42
-0.19891236737965037
10
72.632233047033608
20
43.899999999999999
10
67.367766952966406
20
43.899999999999999
42
-0.19891236737964116
0
LWPOLYLINE
5
113
100
AcDbEntity
8
0
100
AcDbPolyline
90
22
70
1
43
0.0
10
54.046446609406701
20
42.985786437626899
10
56.853553390593305
20
45.792893218813397
42
0.1989123673795789
10
57
20
46.146446609406702
10
57
20
47.700000000000003
42
-0.41421356237309503
10
57.5
20
48.200000000000003
10
62.5
20
48.200000000000003
42
-0.41421356237310025
10
63.000000000000007
20
47.700000000000003
10
63.000000000000007
20
46.146446609406802
42
0.19891236737964382
10
63.146446609406709
20
45.792893218813504
10
65.953553390593299
20
42.985786437626899
42
-0.19891236737968651
10
66.099999999999994
20
42.632233047033608
10
66.100000000000009
20
37.367766952966399
42
-0.19891236737963341
10
65.953553390593299
20
37.014213562373101
10
60.885786437626891
20
31.946446609406706
42
-0.19891236737968684
10
60.5322330470336
20
31.800000000000001
10
57.5
20
31.799999999999997
42
-0.41421356237303519
10
57
20
32.299999999999997
10
57
20
33.853553390593298
42
0.1989123673797174
10
56.853553390593305
20
34.207106781186511
10
54.046446609406701
20
37.014213562373101
42
-0.19891236737965984
10
53.900000000000006
20
37.367766952966399
10
53.900000000000006
20
42.632233047033594
42
-0.19891236737962811
0
LWPOLYLINE
5
114
100
AcDbEntity
8
0
100
AcDbPolyline
90
22
70
1
43
0.0
10
14.046446609406702
20
42.985786437626899
10
16.853553390593305
20
45.792893218813397
42
0.19891236737956691
10
17
20
46.146446609406702
10
17.000000000000004
20
47.700000000000003
42
-0.4142135623730937
10
17.5
20
48.200000000000003
10
22.5
20
48.200000000000003
42
-0.41421356237309503
10
23.000000000000004
20
47.700000000000003
10
23.000000000000004
20
46.146446609406802
42
0.19891236737962184
10
23.146446609406702
20
45.792893218813504
10
25.953553390593299
20
42.985786437626899
42
-0.19891236737966159
10
26.100000000000001
20
42.632233047033601
10
26.100000000000001
20
37.367766952966399
42
-0.19891236737967496
10
25.953553390593299
20
37.014213562373101
10
23.146446609406702
20
34.207106781186603
42
0.19891236737955989
10
23.000000000000004
20
33.853553390593298
10
23.000000000000007
20
32.299999999999997
42
-0.41421356237308982
10
22.5
20
31.800000000000001
10
19.4677669529664
20
31.800000000000001
42
-0.19891236737956233
10
19.114213562373099
20
31.946446609406699
10
14.046446609406702
20
37.014213562373101
42
-0.19891236737966228
10
13.900000000000002
20
37.367766952966399
10
13.900000000000004
20
42.632233047033601
42
-0.19891236737965581
0
LWPOLYLINE
5
115
100
AcDbEntity
8
0
100
AcDbPolyline
90
22
70
1
43
0.0
10
18.199999999999999
20
30.532233047033699
10
18.200000000000003
20
27.5
42
-0.41421356237307683
10
17.699999999999999
20
27
10
16.146446609406699
20
27
42
0.19891236737967832
10
15.792893218813502
20
26.853553390593305
10
12.985786437626901
20
24.046446609406704
42
-0.19891236737965512
10
12.632233047033598
20
23.900000000000002
10
7.3677669529663801
20
23.900000000000002
42
-0.19891236737961276
10
7.0142135623731008
20
24.046446609406704
10
4.2071067811865497
20
26.853553390593305
42
0.19891236737963489
10
3.8535533905932811
20
27
10
2.2999999999999998
20
27
42
-0.41421356237308415
10
1.8000000000000003
20
27.5
10
1.7999999999999994
20
32.5
42
-0.41421356237311974
10
2.2999999999999998
20
33
10
3.85355339059325
20
33
42
0.19891236737961362
10
4.2071067811865204
20
33.146446609406709
10
7.014213562373099
20
35.953553390593299
42
-0.19891236737963747
10
7.3677669529663792
20
36.100000000000001
10
12.632233047033598
20
36.100000000000001
42
-0.19891236737962786
10
12.985786437626899
20
35.953553390593299
10
18.053553390593301
20
30.885786437626905
42
-0.19891236737966192
0
LWPOLYLINE
5
116
100
AcDbEntity
8
0
100
AcDbPolyline
90
22
70
1
43
0.0
10
61.946446609406706
20
30.885786437626905
10
67.014213562373101
20
35.953553390593299
42
-0.19891236737968684
10
67.367766952966406
20
36.100000000000001
10
72.632233047033594
20
36.100000000000009
42
-0.19891236737959325
10
72.985786437626899
20
35.953553390593299
10
75.792893218813404
20
33.146446609406709
42
0.19891236737957915
10
76.146446609406695
20
33
10
77.700000000000003
20
33.000000000000007
42
-0.41421356237308982
10
78.200000000000003
20
32.5
10
78.200000000000003
20
27.5
42
-0.4142135623730846
10
77.700000000000003
20
27
10
76.146446609406695
20
27
42
0.19891236737967732
10
75.792893218813504
20
26.853553390593305
10
72.985786437626899
20
24.046446609406704
42
-0.19891236737963597
10
72.632233047033594
20
23.900000000000002
10
67.367766952966406
20
23.899999999999999
42
-0.19891236737965362
10
67.014213562373101
20
24.046446609406704
10
64.207106781186596
20
26.853553390593305
42
0.19891236737958543
10
63.853553390593305
20
27
10
62.300000000000004
20
27.000000000000007
42
-0.41421356237310802
10
61.799999999999997
20
27.5
10
61.799999999999997
20
30.532233047033699
42
-0.19891236737969079
0
CIRCLE
5
117
100
AcDbEntity
8
0
100
AcDbCircle
10
70
20
39.999999999999993
30
0
40
2.099999999999993
210
0
220
-0
230
1
0
CIRCLE
5
118
100
AcDbEntity
8
0
100
AcDbCircle
10
69.999999999999986
20
19.999999999999996
30
0
40
2.0999999999999979
210
0
220
-0
230
1
0
CIRCLE
5
119
100
AcDbEntity
8
0
100
AcDbCircle
10
10.000000000000002
20
20.000000000000004
30
0
40
2.1000000000000032
210
0
220
-0
230
1
0
CIRCLE
5
120
100
AcDbEntity
8
0
100
AcDbCircle
10
10.000000000000014
20
40
30
0
40
2.1000000000000005
210
0
220
-0
230
1
0
LWPOLYLINE
5
121
100
AcDbEntity
8
0
100
AcDbPolyline
90
24
70
1
43
0.0
10
37
20
46.146446609406702
10
37
20
47.700000000000003
42
-0.41421356237309503
10
37.5
20
48.200000000000003
10
42.5
20
48.200000000000003
42
-0.41421356237309503
10
43
20
47.700000000000003
10
43
20
46.146446609406802
42
0.19891236737966475
10
43.146446609406709
20
45.792893218813504
10
45.953553390593306
20
42.985786437626899
42
-0.19891236737967405
10
46.100000000000001
20
42.632233047033601
10
46.100000000000001
20
37.367766952966399
42
-0.19891236737962406
10
45.953553390593306
20
37.014213562373101
10
43.146446609406709
20
34.207106781186603
42
0.19891236737957288
10
43
20
33.853553390593305
10
42.999999999999986
20
32.299999999999997
42
-0.41421356237309764
10
42.5
20
31.800000000000001
10
37.5
20
31.800000000000001
42
-0.41421356237306384
10
37
20
32.299999999999997
10
37
20
33.853553390593298
42
0.198912367379697
10
36.853553390593298
20
34.207106781186511
10
34.046446609406701
20
37.014213562373101
42
-0.19891236737965362
10
33.899999999999999
20
37.367766952966399
10
33.899999999999999
20
42.632233047033601
42
-0.19891236737966159
10
34.046446609406701
20
42.985786437626899
10
36.853553390593298
20
45.792893218813397
42
0.19891236737958706
0
CIRCLE
5
122
100
AcDbEntity
8
0
100
AcDbCircle
10
30.000000000000004
20
39.999999999999993
30
0
40
2.1000000000000032
210
0
220
-0
230
1
0
CIRCLE
5
123
100
AcDbEntity
8
0
100
AcDbCircle
10
50.000000000000007
20
39.999999999999986
30
0
40
2.100000000000009
210
0
220
-0
230
1
0
ENDSEC
0
SECTION
2
OBJECTS
0
DICTIONARY
5
C
100
AcDbDictionary
3
ACAD_GROUP
350
D
3
ACAD_MLINESTYLE
350
17
0
DICTIONARY
5
D
100
AcDbDictionary
0
DICTIONARY
5
1A
330
C
100
AcDbDictionary
0
DICTIONARY
5
17
100
AcDbDictionary
0
ENDSEC
0
EOF
