0
SECTION
2
HEADER
9
$INSUNITS
70
4
9
$ACADVER
1
AC1014
9
$HANDSEED
5
FFFF
0
ENDSEC
0
SECTION
2
TABLES
0
TABLE
2
VPORT
5
8
100
AcDbSymbolTable
0
ENDTAB
0
TABLE
2
LTYPE
5
5
100
AcDbSymbolTable
0
LTYPE
5
14
100
AcDbSymbolTableRecord
100
AcDbLinetypeTableRecord
2
BYBLOCK
70
0
0
LTYPE
5
15
100
AcDbSymbolTableRecord
100
AcDbLinetypeTableRecord
2
BYLAYER
70
0
0
LTYPE
5
16
100
AcDbSymbolTableRecord
100
AcDbLinetypeTableRecord
2
DASHED
70
0
3
Dashed __ __ __ __ __ __ __ __ __ __ __ __ __ _
72
65
73
2
40
0.75
49
0.5
74
0
49
-0.25
74
0
0
ENDTAB
0
TABLE
2
LAYER
5
2
100
AcDbSymbolTable
70
2
0
LAYER
5
50
100
AcDbSymbolTableRecord
100
AcDbLayerTableRecord
2
0
70
0
62
7
6
CONTINUOUS
0
ENDTAB
0
TABLE
2
STYLE
5
3
100
AcDbSymbolTable
70
1
0
STYLE
5
11
100
AcDbSymbolTableRecord
100
AcDbTextStyleTableRecord
2
STANDARD
70
0
0
ENDTAB
0
TABLE
2
VIEW
5
6
100
AcDbSymbolTable
70
0
0
ENDTAB
0
TABLE
2
UCS
5
7
100
AcDbSymbolTable
70
0
0
ENDTAB
0
TABLE
2
APPID
5
9
100
AcDbSymbolTable
70
2
0
APPID
5
12
100
AcDbSymbolTableRecord
100
AcDbRegAppTableRecord
2
ACAD
70
0
0
ENDTAB
0
TABLE
2
DIMSTYLE
5
A
100
AcDbSymbolTable
70
1
0
ENDTAB
0
TABLE
2
BLOCK_RECORD
5
1
100
AcDbSymbolTable
70
1
0
BLOCK_RECORD
5
1F
100
AcDbSymbolTableRecord
100
AcDbBlockTableRecord
2
*MODEL_SPACE
0
BLOCK_RECORD
5
1B
100
AcDbSymbolTableRecord
100
AcDbBlockTableRecord
2
*PAPER_SPACE
0
ENDTAB
0
ENDSEC
0
SECTION
2
BLOCKS
0
BLOCK
5
20
100
AcDbEntity
100
AcDbBlockBegin
2
*MODEL_SPACE
0
ENDBLK
5
21
100
AcDbEntity
100
AcDbBlockEnd
0
BLOCK
5
1C
100
AcDbEntity
100
AcDbBlockBegin
2
*PAPER_SPACE
0
ENDBLK
5
1D
100
AcDbEntity
100
AcDbBlockEnd
0
ENDSEC
0
SECTION
2
ENTITIES
0
LWPOLYLINE
5
100
100
AcDbEntity
8
0
100
AcDbPolyline
90
88
70
1
43
0.0
10
-6.76776695296639
20
-5.5
10
-7.699999999999996
20
-5.5
42
-0.41421356237312101
10
-8.200000000000003
20
-5.0
10
-8.200000000000003
20
-3.125
10
-8.545000000000002
20
-3.125
10
-9.85355339059329
20
-4.433553390593303
42
0.19891236737959525
10
-10.0
20
-4.787106781186601
10
-10.0
20
-9.5
42
0.4142135623730846
10
-9.499999999999993
20
-10.0
10
-4.787106781186594
20
-10.0
42
0.19891236737967263
10
-4.433553390593303
20
-9.853553390593305
10
-3.125
20
-8.545000000000009
10
-3.125
20
-8.200000000000003
10
-5.0
20
-8.200000000000003
42
-0.41421356237311585
10
-5.5
20
-7.700000000000003
10
-5.5
20
-6.767766952966397
42
-0.1989123673796169
10
-5.353553390593305
20
-6.414213562373099
10
-2.985786437626899
20
-4.046446609406701
42
-0.19891236737967266
10
-2.632233047033594
20
-3.8999999999999986
10
2.632233047033594
20
-3.8999999999999986
42
-0.19891236737966145
10
2.985786437626899
20
-4.046446609406701
10
5.353553390593305
20
-6.414213562373099
42
-0.19891236737966284
10
5.5
20
-6.767766952966397
10
5.5
20
-7.700000000000003
42
-0.41421356237308982
10
5.0
20
-8.200000000000003
10
3.125
20
-8.200000000000003
10
3.125
20
-8.545000000000009
10
4.433553390593303
20
-9.853553390593305
42
0.19891236737965823
10
4.787106781186594
20
-10.0
10
9.5
20
-10.0
42
0.41421356237306384
10
10.0
20
-9.5
10
10.0
20
-4.787106781186601
42
0.19891236737959928
10
9.853553390593305
20
-4.433553390593303
10
8.545000000000002
20
-3.125
10
8.200000000000003
20
-3.125
10
8.200000000000003
20
-5.0
42
-0.4142135623730846
10
7.700000000000003
20
-5.5
10
6.767766952966397
20
-5.5
42
-0.19891236737967266
10
6.4142135623731065
20
-5.353553390593298
10
4.046446609406701
20
-2.985786437626899
42
-0.19891236737962015
10
3.9000000000000057
20
-2.6322330470336013
10
3.9000000000000057
20
2.632233047033594
42
-0.19891236737965107
10
4.046446609406701
20
2.985786437626899
10
6.4142135623731065
20
5.353553390593298
42
-0.19891236737962373
10
6.767766952966397
20
5.5
10
7.699999999999989
20
5.5
42
-0.41421356237307683
10
8.200000000000003
20
5.0
10
8.200000000000003
20
3.125
10
8.545000000000002
20
3.125
10
9.853553390593305
20
4.433553390593303
42
0.19891236737964685
10
10.0
20
4.787106781186601
10
10.0
20
9.499999999999996
42
0.41421356237307422
10
9.5
20
10.0
10
4.787106781186594
20
10.0
42
0.19891236737963461
10
4.433553390593303
20
9.853553390593301
10
3.125
20
8.544999999999998
10
3.125
20
8.2
10
5.0
20
8.199999999999996
42
-0.41421356237313928
10
5.5
20
7.700000000000003
10
5.5
20
6.767766952966397
42
-0.1989123673796169
10
5.353553390593305
20
6.414213562373099
10
2.985786437626899
20
4.046446609406701
42
-0.19891236737971535
10
2.632233047033594
20
3.8999999999999986
10
-2.632233047033594
20
3.8999999999999986
42
-0.19891236737968523
10
-2.985786437626899
20
4.046446609406701
10
-5.353553390593305
20
6.414213562373099
42
-0.19891236737966447
10
-5.5
20
6.767766952966397
10
-5.5
20
7.700000000000003
42
-0.41421356237308204
10
-5.0
20
8.2
10
-3.125
20
8.2
10
-3.125
20
8.544999999999998
10
-4.433553390593303
20
9.853553390593301
42
0.19891236737967566
10
-4.787106781186594
20
10.0
10
-9.499999999999993
20
10.0
42
0.41421356237309503
10
-10.0
20
9.499999999999996
10
-10.0
20
4.787106781186601
42
0.1989123673796539
10
-9.85355339059329
20
4.433553390593303
10
-8.545000000000002
20
3.125
10
-8.200000000000003
20
3.125
10
-8.200000000000003
20
5.0
42
-0.41421356237313145
10
-7.699999999999996
20
5.5
10
-6.76776695296639
20
5.5
42
-0.19891236737963308
10
-6.414213562373092
20
5.353553390593298
10
-4.046446609406701
20
2.985786437626899
42
-0.19891236737968615
10
-3.9000000000000057
20
2.632233047033594
10
-3.9000000000000057
20
-2.6322330470336013
42
-0.19891236737958021
10
-4.046446609406701
20
-2.985786437626899
10
-6.414213562373092
20
-5.353553390593298
42
-0.19891236737973891
0
CIRCLE
5
101
100
AcDbEntity
8
0
100
AcDbCircle
10
0.0
20
-7.105427357601002e-15
30
1.1102230246251565e-15
40
2.0999999999999894
210
2.4275571330135972e-17
220
-9.4377150946583119e-16
230
1
0
LWPOLYLINE
5
102
100
AcDbEntity
8
0
100
AcDbPolyline
90
88
70
1
43
0.0
10
-6.76776695296639
20
-5.5
10
-7.699999999999996
20
-5.5
42
-0.41421356237313145
10
-8.200000000000003
20
-5.0
10
-8.200000000000003
20
-3.125
10
-8.545000000000002
20
-3.125
10
-9.85355339059329
20
-4.433553390593303
42
0.19891236737959062
10
-10.0
20
-4.787106781186594
10
-10.0
20
-9.5
42
0.4142135623730846
10
-9.499999999999993
20
-10.0
10
-4.787106781186594
20
-10.0
42
0.19891236737967263
10
-4.433553390593303
20
-9.853553390593305
10
-3.125
20
-8.545000000000009
10
-3.125
20
-8.200000000000003
10
-5.0
20
-8.199999999999996
42
-0.41421356237313145
10
-5.5
20
-7.700000000000003
10
-5.5
20
-6.767766952966397
42
-0.19891236737962348
10
-5.353553390593305
20
-6.414213562373099
10
-2.985786437626899
20
-4.046446609406701
42
-0.19891236737968709
10
-2.632233047033594
20
-3.8999999999999986
10
2.632233047033594
20
-3.8999999999999986
42
-0.19891236737962673
10
2.985786437626899
20
-4.046446609406701
10
5.353553390593305
20
-6.414213562373099
42
-0.19891236737966608
10
5.5
20
-6.767766952966397
10
5.5
20
-7.700000000000003
42
-0.41421356237307944
10
5.0
20
-8.200000000000003
10
3.125
20
-8.200000000000003
10
3.125
20
-8.545000000000009
10
4.433553390593303
20
-9.853553390593305
42
0.19891236737965362
10
4.78710678118658
20
-10.0
10
9.5
20
-10.0
42
0.41421356237306384
10
10.0
20
-9.5
10
10.0
20
-4.787106781186601
42
0.19891236737959928
10
9.853553390593305
20
-4.433553390593303
10
8.545000000000002
20
-3.125
10
8.200000000000003
20
-3.125
10
8.200000000000003
20
-5.0
42
-0.41421356237309503
10
7.700000000000003
20
-5.5
10
6.767766952966397
20
-5.5
42
-0.1989123673796647
10
6.4142135623731065
20
-5.353553390593298
10
4.046446609406701
20
-2.985786437626899
42
-0.19891236737960122
10
3.9000000000000057
20
-2.6322330470336013
10
3.9000000000000057
20
2.6322330470336013
42
-0.19891236737966284
10
4.046446609406701
20
2.985786437626899
10
6.4142135623731065
20
5.353553390593298
42
-0.19891236737961229
10
6.7677669529664115
20
5.5
10
7.700000000000003
20
5.5
42
-0.4142135623730846
10
8.200000000000003
20
5.0
10
8.200000000000003
20
3.125
10
8.545000000000002
20
3.125
10
9.853553390593305
20
4.433553390593303
42
0.19891236737964685
10
10.0
20
4.787106781186601
10
10.0
20
9.499999999999996
42
0.41421356237307422
10
9.5
20
10.0
10
4.787106781186594
20
10.0
42
0.19891236737963461
10
4.433553390593303
20
9.853553390593301
10
3.125
20
8.544999999999998
10
3.125
20
8.2
10
5.0
20
8.199999999999989
42
-0.41421356237314705
10
5.5
20
7.700000000000003
10
5.5
20
6.767766952966397
42
-0.1989123673796169
10
5.353553390593305
20
6.414213562373099
10
2.985786437626899
20
4.046446609406701
42
-0.1989123673796992
10
2.632233047033594
20
3.8999999999999986
10
-2.632233047033594
20
3.8999999999999986
42
-0.19891236737968684
10
-2.985786437626899
20
4.046446609406701
10
-5.353553390593305
20
6.414213562373099
42
-0.19891236737965984
10
-5.5
20
6.76776695296639
10
-5.5
20
7.700000000000003
42
-0.41421356237308721
10
-5.0
20
8.2
10
-3.125
20
8.2
10
-3.125
20
8.544999999999998
10
-4.433553390593303
20
9.853553390593301
42
0.19891236737967566
10
-4.787106781186594
20
10.0
10
-9.499999999999993
20
10.0
42
0.41421356237309503
10
-10.0
20
9.499999999999996
10
-10.0
20
4.787106781186601
42
0.1989123673796539
10
-9.85355339059329
20
4.433553390593303
10
-8.545000000000002
20
3.125
10
-8.200000000000003
20
3.125
10
-8.200000000000003
20
5.0
42
-0.41421356237312101
10
-7.699999999999996
20
5.5
10
-6.76776695296639
20
5.499999999999993
42
-0.19891236737963919
10
-6.414213562373092
20
5.353553390593298
10
-4.046446609406701
20
2.985786437626899
42
-0.19891236737969678
10
-3.9000000000000057
20
2.6322330470336013
10
-3.90000000000002
20
-2.6322330470336013
42
-0.19891236737958481
10
-4.046446609406701
20
-2.985786437626899
10
-6.414213562373092
20
-5.353553390593298
42
-0.19891236737971213
0
CIRCLE
5
103
100
AcDbEntity
8
0
100
AcDbCircle
10
0.0
20
-7.105427357601002e-15
30
0
40
2.0999999999999894
210
0
220
-0
230
1
0
ENDSEC
0
SECTION
2
OBJECTS
0
DICTIONARY
5
C
100
AcDbDictionary
3
ACAD_GROUP
350
D
3
ACAD_MLINESTYLE
350
17
0
DICTIONARY
5
D
100
AcDbDictionary
0
DICTIONARY
5
1A
330
C
100
AcDbDictionary
0
DICTIONARY
5
17
100
AcDbDictionary
0
ENDSEC
0
EOF
