0
SECTION
2
HEADER
9
$INSUNITS
70
4
9
$ACADVER
1
AC1014
9
$HANDSEED
5
FFFF
0
ENDSEC
0
SECTION
2
TABLES
0
TABLE
2
VPORT
5
8
100
AcDbSymbolTable
0
ENDTAB
0
TABLE
2
LTYPE
5
5
100
AcDbSymbolTable
0
LTYPE
5
14
100
AcDbSymbolTableRecord
100
AcDbLinetypeTableRecord
2
BYBLOCK
70
0
0
LTYPE
5
15
100
AcDbSymbolTableRecord
100
AcDbLinetypeTableRecord
2
BYLAYER
70
0
0
LTYPE
5
16
100
AcDbSymbolTableRecord
100
AcDbLinetypeTableRecord
2
DASHED
70
0
3
Dashed __ __ __ __ __ __ __ __ __ __ __ __ __ _
72
65
73
2
40
0.75
49
0.5
74
0
49
-0.25
74
0
0
ENDTAB
0
TABLE
2
LAYER
5
2
100
AcDbSymbolTable
70
2
0
LAYER
5
50
100
AcDbSymbolTableRecord
100
AcDbLayerTableRecord
2
0
70
0
62
7
6
CONTINUOUS
0
ENDTAB
0
TABLE
2
STYLE
5
3
100
AcDbSymbolTable
70
1
0
STYLE
5
11
100
AcDbSymbolTableRecord
100
AcDbTextStyleTableRecord
2
STANDARD
70
0
0
ENDTAB
0
TABLE
2
VIEW
5
6
100
AcDbSymbolTable
70
0
0
ENDTAB
0
TABLE
2
UCS
5
7
100
AcDbSymbolTable
70
0
0
ENDTAB
0
TABLE
2
APPID
5
9
100
AcDbSymbolTable
70
2
0
APPID
5
12
100
AcDbSymbolTableRecord
100
AcDbRegAppTableRecord
2
ACAD
70
0
0
ENDTAB
0
TABLE
2
DIMSTYLE
5
A
100
AcDbSymbolTable
70
1
0
ENDTAB
0
TABLE
2
BLOCK_RECORD
5
1
100
AcDbSymbolTable
70
1
0
BLOCK_RECORD
5
1F
100
AcDbSymbolTableRecord
100
AcDbBlockTableRecord
2
*MODEL_SPACE
0
BLOCK_RECORD
5
1B
100
AcDbSymbolTableRecord
100
AcDbBlockTableRecord
2
*PAPER_SPACE
0
ENDTAB
0
ENDSEC
0
SECTION
2
BLOCKS
0
BLOCK
5
20
100
AcDbEntity
100
AcDbBlockBegin
2
*MODEL_SPACE
0
ENDBLK
5
21
100
AcDbEntity
100
AcDbBlockEnd
0
BLOCK
5
1C
100
AcDbEntity
100
AcDbBlockBegin
2
*PAPER_SPACE
0
ENDBLK
5
1D
100
AcDbEntity
100
AcDbBlockEnd
0
ENDSEC
0
SECTION
2
ENTITIES
0
LWPOLYLINE
5
100
100
AcDbEntity
8
0
100
AcDbPolyline
90
128
70
1
43
0.0
10
5.212893218813399
20
10.0
10
-5.212893218813498
20
10.0
42
0.19891236737963991
10
-5.566446609406697
20
9.853553390593301
10
-6.875
20
8.544999999999998
10
-6.875
20
8.2
10
-5.0
20
8.2
42
-0.41421356237310802
10
-4.4999999999999964
20
7.700000000000003
10
-4.4999999999999964
20
6.767766952966397
42
-0.19891236737966053
10
-4.646446609406695
20
6.414213562373099
10
-7.014213562373101
20
4.046446609406701
42
-0.19891236737969956
10
-7.367766952966399
20
3.8999999999999986
10
-12.632233047033601
20
3.8999999999999986
42
-0.19891236737965845
10
-12.9857864376269
20
4.046446609406701
10
-15.3535533905933
20
6.414213562373099
42
-0.19891236737964876
10
-15.499999999999998
20
6.76776695296639
10
-15.5
20
7.699999999999996
42
-0.41421356237309115
10
-15.0
20
8.2
10
-13.125
20
8.2
10
-13.125
20
8.544999999999998
10
-14.4335533905933
20
9.853553390593301
42
0.19891236737966217
10
-14.787106781186598
20
10.0
10
-19.5
20
10.0
42
0.41421356237309243
10
-20.0
20
9.499999999999996
10
-20.0
20
4.787106781186601
42
0.19891236737967494
10
-19.853553390593298
20
4.433553390593303
10
-18.545
20
3.125
10
-18.2
20
3.125
10
-18.2
20
5.0
42
-0.41421356237310153
10
-17.699999999999996
20
5.5
10
-16.7677669529664
20
5.5
42
-0.19891236737965118
10
-16.4142135623731
20
5.353553390593298
10
-14.0464466094067
20
2.985786437626899
42
-0.19891236737967105
10
-13.899999999999999
20
2.6322330470336013
10
-13.899999999999999
20
-2.6322330470336013
42
-0.19891236737962187
10
-14.0464466094067
20
-2.985786437626899
10
-16.4142135623731
20
-5.353553390593298
42
-0.19891236737970566
10
-16.7677669529664
20
-5.5
10
-17.699999999999996
20
-5.5
42
-0.41421356237309764
10
-18.2
20
-5.0
10
-18.2
20
-3.125
10
-18.545
20
-3.125
10
-19.853553390593298
20
-4.433553390593303
42
0.19891236737966234
10
-20.0
20
-4.787106781186594
10
-20.0
20
-9.5
42
0.41421356237308332
10
-19.5
20
-10.0
10
-14.787106781186598
20
-10.0
42
0.19891236737966217
10
-14.4335533905933
20
-9.853553390593305
10
-13.125
20
-8.545000000000009
10
-13.125
20
-8.200000000000003
10
-15.0
20
-8.200000000000003
42
-0.41421356237309631
10
-15.499999999999998
20
-7.700000000000003
10
-15.5
20
-6.767766952966397
42
-0.19891236737963919
10
-15.3535533905933
20
-6.414213562373099
10
-12.9857864376269
20
-4.046446609406701
42
-0.19891236737964427
10
-12.632233047033601
20
-3.8999999999999986
10
-7.367766952966399
20
-3.8999999999999986
42
-0.19891236737964668
10
-7.014213562373101
20
-4.046446609406701
10
-4.646446609406695
20
-6.414213562373099
42
-0.19891236737966284
10
-4.4999999999999964
20
-6.767766952966397
10
-4.4999999999999964
20
-7.699999999999996
42
-0.41421356237309764
10
-5.0
20
-8.200000000000003
10
-6.875
20
-8.200000000000003
10
-6.875
20
-8.545000000000009
10
-5.566446609406697
20
-9.853553390593305
42
0.19891236737966286
10
-5.212893218813498
20
-10.0
10
5.212893218813399
20
-10.0
42
0.19891236737965989
10
5.566446609406697
20
-9.853553390593305
10
6.875
20
-8.545000000000009
10
6.875
20
-8.200000000000003
10
5.0
20
-8.200000000000003
42
-0.41421356237309503
10
4.5
20
-7.700000000000003
10
4.5
20
-6.767766952966397
42
-0.19891236737962834
10
4.646446609406702
20
-6.414213562373099
10
7.014213562373101
20
-4.046446609406701
42
-0.19891236737963791
10
7.367766952966399
20
-3.8999999999999986
10
12.632233047033601
20
-3.8999999999999986
42
-0.19891236737963791
10
12.9857864376269
20
-4.046446609406701
10
15.353553390593298
20
-6.414213562373099
42
-0.19891236737966284
10
15.5
20
-6.767766952966397
10
15.5
20
-7.700000000000003
42
-0.41421356237309503
10
15.0
20
-8.200000000000003
10
13.125
20
-8.200000000000003
10
13.125
20
-8.545000000000009
10
14.433553390593303
20
-9.853553390593305
42
0.19891236737964554
10
14.787106781186509
20
-10.0
10
19.5
20
-10.0
42
0.41421356237306384
10
20.0
20
-9.5
10
20.0
20
-4.787106781186601
42
0.19891236737966284
10
19.853553390593305
20
-4.433553390593303
10
18.54500000000001
20
-3.125
10
18.200000000000003
20
-3.125
10
18.200000000000003
20
-5.0
42
-0.41421356237309503
10
17.700000000000003
20
-5.5
10
16.767766952966397
20
-5.5
42
-0.19891236737966284
10
16.4142135623731
20
-5.353553390593298
10
14.0464466094067
20
-2.9857864376269134
42
-0.19891236737963791
10
13.899999999999999
20
-2.6322330470336013
10
13.899999999999999
20
2.6322330470336013
42
-0.19891236737963006
10
14.0464466094067
20
2.985786437626899
10
16.414213562373106
20
5.353553390593291
42
-0.19891236737962834
10
16.767766952966397
20
5.5
10
17.699999999999996
20
5.5
42
-0.41421356237307683
10
18.200000000000003
20
5.0
10
18.200000000000003
20
3.125
10
18.54500000000001
20
3.125
10
19.853553390593305
20
4.433553390593303
42
0.19891236737966775
10
20.0
20
4.787106781186601
10
20.0
20
9.499999999999996
42
0.41421356237307422
10
19.5
20
10.0
10
14.787106781186509
20
10.0
42
0.19891236737960422
10
14.433553390593303
20
9.853553390593301
10
13.125
20
8.544999999999998
10
13.125
20
8.2
10
15.0
20
8.2
42
-0.41421356237311585
10
15.5
20
7.700000000000003
10
15.5
20
6.767766952966397
42
-0.19891236737966214
10
15.353553390593298
20
6.414213562373099
10
12.9857864376269
20
4.046446609406701
42
-0.1989123673796917
10
12.632233047033601
20
3.8999999999999986
10
7.367766952966399
20
3.8999999999999915
42
-0.19891236737964968
10
7.014213562373101
20
4.046446609406701
10
4.646446609406709
20
6.414213562373099
42
-0.19891236737967105
10
4.5
20
6.767766952966397
10
4.5
20
7.700000000000003
42
-0.41421356237308982
10
5.0
20
8.2
10
6.875
20
8.2
10
6.875
20
8.544999999999998
10
5.566446609406697
20
9.853553390593301
42
0.19891236737965823
0
LWPOLYLINE
5
101
100
AcDbEntity
8
0
100
AcDbPolyline
90
24
70
1
43
0.0
10
-3.0
20
6.146446609406702
10
-3.0
20
7.700000000000003
42
-0.41421356237309503
10
-2.5
20
8.2
10
2.5
20
8.2
42
-0.41421356237309764
10
3.0
20
7.700000000000003
10
3.0
20
6.1464466094068015
42
0.19891236737965501
10
3.146446609406709
20
5.792893218813489
10
5.953553390593299
20
2.985786437626899
42
-0.19891236737967105
10
6.100000000000001
20
2.6322330470336013
10
6.100000000000001
20
-2.6322330470336013
42
-0.19891236737961068
10
5.953553390593299
20
-2.985786437626899
10
3.146446609406709
20
-5.792893218813397
42
0.19891236737956935
10
3.0
20
-6.146446609406702
10
3.000000000000007
20
-7.700000000000003
42
-0.41421356237308982
10
2.5
20
-8.200000000000003
10
-2.5
20
-8.200000000000003
42
-0.41421356237308721
10
-3.0
20
-7.700000000000003
10
-3.0
20
-6.146446609406702
42
0.1989123673796675
10
-3.146446609406695
20
-5.792893218813504
10
-5.953553390593299
20
-2.985786437626899
42
-0.19891236737965037
10
-6.099999999999998
20
-2.6322330470336013
10
-6.099999999999994
20
2.6322330470336013
42
-0.19891236737964091
10
-5.953553390593296
20
2.985786437626899
10
-3.146446609406695
20
5.792893218813489
42
0.19891236737965803
0
CIRCLE
5
102
100
AcDbEntity
8
0
100
AcDbCircle
10
-10.0
20
7.105427357601002e-15
30
0
40
2.0999999999999996
210
2.4275571330142333e-17
220
-9.4377150946582646e-16
230
1
0
CIRCLE
5
103
100
AcDbEntity
8
0
100
AcDbCircle
10
10.0
20
0.0
30
0
40
2.1000000000000019
210
2.4275571330139072e-17
220
-9.4377150946582903e-16
230
1
0
LWPOLYLINE
5
104
100
AcDbEntity
8
0
100
AcDbPolyline
90
128
70
1
43
0.0
10
5.212893218813399
20
10.0
10
-5.212893218813498
20
10.0
42
0.19891236737963991
10
-5.566446609406697
20
9.853553390593301
10
-6.875
20
8.544999999999998
10
-6.875
20
8.2
10
-5.0
20
8.200000000000003
42
-0.41421356237311063
10
-4.4999999999999964
20
7.700000000000003
10
-4.4999999999999964
20
6.767766952966397
42
-0.19891236737966447
10
-4.646446609406695
20
6.414213562373099
10
-7.014213562373101
20
4.046446609406701
42
-0.19891236737970508
10
-7.367766952966399
20
3.8999999999999986
10
-12.632233047033601
20
3.8999999999999986
42
-0.19891236737965085
10
-12.9857864376269
20
4.046446609406701
10
-15.3535533905933
20
6.414213562373099
42
-0.19891236737965431
10
-15.499999999999998
20
6.76776695296639
10
-15.499999999999998
20
7.700000000000003
42
-0.41421356237309503
10
-15.0
20
8.2
10
-13.125
20
8.2
10
-13.125
20
8.544999999999998
10
-14.4335533905933
20
9.853553390593301
42
0.19891236737966217
10
-14.787106781186598
20
10.0
10
-19.5
20
10.0
42
0.41421356237309243
10
-20.0
20
9.499999999999996
10
-20.0
20
4.787106781186601
42
0.19891236737967494
10
-19.853553390593298
20
4.433553390593303
10
-18.545
20
3.125
10
-18.2
20
3.125
10
-18.199999999999996
20
5.0
42
-0.41421356237310025
10
-17.699999999999996
20
5.5
10
-16.7677669529664
20
5.5
42
-0.19891236737964957
10
-16.4142135623731
20
5.353553390593298
10
-14.0464466094067
20
2.985786437626899
42
-0.19891236737967888
10
-13.899999999999999
20
2.6322330470336013
10
-13.900000000000002
20
-2.6322330470336013
42
-0.19891236737960907
10
-14.0464466094067
20
-2.985786437626899
10
-16.4142135623731
20
-5.353553390593298
42
-0.19891236737970935
10
-16.7677669529664
20
-5.5
10
-17.699999999999996
20
-5.499999999999986
42
-0.41421356237309892
10
-18.2
20
-5.0
10
-18.2
20
-3.125
10
-18.545
20
-3.125
10
-19.853553390593298
20
-4.433553390593303
42
0.19891236737967158
10
-20.0
20
-4.787106781186608
10
-20.0
20
-9.5
42
0.41421356237308332
10
-19.5
20
-10.0
10
-14.787106781186598
20
-10.0
42
0.19891236737966217
10
-14.4335533905933
20
-9.853553390593305
10
-13.125
20
-8.545000000000009
10
-13.125
20
-8.200000000000003
10
-15.0
20
-8.200000000000003
42
-0.41421356237309503
10
-15.499999999999998
20
-7.700000000000003
10
-15.499999999999998
20
-6.767766952966397
42
-0.1989123673796416
10
-15.353553390593298
20
-6.414213562373099
10
-12.9857864376269
20
-4.046446609406701
42
-0.19891236737964427
10
-12.632233047033601
20
-3.8999999999999986
10
-7.367766952966399
20
-3.8999999999999986
42
-0.19891236737965154
10
-7.014213562373108
20
-4.046446609406701
10
-4.646446609406695
20
-6.414213562373099
42
-0.19891236737966447
10
-4.4999999999999964
20
-6.767766952966397
10
-4.5
20
-7.700000000000003
42
-0.41421356237309503
10
-5.0
20
-8.200000000000003
10
-6.875
20
-8.200000000000003
10
-6.875
20
-8.545000000000009
10
-5.566446609406697
20
-9.853553390593305
42
0.19891236737966286
10
-5.212893218813498
20
-10.0
10
5.212893218813399
20
-10.0
42
0.19891236737965989
10
5.566446609406697
20
-9.853553390593305
10
6.875
20
-8.545000000000009
10
6.875
20
-8.200000000000003
10
5.0
20
-8.200000000000003
42
-0.41421356237309503
10
4.5
20
-7.700000000000003
10
4.499999999999993
20
-6.767766952966397
42
-0.19891236737961748
10
4.646446609406702
20
-6.414213562373099
10
7.014213562373101
20
-4.046446609406701
42
-0.19891236737964577
10
7.367766952966399
20
-3.8999999999999986
10
12.632233047033601
20
-3.9000000000000057
42
-0.19891236737965037
10
12.9857864376269
20
-4.046446609406701
10
15.353553390593298
20
-6.414213562373099
42
-0.19891236737966608
10
15.5
20
-6.767766952966397
10
15.5
20
-7.700000000000003
42
-0.41421356237309503
10
15.0
20
-8.200000000000003
10
13.125
20
-8.200000000000003
10
13.125
20
-8.545000000000009
10
14.433553390593303
20
-9.853553390593305
42
0.19891236737964554
10
14.787106781186509
20
-10.0
10
19.5
20
-10.0
42
0.41421356237306384
10
20.0
20
-9.5
10
20.0
20
-4.787106781186601
42
0.19891236737966284
10
19.853553390593305
20
-4.433553390593303
10
18.54500000000001
20
-3.125
10
18.200000000000003
20
-3.125
10
18.200000000000003
20
-5.0
42
-0.41421356237309503
10
17.700000000000003
20
-5.5
10
16.767766952966397
20
-5.5
42
-0.19891236737966608
10
16.4142135623731
20
-5.353553390593298
10
14.046446609406694
20
-2.985786437626899
42
-0.19891236737965037
10
13.899999999999999
20
-2.6322330470336013
10
13.899999999999999
20
2.6322330470336013
42
-0.19891236737964185
10
14.0464466094067
20
2.985786437626899
10
16.4142135623731
20
5.353553390593291
42
-0.19891236737962048
10
16.767766952966397
20
5.5
10
17.700000000000003
20
5.5
42
-0.4142135623730846
10
18.200000000000003
20
5.0
10
18.200000000000003
20
3.125
10
18.54500000000001
20
3.125
10
19.853553390593305
20
4.433553390593303
42
0.19891236737966775
10
20.0
20
4.787106781186601
10
20.0
20
9.499999999999996
42
0.41421356237307422
10
19.5
20
10.0
10
14.787106781186509
20
10.0
42
0.19891236737960422
10
14.433553390593303
20
9.853553390593301
10
13.125
20
8.544999999999998
10
13.125
20
8.2
10
15.0
20
8.199999999999996
42
-0.41421356237313406
10
15.5
20
7.700000000000003
10
15.5
20
6.767766952966397
42
-0.19891236737966284
10
15.353553390593298
20
6.414213562373099
10
12.9857864376269
20
4.046446609406701
42
-0.19891236737970577
10
12.632233047033601
20
3.8999999999999986
10
7.367766952966399
20
3.8999999999999986
42
-0.19891236737965201
10
7.014213562373101
20
4.046446609406701
10
4.646446609406702
20
6.414213562373099
42
-0.19891236737968063
10
4.5
20
6.767766952966397
10
4.5
20
7.700000000000003
42
-0.41421356237309503
10
5.0
20
8.2
10
6.875
20
8.2
10
6.875
20
8.544999999999998
10
5.566446609406697
20
9.853553390593301
42
0.19891236737965823
0
LWPOLYLINE
5
105
100
AcDbEntity
8
0
100
AcDbPolyline
90
24
70
1
43
0.0
10
-3.0
20
6.146446609406702
10
-3.0
20
7.700000000000003
42
-0.41421356237309503
10
-2.5
20
8.2
10
2.5
20
8.2
42
-0.41421356237309764
10
3.0
20
7.700000000000003
10
3.0
20
6.1464466094068015
42
0.19891236737965501
10
3.146446609406709
20
5.792893218813489
10
5.953553390593299
20
2.985786437626899
42
-0.19891236737968063
10
6.100000000000001
20
2.6322330470336013
10
6.099999999999994
20
-2.632233047033594
42
-0.19891236737960422
10
5.953553390593299
20
-2.985786437626899
10
3.146446609406709
20
-5.792893218813397
42
0.19891236737956935
10
3.0
20
-6.146446609406702
10
3.000000000000007
20
-7.700000000000003
42
-0.41421356237308982
10
2.5
20
-8.200000000000003
10
-2.5
20
-8.200000000000003
42
-0.4142135623730846
10
-3.0
20
-7.700000000000003
10
-3.0
20
-6.146446609406702
42
0.1989123673796675
10
-3.146446609406695
20
-5.792893218813504
10
-5.953553390593296
20
-2.985786437626899
42
-0.19891236737966159
10
-6.099999999999998
20
-2.6322330470336013
10
-6.099999999999998
20
2.6322330470336013
42
-0.19891236737963688
10
-5.953553390593296
20
2.985786437626899
10
-3.146446609406695
20
5.792893218813489
42
0.19891236737965803
0
CIRCLE
5
106
100
AcDbEntity
8
0
100
AcDbCircle
10
-10.0
20
7.105427357601002e-15
30
0
40
2.0999999999999996
210
0
220
-0
230
1
0
CIRCLE
5
107
100
AcDbEntity
8
0
100
AcDbCircle
10
10.0
20
0.0
30
0
40
2.1000000000000023
210
0
220
-0
230
1
0
ENDSEC
0
SECTION
2
OBJECTS
0
DICTIONARY
5
C
100
AcDbDictionary
3
ACAD_GROUP
350
D
3
ACAD_MLINESTYLE
350
17
0
DICTIONARY
5
D
100
AcDbDictionary
0
DICTIONARY
5
1A
330
C
100
AcDbDictionary
0
DICTIONARY
5
17
100
AcDbDictionary
0
ENDSEC
0
EOF
