0
SECTION
2
HEADER
9
$INSUNITS
70
4
9
$ACADVER
1
AC1014
9
$HANDSEED
5
FFFF
0
ENDSEC
0
SECTION
2
TABLES
0
TABLE
2
VPORT
5
8
100
AcDbSymbolTable
0
ENDTAB
0
TABLE
2
LTYPE
5
5
100
AcDbSymbolTable
0
LTYPE
5
14
100
AcDbSymbolTableRecord
100
AcDbLinetypeTableRecord
2
BYBLOCK
70
0
0
LTYPE
5
15
100
AcDbSymbolTableRecord
100
AcDbLinetypeTableRecord
2
BYLAYER
70
0
0
LTYPE
5
16
100
AcDbSymbolTableRecord
100
AcDbLinetypeTableRecord
2
DASHED
70
0
3
Dashed __ __ __ __ __ __ __ __ __ __ __ __ __ _
72
65
73
2
40
0.75
49
0.5
74
0
49
-0.25
74
0
0
ENDTAB
0
TABLE
2
LAYER
5
2
100
AcDbSymbolTable
70
2
0
LAYER
5
50
100
AcDbSymbolTableRecord
100
AcDbLayerTableRecord
2
0
70
0
62
7
6
CONTINUOUS
0
ENDTAB
0
TABLE
2
STYLE
5
3
100
AcDbSymbolTable
70
1
0
STYLE
5
11
100
AcDbSymbolTableRecord
100
AcDbTextStyleTableRecord
2
STANDARD
70
0
0
ENDTAB
0
TABLE
2
VIEW
5
6
100
AcDbSymbolTable
70
0
0
ENDTAB
0
TABLE
2
UCS
5
7
100
AcDbSymbolTable
70
0
0
ENDTAB
0
TABLE
2
APPID
5
9
100
AcDbSymbolTable
70
2
0
APPID
5
12
100
AcDbSymbolTableRecord
100
AcDbRegAppTableRecord
2
ACAD
70
0
0
ENDTAB
0
TABLE
2
DIMSTYLE
5
A
100
AcDbSymbolTable
70
1
0
ENDTAB
0
TABLE
2
BLOCK_RECORD
5
1
100
AcDbSymbolTable
70
1
0
BLOCK_RECORD
5
1F
100
AcDbSymbolTableRecord
100
AcDbBlockTableRecord
2
*MODEL_SPACE
0
BLOCK_RECORD
5
1B
100
AcDbSymbolTableRecord
100
AcDbBlockTableRecord
2
*PAPER_SPACE
0
ENDTAB
0
ENDSEC
0
SECTION
2
BLOCKS
0
BLOCK
5
20
100
AcDbEntity
100
AcDbBlockBegin
2
*MODEL_SPACE
0
ENDBLK
5
21
100
AcDbEntity
100
AcDbBlockEnd
0
BLOCK
5
1C
100
AcDbEntity
100
AcDbBlockBegin
2
*PAPER_SPACE
0
ENDBLK
5
1D
100
AcDbEntity
100
AcDbBlockEnd
0
ENDSEC
0
SECTION
2
ENTITIES
0
LWPOLYLINE
5
100
100
AcDbEntity
8
0
100
AcDbPolyline
90
128
70
1
43
0.0
10
35.212893218813399
20
-30
10
24.787106781186502
20
-30
42
0.19891236737963991
10
24.433553390593303
20
-30.146446609406699
10
23.125
20
-31.455000000000002
10
23.125
20
-31.800000000000001
10
25
20
-31.800000000000001
42
-0.41421356237310802
10
25.500000000000004
20
-32.299999999999997
10
25.500000000000004
20
-33.232233047033603
42
-0.19891236737966053
10
25.353553390593305
20
-33.585786437626901
10
22.985786437626899
20
-35.953553390593299
42
-0.19891236737969956
10
22.632233047033601
20
-36.100000000000001
10
17.367766952966399
20
-36.100000000000001
42
-0.19891236737965845
10
17.014213562373101
20
-35.953553390593299
10
14.6464466094067
20
-33.585786437626901
42
-0.19891236737964876
10
14.500000000000002
20
-33.23223304703361
10
14.5
20
-32.300000000000004
42
-0.41421356237309115
10
15
20
-31.800000000000001
10
16.875
20
-31.800000000000001
10
16.875
20
-31.455000000000002
10
15.5664466094067
20
-30.146446609406699
42
0.19891236737966217
10
15.212893218813402
20
-30
10
10.5
20
-30
42
0.41421356237309243
10
10
20
-30.500000000000004
10
10
20
-35.212893218813399
42
0.19891236737967494
10
10.1464466094067
20
-35.566446609406697
10
11.455
20
-36.875
10
11.800000000000001
20
-36.875
10
11.800000000000001
20
-35
42
-0.41421356237310153
10
12.300000000000002
20
-34.5
10
13.232233047033599
20
-34.5
42
-0.19891236737965118
10
13.585786437626901
20
-34.646446609406702
10
15.953553390593299
20
-37.014213562373101
42
-0.19891236737967105
10
16.100000000000001
20
-37.367766952966399
10
16.100000000000001
20
-42.632233047033601
42
-0.19891236737962187
10
15.953553390593299
20
-42.985786437626899
10
13.585786437626901
20
-45.353553390593298
42
-0.19891236737970566
10
13.232233047033599
20
-45.5
10
12.300000000000002
20
-45.5
42
-0.41421356237309764
10
11.800000000000001
20
-45
10
11.800000000000001
20
-43.125
10
11.455
20
-43.125
10
10.1464466094067
20
-44.433553390593303
42
0.19891236737966234
10
10
20
-44.787106781186594
10
10
20
-49.5
42
0.41421356237308332
10
10.5
20
-50
10
15.212893218813402
20
-50
42
0.19891236737966217
10
15.5664466094067
20
-49.853553390593305
10
16.875
20
-48.545000000000009
10
16.875
20
-48.200000000000003
10
15
20
-48.200000000000003
42
-0.41421356237309631
10
14.500000000000002
20
-47.700000000000003
10
14.5
20
-46.767766952966397
42
-0.19891236737963919
10
14.6464466094067
20
-46.414213562373099
10
17.014213562373101
20
-44.046446609406701
42
-0.19891236737964427
10
17.367766952966399
20
-43.899999999999999
10
22.632233047033601
20
-43.899999999999999
42
-0.19891236737964668
10
22.985786437626899
20
-44.046446609406701
10
25.353553390593305
20
-46.414213562373099
42
-0.19891236737966284
10
25.500000000000004
20
-46.767766952966397
10
25.500000000000004
20
-47.699999999999996
42
-0.41421356237309764
10
25
20
-48.200000000000003
10
23.125
20
-48.200000000000003
10
23.125
20
-48.545000000000009
10
24.433553390593303
20
-49.853553390593305
42
0.19891236737966286
10
24.787106781186502
20
-50
10
35.212893218813399
20
-50
42
0.19891236737965989
10
35.566446609406697
20
-49.853553390593305
10
36.875
20
-48.545000000000009
10
36.875
20
-48.200000000000003
10
35
20
-48.200000000000003
42
-0.41421356237309503
10
34.5
20
-47.700000000000003
10
34.5
20
-46.767766952966397
42
-0.19891236737962834
10
34.646446609406702
20
-46.414213562373099
10
37.014213562373101
20
-44.046446609406701
42
-0.19891236737963791
10
37.367766952966399
20
-43.899999999999999
10
42.632233047033601
20
-43.899999999999999
42
-0.19891236737963791
10
42.985786437626899
20
-44.046446609406701
10
45.353553390593298
20
-46.414213562373099
42
-0.19891236737966284
10
45.5
20
-46.767766952966397
10
45.5
20
-47.700000000000003
42
-0.41421356237309503
10
45
20
-48.200000000000003
10
43.125
20
-48.200000000000003
10
43.125
20
-48.545000000000009
10
44.433553390593303
20
-49.853553390593305
42
0.19891236737964554
10
44.787106781186509
20
-50
10
49.5
20
-50
42
0.41421356237306384
10
50
20
-49.5
10
50
20
-44.787106781186601
42
0.19891236737966284
10
49.853553390593305
20
-44.433553390593303
10
48.545000000000009
20
-43.125
10
48.200000000000003
20
-43.125
10
48.200000000000003
20
-45
42
-0.41421356237309503
10
47.700000000000003
20
-45.5
10
46.767766952966397
20
-45.5
42
-0.19891236737966284
10
46.414213562373099
20
-45.353553390593298
10
44.046446609406701
20
-42.985786437626913
42
-0.19891236737963791
10
43.899999999999999
20
-42.632233047033601
10
43.899999999999999
20
-37.367766952966399
42
-0.19891236737963006
10
44.046446609406701
20
-37.014213562373101
10
46.414213562373106
20
-34.646446609406709
42
-0.19891236737962834
10
46.767766952966397
20
-34.5
10
47.699999999999996
20
-34.5
42
-0.41421356237307683
10
48.200000000000003
20
-35
10
48.200000000000003
20
-36.875
10
48.545000000000009
20
-36.875
10
49.853553390593305
20
-35.566446609406697
42
0.19891236737966775
10
50
20
-35.212893218813399
10
50
20
-30.500000000000004
42
0.41421356237307422
10
49.5
20
-30
10
44.787106781186509
20
-30
42
0.19891236737960422
10
44.433553390593303
20
-30.146446609406699
10
43.125
20
-31.455000000000002
10
43.125
20
-31.800000000000001
10
45
20
-31.800000000000001
42
-0.41421356237311585
10
45.5
20
-32.299999999999997
10
45.5
20
-33.232233047033603
42
-0.19891236737966214
10
45.353553390593298
20
-33.585786437626901
10
42.985786437626899
20
-35.953553390593299
42
-0.1989123673796917
10
42.632233047033601
20
-36.100000000000001
10
37.367766952966399
20
-36.100000000000009
42
-0.19891236737964968
10
37.014213562373101
20
-35.953553390593299
10
34.646446609406709
20
-33.585786437626901
42
-0.19891236737967105
10
34.5
20
-33.232233047033603
10
34.5
20
-32.299999999999997
42
-0.41421356237308982
10
35
20
-31.800000000000001
10
36.875
20
-31.800000000000001
10
36.875
20
-31.455000000000002
10
35.566446609406697
20
-30.146446609406699
42
0.19891236737965823
0
LWPOLYLINE
5
101
100
AcDbEntity
8
0
100
AcDbPolyline
90
24
70
1
43
0.0
10
27
20
-33.853553390593298
10
27
20
-32.299999999999997
42
-0.41421356237309503
10
27.5
20
-31.800000000000001
10
32.5
20
-31.800000000000001
42
-0.41421356237309764
10
33
20
-32.299999999999997
10
33
20
-33.853553390593198
42
0.19891236737965501
10
33.146446609406709
20
-34.207106781186511
10
35.953553390593299
20
-37.014213562373101
42
-0.19891236737967105
10
36.100000000000001
20
-37.367766952966399
10
36.100000000000001
20
-42.632233047033601
42
-0.19891236737961068
10
35.953553390593299
20
-42.985786437626899
10
33.146446609406709
20
-45.792893218813397
42
0.19891236737956935
10
33
20
-46.146446609406702
10
33.000000000000007
20
-47.700000000000003
42
-0.41421356237308982
10
32.5
20
-48.200000000000003
10
27.5
20
-48.200000000000003
42
-0.41421356237308721
10
27
20
-47.700000000000003
10
27
20
-46.146446609406702
42
0.1989123673796675
10
26.853553390593305
20
-45.792893218813504
10
24.046446609406701
20
-42.985786437626899
42
-0.19891236737965037
10
23.900000000000002
20
-42.632233047033601
10
23.900000000000006
20
-37.367766952966399
42
-0.19891236737964091
10
24.046446609406704
20
-37.014213562373101
10
26.853553390593305
20
-34.207106781186511
42
0.19891236737965803
0
CIRCLE
5
102
100
AcDbEntity
8
0
100
AcDbCircle
10
20
20
-39.999999999999993
30
0
40
2.0999999999999996
210
2.4275571330142333e-17
220
-9.4377150946582646e-16
230
1
0
CIRCLE
5
103
100
AcDbEntity
8
0
100
AcDbCircle
10
40
20
-40
30
0
40
2.1000000000000019
210
2.4275571330139072e-17
220
-9.4377150946582903e-16
230
1
0
LWPOLYLINE
5
104
100
AcDbEntity
8
0
100
AcDbPolyline
90
128
70
1
43
0.0
10
35.212893218813399
20
-30
10
24.787106781186502
20
-30
42
0.19891236737963991
10
24.433553390593303
20
-30.146446609406699
10
23.125
20
-31.455000000000002
10
23.125
20
-31.800000000000001
10
25
20
-31.799999999999997
42
-0.41421356237311063
10
25.500000000000004
20
-32.299999999999997
10
25.500000000000004
20
-33.232233047033603
42
-0.19891236737966447
10
25.353553390593305
20
-33.585786437626901
10
22.985786437626899
20
-35.953553390593299
42
-0.19891236737970508
10
22.632233047033601
20
-36.100000000000001
10
17.367766952966399
20
-36.100000000000001
42
-0.19891236737965085
10
17.014213562373101
20
-35.953553390593299
10
14.6464466094067
20
-33.585786437626901
42
-0.19891236737965431
10
14.500000000000002
20
-33.23223304703361
10
14.500000000000002
20
-32.299999999999997
42
-0.41421356237309503
10
15
20
-31.800000000000001
10
16.875
20
-31.800000000000001
10
16.875
20
-31.455000000000002
10
15.5664466094067
20
-30.146446609406699
42
0.19891236737966217
10
15.212893218813402
20
-30
10
10.5
20
-30
42
0.41421356237309243
10
10
20
-30.500000000000004
10
10
20
-35.212893218813399
42
0.19891236737967494
10
10.1464466094067
20
-35.566446609406697
10
11.455
20
-36.875
10
11.800000000000001
20
-36.875
10
11.800000000000004
20
-35
42
-0.41421356237310025
10
12.300000000000002
20
-34.5
10
13.232233047033599
20
-34.5
42
-0.19891236737964957
10
13.585786437626901
20
-34.646446609406702
10
15.953553390593299
20
-37.014213562373101
42
-0.19891236737967888
10
16.100000000000001
20
-37.367766952966399
10
16.099999999999998
20
-42.632233047033601
42
-0.19891236737960907
10
15.953553390593299
20
-42.985786437626899
10
13.585786437626901
20
-45.353553390593298
42
-0.19891236737970935
10
13.232233047033599
20
-45.5
10
12.300000000000002
20
-45.499999999999986
42
-0.41421356237309892
10
11.800000000000001
20
-45
10
11.800000000000001
20
-43.125
10
11.455
20
-43.125
10
10.1464466094067
20
-44.433553390593303
42
0.19891236737967158
10
10
20
-44.787106781186608
10
10
20
-49.5
42
0.41421356237308332
10
10.5
20
-50
10
15.212893218813402
20
-50
42
0.19891236737966217
10
15.5664466094067
20
-49.853553390593305
10
16.875
20
-48.545000000000009
10
16.875
20
-48.200000000000003
10
15
20
-48.200000000000003
42
-0.41421356237309503
10
14.500000000000002
20
-47.700000000000003
10
14.500000000000002
20
-46.767766952966397
42
-0.1989123673796416
10
14.646446609406702
20
-46.414213562373099
10
17.014213562373101
20
-44.046446609406701
42
-0.19891236737964427
10
17.367766952966399
20
-43.899999999999999
10
22.632233047033601
20
-43.899999999999999
42
-0.19891236737965154
10
22.985786437626892
20
-44.046446609406701
10
25.353553390593305
20
-46.414213562373099
42
-0.19891236737966447
10
25.500000000000004
20
-46.767766952966397
10
25.5
20
-47.700000000000003
42
-0.41421356237309503
10
25
20
-48.200000000000003
10
23.125
20
-48.200000000000003
10
23.125
20
-48.545000000000009
10
24.433553390593303
20
-49.853553390593305
42
0.19891236737966286
10
24.787106781186502
20
-50
10
35.212893218813399
20
-50
42
0.19891236737965989
10
35.566446609406697
20
-49.853553390593305
10
36.875
20
-48.545000000000009
10
36.875
20
-48.200000000000003
10
35
20
-48.200000000000003
42
-0.41421356237309503
10
34.5
20
-47.700000000000003
10
34.499999999999993
20
-46.767766952966397
42
-0.19891236737961748
10
34.646446609406702
20
-46.414213562373099
10
37.014213562373101
20
-44.046446609406701
42
-0.19891236737964577
10
37.367766952966399
20
-43.899999999999999
10
42.632233047033601
20
-43.900000000000006
42
-0.19891236737965037
10
42.985786437626899
20
-44.046446609406701
10
45.353553390593298
20
-46.414213562373099
42
-0.19891236737966608
10
45.5
20
-46.767766952966397
10
45.5
20
-47.700000000000003
42
-0.41421356237309503
10
45
20
-48.200000000000003
10
43.125
20
-48.200000000000003
10
43.125
20
-48.545000000000009
10
44.433553390593303
20
-49.853553390593305
42
0.19891236737964554
10
44.787106781186509
20
-50
10
49.5
20
-50
42
0.41421356237306384
10
50
20
-49.5
10
50
20
-44.787106781186601
42
0.19891236737966284
10
49.853553390593305
20
-44.433553390593303
10
48.545000000000009
20
-43.125
10
48.200000000000003
20
-43.125
10
48.200000000000003
20
-45
42
-0.41421356237309503
10
47.700000000000003
20
-45.5
10
46.767766952966397
20
-45.5
42
-0.19891236737966608
10
46.414213562373099
20
-45.353553390593298
10
44.046446609406694
20
-42.985786437626899
42
-0.19891236737965037
10
43.899999999999999
20
-42.632233047033601
10
43.899999999999999
20
-37.367766952966399
42
-0.19891236737964185
10
44.046446609406701
20
-37.014213562373101
10
46.414213562373099
20
-34.646446609406709
42
-0.19891236737962048
10
46.767766952966397
20
-34.5
10
47.700000000000003
20
-34.5
42
-0.4142135623730846
10
48.200000000000003
20
-35
10
48.200000000000003
20
-36.875
10
48.545000000000009
20
-36.875
10
49.853553390593305
20
-35.566446609406697
42
0.19891236737966775
10
50
20
-35.212893218813399
10
50
20
-30.500000000000004
42
0.41421356237307422
10
49.5
20
-30
10
44.787106781186509
20
-30
42
0.19891236737960422
10
44.433553390593303
20
-30.146446609406699
10
43.125
20
-31.455000000000002
10
43.125
20
-31.800000000000001
10
45
20
-31.800000000000004
42
-0.41421356237313406
10
45.5
20
-32.299999999999997
10
45.5
20
-33.232233047033603
42
-0.19891236737966284
10
45.353553390593298
20
-33.585786437626901
10
42.985786437626899
20
-35.953553390593299
42
-0.19891236737970577
10
42.632233047033601
20
-36.100000000000001
10
37.367766952966399
20
-36.100000000000001
42
-0.19891236737965201
10
37.014213562373101
20
-35.953553390593299
10
34.646446609406702
20
-33.585786437626901
42
-0.19891236737968063
10
34.5
20
-33.232233047033603
10
34.5
20
-32.299999999999997
42
-0.41421356237309503
10
35
20
-31.800000000000001
10
36.875
20
-31.800000000000001
10
36.875
20
-31.455000000000002
10
35.566446609406697
20
-30.146446609406699
42
0.19891236737965823
0
LWPOLYLINE
5
105
100
AcDbEntity
8
0
100
AcDbPolyline
90
24
70
1
43
0.0
10
27
20
-33.853553390593298
10
27
20
-32.299999999999997
42
-0.41421356237309503
10
27.5
20
-31.800000000000001
10
32.5
20
-31.800000000000001
42
-0.41421356237309764
10
33
20
-32.299999999999997
10
33
20
-33.853553390593198
42
0.19891236737965501
10
33.146446609406709
20
-34.207106781186511
10
35.953553390593299
20
-37.014213562373101
42
-0.19891236737968063
10
36.100000000000001
20
-37.367766952966399
10
36.099999999999994
20
-42.632233047033594
42
-0.19891236737960422
10
35.953553390593299
20
-42.985786437626899
10
33.146446609406709
20
-45.792893218813397
42
0.19891236737956935
10
33
20
-46.146446609406702
10
33.000000000000007
20
-47.700000000000003
42
-0.41421356237308982
10
32.5
20
-48.200000000000003
10
27.5
20
-48.200000000000003
42
-0.4142135623730846
10
27
20
-47.700000000000003
10
27
20
-46.146446609406702
42
0.1989123673796675
10
26.853553390593305
20
-45.792893218813504
10
24.046446609406704
20
-42.985786437626899
42
-0.19891236737966159
10
23.900000000000002
20
-42.632233047033601
10
23.900000000000002
20
-37.367766952966399
42
-0.19891236737963688
10
24.046446609406704
20
-37.014213562373101
10
26.853553390593305
20
-34.207106781186511
42
0.19891236737965803
0
CIRCLE
5
106
100
AcDbEntity
8
0
100
AcDbCircle
10
20
20
-39.999999999999993
30
0
40
2.0999999999999996
210
0
220
-0
230
1
0
CIRCLE
5
107
100
AcDbEntity
8
0
100
AcDbCircle
10
40
20
-40
30
0
40
2.1000000000000023
210
0
220
-0
230
1
0
ENDSEC
0
SECTION
2
OBJECTS
0
DICTIONARY
5
C
100
AcDbDictionary
3
ACAD_GROUP
350
D
3
ACAD_MLINESTYLE
350
17
0
DICTIONARY
5
D
100
AcDbDictionary
0
DICTIONARY
5
1A
330
C
100
AcDbDictionary
0
DICTIONARY
5
17
100
AcDbDictionary
0
ENDSEC
0
EOF
