0
SECTION
2
HEADER
9
$INSUNITS
70
4
9
$ACADVER
1
AC1014
9
$HANDSEED
5
FFFF
0
ENDSEC
0
SECTION
2
TABLES
0
TABLE
2
VPORT
5
8
100
AcDbSymbolTable
0
ENDTAB
0
TABLE
2
LTYPE
5
5
100
AcDbSymbolTable
0
LTYPE
5
14
100
AcDbSymbolTableRecord
100
AcDbLinetypeTableRecord
2
BYBLOCK
70
0
0
LTYPE
5
15
100
AcDbSymbolTableRecord
100
AcDbLinetypeTableRecord
2
BYLAYER
70
0
0
LTYPE
5
16
100
AcDbSymbolTableRecord
100
AcDbLinetypeTableRecord
2
DASHED
70
0
3
Dashed __ __ __ __ __ __ __ __ __ __ __ __ __ _
72
65
73
2
40
0.75
49
0.5
74
0
49
-0.25
74
0
0
ENDTAB
0
TABLE
2
LAYER
5
2
100
AcDbSymbolTable
70
2
0
LAYER
5
50
100
AcDbSymbolTableRecord
100
AcDbLayerTableRecord
2
0
70
0
62
7
6
CONTINUOUS
0
ENDTAB
0
TABLE
2
STYLE
5
3
100
AcDbSymbolTable
70
1
0
STYLE
5
11
100
AcDbSymbolTableRecord
100
AcDbTextStyleTableRecord
2
STANDARD
70
0
0
ENDTAB
0
TABLE
2
VIEW
5
6
100
AcDbSymbolTable
70
0
0
ENDTAB
0
TABLE
2
UCS
5
7
100
AcDbSymbolTable
70
0
0
ENDTAB
0
TABLE
2
APPID
5
9
100
AcDbSymbolTable
70
2
0
APPID
5
12
100
AcDbSymbolTableRecord
100
AcDbRegAppTableRecord
2
ACAD
70
0
0
ENDTAB
0
TABLE
2
DIMSTYLE
5
A
100
AcDbSymbolTable
70
1
0
ENDTAB
0
TABLE
2
BLOCK_RECORD
5
1
100
AcDbSymbolTable
70
1
0
BLOCK_RECORD
5
1F
100
AcDbSymbolTableRecord
100
AcDbBlockTableRecord
2
*MODEL_SPACE
0
BLOCK_RECORD
5
1B
100
AcDbSymbolTableRecord
100
AcDbBlockTableRecord
2
*PAPER_SPACE
0
ENDTAB
0
ENDSEC
0
SECTION
2
BLOCKS
0
BLOCK
5
20
100
AcDbEntity
100
AcDbBlockBegin
2
*MODEL_SPACE
0
ENDBLK
5
21
100
AcDbEntity
100
AcDbBlockEnd
0
BLOCK
5
1C
100
AcDbEntity
100
AcDbBlockBegin
2
*PAPER_SPACE
0
ENDBLK
5
1D
100
AcDbEntity
100
AcDbBlockEnd
0
ENDSEC
0
SECTION
2
ENTITIES
0
LWPOLYLINE
5
100
100
AcDbEntity
8
0
100
AcDbPolyline
90
168
70
1
43
0.0
10
-17.3677669529664
20
3.8999999999999986
10
-22.6322330470336
20
3.8999999999999986
42
-0.19891236737963308
10
-22.9857864376269
20
4.046446609406701
10
-25.353553390593298
20
6.414213562373099
42
-0.19891236737963791
10
-25.500000000000007
20
6.767766952966397
10
-25.500000000000007
20
7.700000000000003
42
-0.41421356237310025
10
-25.0
20
8.2
10
-23.125
20
8.2
10
-23.125
20
8.544999999999998
10
-24.433553390593303
20
9.853553390593301
42
0.19891236737966295
10
-24.78710678118651
20
10.0
10
-29.5
20
10.0
42
0.41421356237307422
10
-30.0
20
9.499999999999996
10
-30.0
20
4.787106781186601
42
0.19891236737965989
10
-29.853553390593305
20
4.433553390593303
10
-28.54500000000001
20
3.125
10
-28.200000000000003
20
3.125
10
-28.200000000000003
20
5.0
42
-0.41421356237308721
10
-27.700000000000003
20
5.5
10
-26.767766952966397
20
5.5
42
-0.19891236737965037
10
-26.4142135623731
20
5.353553390593298
10
-24.0464466094067
20
2.985786437626899
42
-0.19891236737966447
10
-23.900000000000006
20
2.632233047033594
10
-23.900000000000006
20
-2.6322330470336013
42
-0.19891236737968523
10
-24.0464466094067
20
-2.985786437626899
10
-26.4142135623731
20
-5.353553390593291
42
-0.1989123673796693
10
-26.767766952966397
20
-5.5
10
-27.700000000000003
20
-5.5
42
-0.41421356237309503
10
-28.200000000000003
20
-5.0
10
-28.200000000000003
20
-3.125
10
-28.54500000000001
20
-3.125
10
-29.853553390593305
20
-4.433553390593303
42
0.19891236737966284
10
-30.0
20
-4.787106781186601
10
-30.0
20
-9.5
42
0.41421356237306384
10
-29.5
20
-10.0
10
-24.78710678118651
20
-10.0
42
0.19891236737966456
10
-24.433553390593303
20
-9.853553390593305
10
-23.125
20
-8.545000000000009
10
-23.125
20
-8.200000000000003
10
-25.0
20
-8.200000000000003
42
-0.41421356237310025
10
-25.500000000000007
20
-7.700000000000003
10
-25.500000000000007
20
-6.767766952966397
42
-0.19891236737972517
10
-25.353553390593298
20
-6.414213562373099
10
-22.9857864376269
20
-4.046446609406701
42
-0.19891236737962673
10
-22.632233047033594
20
-3.8999999999999986
10
-17.3677669529664
20
-3.8999999999999986
42
-0.1989123673796333
10
-17.014213562373108
20
-4.046446609406701
10
-14.646446609406702
20
-6.414213562373092
42
-0.19891236737970416
10
-14.499999999999993
20
-6.767766952966397
10
-14.5
20
-7.700000000000003
42
-0.41421356237309503
10
-15.0
20
-8.200000000000003
10
-16.875
20
-8.200000000000003
10
-16.875
20
-8.545000000000009
10
-15.566446609406697
20
-9.853553390593305
42
0.19891236737968027
10
-15.212893218813491
20
-10.0
10
-4.787106781186601
20
-10.0
42
0.19891236737966217
10
-4.433553390593303
20
-9.853553390593305
10
-3.125
20
-8.545000000000009
10
-3.125
20
-8.200000000000003
10
-5.0
20
-8.200000000000003
42
-0.41421356237309764
10
-5.5
20
-7.700000000000003
10
-5.5
20
-6.767766952966397
42
-0.19891236737967105
10
-5.353553390593298
20
-6.414213562373099
10
-2.985786437626899
20
-4.046446609406701
42
-0.19891236737963791
10
-2.6322330470336013
20
-3.8999999999999986
10
2.6322330470335977
20
-3.8999999999999986
42
-0.19891236737963791
10
2.985786437626899
20
-4.046446609406701
10
5.353553390593298
20
-6.414213562373099
42
-0.19891236737966284
10
5.5
20
-6.767766952966397
10
5.5000000000000036
20
-7.699999999999996
42
-0.41421356237308721
10
5.0
20
-8.200000000000003
10
3.125
20
-8.200000000000003
10
3.125
20
-8.545000000000009
10
4.4335533905933
20
-9.853553390593305
42
0.19891236737967011
10
4.787106781186495
20
-10.0
10
15.212893218813399
20
-10.0
42
0.19891236737966611
10
15.566446609406698
20
-9.853553390593305
10
16.875
20
-8.545000000000009
10
16.875
20
-8.200000000000003
10
15.0
20
-8.200000000000003
42
-0.41421356237309503
10
14.5
20
-7.700000000000003
10
14.5
20
-6.767766952966397
42
-0.19891236737967727
10
14.6464466094067
20
-6.414213562373099
10
17.0142135623731
20
-4.046446609406701
42
-0.1989123673796363
10
17.3677669529664
20
-3.8999999999999986
10
22.63223304703362
20
-3.8999999999999986
42
-0.19891236737961968
10
22.9857864376269
20
-4.046446609406701
10
25.353553390593277
20
-6.414213562373099
42
-0.19891236737967682
10
25.5
20
-6.767766952966397
10
25.5
20
-7.700000000000003
42
-0.41421356237309664
10
25.0
20
-8.200000000000003
10
23.125
20
-8.200000000000003
10
23.125
20
-8.545000000000009
10
24.433553390593268
20
-9.853553390593305
42
0.19891236737963644
10
24.78710678118654
20
-10.0
10
29.5
20
-10.0
42
0.41421356237307683
10
30.0
20
-9.5
10
30.0
20
-4.787106781186601
42
0.19891236737967002
10
29.853553390593277
20
-4.433553390593303
10
28.545
20
-3.125
10
28.2
20
-3.125
10
28.2
20
-5.0
42
-0.41421356237309631
10
27.7
20
-5.5
10
26.76776695296637
20
-5.5
42
-0.19891236737964438
10
26.41421356237309
20
-5.353553390593298
10
24.04644660940673
20
-2.985786437626899
42
-0.19891236737970278
10
23.90000000000001
20
-2.632233047033594
10
23.90000000000001
20
2.6322330470336013
42
-0.19891236737968823
10
24.04644660940673
20
2.985786437626899
10
26.41421356237309
20
5.353553390593298
42
-0.19891236737961113
10
26.76776695296637
20
5.5
10
27.7
20
5.5
42
-0.41421356237310564
10
28.2
20
5.0
10
28.2
20
3.125
10
28.545
20
3.125
10
29.853553390593277
20
4.433553390593303
42
0.19891236737967991
10
30.0
20
4.787106781186601
10
30.0
20
9.499999999999996
42
0.41421356237308904
10
29.5
20
10.0
10
24.78710678118654
20
10.0
42
0.19891236737961127
10
24.433553390593268
20
9.853553390593301
10
23.125
20
8.544999999999998
10
23.125
20
8.2
10
25.0
20
8.2
42
-0.41421356237309503
10
25.5
20
7.700000000000003
10
25.5
20
6.767766952966397
42
-0.19891236737967738
10
25.35355339059328
20
6.414213562373099
10
22.9857864376269
20
4.046446609406701
42
-0.19891236737967324
10
22.632233047033623
20
3.8999999999999986
10
17.3677669529664
20
3.8999999999999986
42
-0.19891236737965395
10
17.0142135623731
20
4.046446609406701
10
14.6464466094067
20
6.414213562373099
42
-0.19891236737964485
10
14.5
20
6.767766952966397
10
14.499999999999996
20
7.700000000000003
42
-0.41421356237309764
10
15.0
20
8.2
10
16.875
20
8.2
10
16.875
20
8.544999999999998
10
15.566446609406698
20
9.853553390593301
42
0.19891236737966611
10
15.212893218813399
20
10.0
10
4.787106781186495
20
10.0
42
0.19891236737964946
10
4.4335533905933
20
9.853553390593301
10
3.125
20
8.544999999999998
10
3.125
20
8.2
10
5.0
20
8.2
42
-0.41421356237308982
10
5.5
20
7.700000000000003
10
5.5
20
6.767766952966397
42
-0.19891236737966053
10
5.353553390593298
20
6.414213562373099
10
2.985786437626899
20
4.046446609406701
42
-0.1989123673796924
10
2.6322330470335977
20
3.8999999999999986
10
-2.6322330470336013
20
3.8999999999999915
42
-0.19891236737964968
10
-2.985786437626899
20
4.046446609406701
10
-5.353553390593305
20
6.414213562373099
42
-0.19891236737965037
10
-5.5
20
6.767766952966397
10
-5.5
20
7.700000000000003
42
-0.41421356237310802
10
-5.0
20
8.2
10
-3.125
20
8.2
10
-3.125
20
8.544999999999998
10
-4.433553390593303
20
9.853553390593301
42
0.19891236737966217
10
-4.787106781186601
20
10.0
10
-15.212893218813505
20
10.0
42
0.1989123673796343
10
-15.566446609406697
20
9.853553390593301
10
-16.875
20
8.544999999999998
10
-16.875
20
8.2
10
-15.0
20
8.200000000000003
42
-0.41421356237307683
10
-14.5
20
7.700000000000003
10
-14.5
20
6.767766952966397
42
-0.19891236737966214
10
-14.646446609406702
20
6.414213562373099
10
-17.014213562373108
20
4.046446609406701
42
-0.19891236737968709
0
LWPOLYLINE
5
101
100
AcDbEntity
8
0
100
AcDbPolyline
90
24
70
1
43
0.0
10
-13.0
20
6.146446609406702
10
-13.0
20
7.700000000000003
42
-0.41421356237309503
10
-12.5
20
8.2
10
-7.5
20
8.2
42
-0.41421356237308982
10
-7.0
20
7.700000000000003
10
-7.0
20
6.1464466094068015
42
0.19891236737967566
10
-6.853553390593298
20
5.792893218813489
10
-4.046446609406701
20
2.985786437626899
42
-0.19891236737965037
10
-3.8999999999999986
20
2.6322330470336013
10
-3.8999999999999986
20
-2.6322330470336013
42
-0.19891236737965362
10
-4.046446609406701
20
-2.985786437626899
10
-6.853553390593298
20
-5.792893218813397
42
0.19891236737952672
10
-7.0
20
-6.146446609406702
10
-7.0
20
-7.700000000000003
42
-0.41421356237309503
10
-7.5
20
-8.200000000000003
10
-12.5
20
-8.200000000000003
42
-0.41421356237313667
10
-13.0
20
-7.700000000000003
10
-13.0
20
-6.146446609406702
42
0.19891236737957921
10
-13.14644660940671
20
-5.792893218813504
10
-15.953553390593306
20
-2.985786437626899
42
-0.19891236737966284
10
-16.1
20
-2.6322330470336013
10
-16.1
20
2.632233047033594
42
-0.19891236737965107
10
-15.953553390593306
20
2.985786437626899
10
-13.14644660940671
20
5.792893218813489
42
0.19891236737963469
0
LWPOLYLINE
5
102
100
AcDbEntity
8
0
100
AcDbPolyline
90
24
70
1
43
0.0
10
6.9999999999999964
20
6.146446609406702
10
6.9999999999999964
20
7.700000000000003
42
-0.41421356237309243
10
7.5
20
8.2
10
12.5
20
8.200000000000003
42
-0.4142135623730937
10
13.0
20
7.700000000000003
10
13.0
20
6.1464466094068015
42
0.198912367379666
10
13.146446609406695
20
5.792893218813489
10
15.953553390593298
20
2.985786437626899
42
-0.19891236737965592
10
16.099999999999998
20
2.6322330470336013
10
16.099999999999994
20
-2.6322330470336013
42
-0.19891236737964865
10
15.953553390593298
20
-2.985786437626899
10
13.146446609406695
20
-5.792893218813397
42
0.19891236737953841
10
13.0
20
-6.146446609406702
10
13.0
20
-7.700000000000003
42
-0.41421356237309631
10
12.5
20
-8.200000000000003
10
7.5
20
-8.200000000000003
42
-0.41421356237311846
10
6.9999999999999964
20
-7.700000000000003
10
6.9999999999999964
20
-6.146446609406702
42
0.19891236737960258
10
6.853553390593305
20
-5.792893218813504
10
4.046446609406704
20
-2.985786437626899
42
-0.19891236737967105
10
3.8999999999999986
20
-2.6322330470336013
10
3.8999999999999986
20
2.6322330470336013
42
-0.1989123673796632
10
4.046446609406701
20
2.985786437626899
10
6.853553390593298
20
5.792893218813489
42
0.19891236737963669
0
CIRCLE
5
103
100
AcDbEntity
8
0
100
AcDbCircle
10
19.999999999999993
20
1.4210854715202004e-14
30
1.1102230246251565e-15
40
2.0999999999999934
210
2.4275571330144295e-17
220
-9.4377150946582567e-16
230
1
0
CIRCLE
5
104
100
AcDbEntity
8
0
100
AcDbCircle
10
-7.105427357601002e-15
20
1.4210854715202004e-14
30
1.1102230246251565e-15
40
2.0999999999999943
210
2.4275571330145827e-17
220
-9.4377150946582429e-16
230
1
0
CIRCLE
5
105
100
AcDbEntity
8
0
100
AcDbCircle
10
-20.000000000000007
20
1.4210854715202004e-14
30
1.1102230246251565e-15
40
2.0999999999999979
210
2.4275571330145734e-17
220
-9.4377150946582409e-16
230
1
0
LWPOLYLINE
5
106
100
AcDbEntity
8
0
100
AcDbPolyline
90
168
70
1
43
0.0
10
-17.3677669529664
20
3.8999999999999986
10
-22.6322330470336
20
3.8999999999999986
42
-0.19891236737963919
10
-22.9857864376269
20
4.046446609406701
10
-25.353553390593298
20
6.414213562373099
42
-0.19891236737964507
10
-25.500000000000007
20
6.767766952966397
10
-25.500000000000007
20
7.700000000000003
42
-0.41421356237311846
10
-25.0
20
8.2
10
-23.125
20
8.2
10
-23.125
20
8.544999999999998
10
-24.433553390593303
20
9.853553390593301
42
0.19891236737966295
10
-24.78710678118651
20
10.0
10
-29.5
20
10.0
42
0.41421356237307422
10
-30.0
20
9.499999999999996
10
-30.0
20
4.787106781186601
42
0.19891236737965989
10
-29.853553390593305
20
4.433553390593303
10
-28.54500000000001
20
3.125
10
-28.200000000000003
20
3.125
10
-28.200000000000003
20
5.0
42
-0.4142135623730846
10
-27.700000000000003
20
5.5
10
-26.767766952966397
20
5.5
42
-0.19891236737965201
10
-26.4142135623731
20
5.353553390593298
10
-24.0464466094067
20
2.985786437626899
42
-0.19891236737965984
10
-23.900000000000006
20
2.6322330470336013
10
-23.900000000000006
20
-2.6322330470336013
42
-0.19891236737971987
10
-24.0464466094067
20
-2.985786437626899
10
-26.4142135623731
20
-5.353553390593305
42
-0.19891236737965501
10
-26.767766952966397
20
-5.5
10
-27.700000000000003
20
-5.5
42
-0.41421356237309503
10
-28.200000000000003
20
-5.0
10
-28.200000000000003
20
-3.125
10
-28.54500000000001
20
-3.125
10
-29.853553390593305
20
-4.433553390593303
42
0.19891236737966284
10
-30.0
20
-4.787106781186601
10
-30.0
20
-9.5
42
0.41421356237306384
10
-29.5
20
-10.0
10
-24.78710678118651
20
-10.0
42
0.19891236737966456
10
-24.433553390593303
20
-9.853553390593305
10
-23.125
20
-8.545000000000009
10
-23.125
20
-8.200000000000003
10
-25.0
20
-8.200000000000003
42
-0.41421356237310025
10
-25.500000000000007
20
-7.700000000000003
10
-25.500000000000014
20
-6.767766952966397
42
-0.19891236737972839
10
-25.353553390593298
20
-6.414213562373099
10
-22.9857864376269
20
-4.046446609406701
42
-0.19891236737962673
10
-22.632233047033594
20
-3.8999999999999986
10
-17.3677669529664
20
-3.8999999999999986
42
-0.19891236737964116
10
-17.014213562373108
20
-4.046446609406701
10
-14.646446609406702
20
-6.414213562373099
42
-0.19891236737970416
10
-14.5
20
-6.76776695296639
10
-14.5
20
-7.700000000000003
42
-0.41421356237309503
10
-15.0
20
-8.200000000000003
10
-16.875
20
-8.200000000000003
10
-16.875
20
-8.545000000000009
10
-15.566446609406697
20
-9.853553390593305
42
0.19891236737968027
10
-15.212893218813491
20
-10.0
10
-4.787106781186601
20
-10.0
42
0.19891236737966217
10
-4.433553390593303
20
-9.853553390593305
10
-3.125
20
-8.545000000000009
10
-3.125
20
-8.200000000000003
10
-5.0
20
-8.200000000000003
42
-0.41421356237309503
10
-5.5
20
-7.700000000000003
10
-5.5
20
-6.767766952966397
42
-0.19891236737967266
10
-5.353553390593298
20
-6.414213562373099
10
-2.9857864376269063
20
-4.046446609406701
42
-0.19891236737964577
10
-2.6322330470336013
20
-3.8999999999999986
10
2.6322330470335977
20
-3.8999999999999986
42
-0.19891236737964185
10
2.985786437626899
20
-4.046446609406701
10
5.353553390593298
20
-6.414213562373099
42
-0.19891236737966447
10
5.5
20
-6.767766952966397
10
5.5000000000000036
20
-7.699999999999996
42
-0.41421356237308721
10
5.0
20
-8.200000000000003
10
3.125
20
-8.200000000000003
10
3.125
20
-8.545000000000009
10
4.4335533905933
20
-9.853553390593305
42
0.19891236737966783
10
4.787106781186491
20
-10.0
10
15.212893218813399
20
-10.0
42
0.19891236737966611
10
15.566446609406698
20
-9.853553390593305
10
16.875
20
-8.545000000000009
10
16.875
20
-8.200000000000003
10
15.0
20
-8.200000000000003
42
-0.4142135623730937
10
14.5
20
-7.700000000000003
10
14.499999999999996
20
-6.767766952966397
42
-0.19891236737967971
10
14.6464466094067
20
-6.414213562373099
10
17.014213562373097
20
-4.0464466094066935
42
-0.19891236737964069
10
17.3677669529664
20
-3.8999999999999986
10
22.63223304703362
20
-3.9000000000000057
42
-0.19891236737964277
10
22.9857864376269
20
-4.046446609406701
10
25.353553390593277
20
-6.414213562373099
42
-0.19891236737966908
10
25.5
20
-6.767766952966397
10
25.5
20
-7.700000000000003
42
-0.41421356237309503
10
25.0
20
-8.200000000000003
10
23.125
20
-8.200000000000003
10
23.125
20
-8.545000000000009
10
24.433553390593268
20
-9.853553390593305
42
0.19891236737963586
10
24.78710678118654
20
-10.0
10
29.5
20
-10.0
42
0.41421356237307683
10
30.0
20
-9.5
10
30.0
20
-4.787106781186601
42
0.19891236737966997
10
29.853553390593277
20
-4.433553390593303
10
28.545
20
-3.125
10
28.2
20
-3.125
10
28.200000000000003
20
-5.0
42
-0.41421356237309748
10
27.7
20
-5.5
10
26.76776695296637
20
-5.5
42
-0.19891236737962914
10
26.41421356237309
20
-5.353553390593298
10
24.046446609406726
20
-2.9857864376269134
42
-0.19891236737970935
10
23.90000000000001
20
-2.632233047033594
10
23.900000000000006
20
2.6322330470336013
42
-0.1989123673796856
10
24.04644660940673
20
2.985786437626899
10
26.41421356237309
20
5.353553390593298
42
-0.19891236737961288
10
26.76776695296637
20
5.5
10
27.7
20
5.5
42
-0.41421356237310675
10
28.2
20
5.0
10
28.2
20
3.125
10
28.545
20
3.125
10
29.853553390593277
20
4.433553390593303
42
0.19891236737967991
10
30.0
20
4.787106781186601
10
30.0
20
9.499999999999996
42
0.41421356237308904
10
29.5
20
10.0
10
24.78710678118654
20
10.0
42
0.19891236737961127
10
24.433553390593268
20
9.853553390593301
10
23.125
20
8.544999999999998
10
23.125
20
8.2
10
25.0
20
8.2
42
-0.41421356237309537
10
25.5
20
7.700000000000003
10
25.499999999999996
20
6.767766952966397
42
-0.19891236737967599
10
25.35355339059328
20
6.414213562373099
10
22.9857864376269
20
4.046446609406701
42
-0.19891236737966561
10
22.632233047033623
20
3.8999999999999986
10
17.3677669529664
20
3.8999999999999915
42
-0.19891236737965165
10
17.0142135623731
20
4.046446609406701
10
14.6464466094067
20
6.414213562373099
42
-0.19891236737964865
10
14.5
20
6.767766952966397
10
14.499999999999996
20
7.700000000000003
42
-0.41421356237309243
10
15.0
20
8.2
10
16.875
20
8.2
10
16.875
20
8.544999999999998
10
15.566446609406698
20
9.853553390593301
42
0.19891236737966611
10
15.212893218813399
20
10.0
10
4.787106781186495
20
10.0
42
0.19891236737964946
10
4.4335533905933
20
9.853553390593301
10
3.125
20
8.544999999999998
10
3.125
20
8.2
10
5.0
20
8.2
42
-0.41421356237309503
10
5.5
20
7.700000000000003
10
5.5
20
6.767766952966397
42
-0.19891236737966447
10
5.353553390593298
20
6.414213562373099
10
2.9857864376269028
20
4.046446609406701
42
-0.19891236737970025
10
2.6322330470335977
20
3.8999999999999986
10
-2.6322330470336013
20
3.8999999999999986
42
-0.19891236737964405
10
-2.985786437626899
20
4.046446609406701
10
-5.353553390593298
20
6.414213562373099
42
-0.19891236737965362
10
-5.5
20
6.76776695296639
10
-5.5
20
7.700000000000003
42
-0.41421356237311063
10
-5.0
20
8.2
10
-3.125
20
8.2
10
-3.125
20
8.544999999999998
10
-4.433553390593303
20
9.853553390593301
42
0.19891236737965989
10
-4.787106781186601
20
10.0
10
-15.212893218813505
20
10.0
42
0.1989123673796343
10
-15.566446609406697
20
9.853553390593301
10
-16.875
20
8.544999999999998
10
-16.875
20
8.2
10
-15.0
20
8.200000000000006
42
-0.41421356237307944
10
-14.5
20
7.700000000000003
10
-14.5
20
6.767766952966397
42
-0.19891236737966284
10
-14.646446609406702
20
6.414213562373099
10
-17.014213562373108
20
4.046446609406701
42
-0.19891236737967599
0
LWPOLYLINE
5
107
100
AcDbEntity
8
0
100
AcDbPolyline
90
24
70
1
43
0.0
10
-13.0
20
6.146446609406702
10
-12.999999999999986
20
7.700000000000003
42
-0.41421356237309764
10
-12.5
20
8.2
10
-7.5
20
8.2
42
-0.41421356237309503
10
-7.0
20
7.700000000000003
10
-7.0
20
6.1464466094068015
42
0.19891236737967566
10
-6.853553390593298
20
5.792893218813489
10
-4.046446609406701
20
2.985786437626899
42
-0.19891236737965362
10
-3.8999999999999986
20
2.6322330470336013
10
-3.8999999999999986
20
-2.6322330470336013
42
-0.19891236737966159
10
-4.046446609406701
20
-2.985786437626899
10
-6.853553390593298
20
-5.792893218813397
42
0.19891236737952672
10
-7.0
20
-6.146446609406702
10
-7.0
20
-7.700000000000003
42
-0.41421356237309503
10
-7.5
20
-8.200000000000003
10
-12.5
20
-8.199999999999996
42
-0.41421356237313145
10
-13.0
20
-7.700000000000003
10
-13.0
20
-6.146446609406702
42
0.19891236737957921
10
-13.14644660940671
20
-5.792893218813504
10
-15.953553390593306
20
-2.985786437626899
42
-0.19891236737967405
10
-16.1
20
-2.6322330470336013
10
-16.1
20
2.6322330470336013
42
-0.19891236737966284
10
-15.953553390593306
20
2.985786437626899
10
-13.14644660940671
20
5.792893218813489
42
0.19891236737963469
0
LWPOLYLINE
5
108
100
AcDbEntity
8
0
100
AcDbPolyline
90
24
70
1
43
0.0
10
6.9999999999999964
20
6.146446609406702
10
6.999999999999993
20
7.700000000000003
42
-0.41421356237308982
10
7.5
20
8.2
10
12.5
20
8.200000000000003
42
-0.41421356237309243
10
13.0
20
7.700000000000003
10
13.0
20
6.1464466094068015
42
0.198912367379666
10
13.146446609406695
20
5.792893218813489
10
15.953553390593296
20
2.985786437626892
42
-0.19891236737965118
10
16.099999999999998
20
2.6322330470336013
10
16.099999999999994
20
-2.6322330470336013
42
-0.19891236737965581
10
15.953553390593298
20
-2.985786437626899
10
13.146446609406695
20
-5.792893218813397
42
0.19891236737953841
10
13.0
20
-6.146446609406702
10
12.999999999999996
20
-7.700000000000003
42
-0.4142135623730937
10
12.5
20
-8.200000000000003
10
7.5
20
-8.200000000000003
42
-0.41421356237312101
10
6.9999999999999964
20
-7.700000000000003
10
6.9999999999999964
20
-6.146446609406702
42
0.19891236737960258
10
6.853553390593305
20
-5.792893218813504
10
4.046446609406701
20
-2.985786437626899
42
-0.19891236737968523
10
3.8999999999999986
20
-2.6322330470336013
10
3.8999999999999986
20
2.6322330470336013
42
-0.19891236737967496
10
4.046446609406701
20
2.985786437626899
10
6.853553390593298
20
5.792893218813489
42
0.19891236737963669
0
CIRCLE
5
109
100
AcDbEntity
8
0
100
AcDbCircle
10
19.999999999999993
20
1.4210854715202004e-14
30
0
40
2.0999999999999939
210
0
220
-0
230
1
0
CIRCLE
5
110
100
AcDbEntity
8
0
100
AcDbCircle
10
-7.105427357601002e-15
20
1.4210854715202004e-14
30
0
40
2.0999999999999943
210
0
220
-0
230
1
0
CIRCLE
5
111
100
AcDbEntity
8
0
100
AcDbCircle
10
-20.000000000000007
20
1.4210854715202004e-14
30
0
40
2.0999999999999979
210
0
220
-0
230
1
0
ENDSEC
0
SECTION
2
OBJECTS
0
DICTIONARY
5
C
100
AcDbDictionary
3
ACAD_GROUP
350
D
3
ACAD_MLINESTYLE
350
17
0
DICTIONARY
5
D
100
AcDbDictionary
0
DICTIONARY
5
1A
330
C
100
AcDbDictionary
0
DICTIONARY
5
17
100
AcDbDictionary
0
ENDSEC
0
EOF
