0
SECTION
2
HEADER
9
$INSUNITS
70
4
9
$ACADVER
1
AC1014
9
$HANDSEED
5
FFFF
0
ENDSEC
0
SECTION
2
TABLES
0
TABLE
2
VPORT
5
8
100
AcDbSymbolTable
0
ENDTAB
0
TABLE
2
LTYPE
5
5
100
AcDbSymbolTable
0
LTYPE
5
14
100
AcDbSymbolTableRecord
100
AcDbLinetypeTableRecord
2
BYBLOCK
70
0
0
LTYPE
5
15
100
AcDbSymbolTableRecord
100
AcDbLinetypeTableRecord
2
BYLAYER
70
0
0
LTYPE
5
16
100
AcDbSymbolTableRecord
100
AcDbLinetypeTableRecord
2
DASHED
70
0
3
Dashed __ __ __ __ __ __ __ __ __ __ __ __ __ _
72
65
73
2
40
0.75
49
0.5
74
0
49
-0.25
74
0
0
ENDTAB
0
TABLE
2
LAYER
5
2
100
AcDbSymbolTable
70
2
0
LAYER
5
50
100
AcDbSymbolTableRecord
100
AcDbLayerTableRecord
2
0
70
0
62
7
6
CONTINUOUS
0
ENDTAB
0
TABLE
2
STYLE
5
3
100
AcDbSymbolTable
70
1
0
STYLE
5
11
100
AcDbSymbolTableRecord
100
AcDbTextStyleTableRecord
2
STANDARD
70
0
0
ENDTAB
0
TABLE
2
VIEW
5
6
100
AcDbSymbolTable
70
0
0
ENDTAB
0
TABLE
2
UCS
5
7
100
AcDbSymbolTable
70
0
0
ENDTAB
0
TABLE
2
APPID
5
9
100
AcDbSymbolTable
70
2
0
APPID
5
12
100
AcDbSymbolTableRecord
100
AcDbRegAppTableRecord
2
ACAD
70
0
0
ENDTAB
0
TABLE
2
DIMSTYLE
5
A
100
AcDbSymbolTable
70
1
0
ENDTAB
0
TABLE
2
BLOCK_RECORD
5
1
100
AcDbSymbolTable
70
1
0
BLOCK_RECORD
5
1F
100
AcDbSymbolTableRecord
100
AcDbBlockTableRecord
2
*MODEL_SPACE
0
BLOCK_RECORD
5
1B
100
AcDbSymbolTableRecord
100
AcDbBlockTableRecord
2
*PAPER_SPACE
0
ENDTAB
0
ENDSEC
0
SECTION
2
BLOCKS
0
BLOCK
5
20
100
AcDbEntity
100
AcDbBlockBegin
2
*MODEL_SPACE
0
ENDBLK
5
21
100
AcDbEntity
100
AcDbBlockEnd
0
BLOCK
5
1C
100
AcDbEntity
100
AcDbBlockBegin
2
*PAPER_SPACE
0
ENDBLK
5
1D
100
AcDbEntity
100
AcDbBlockEnd
0
ENDSEC
0
SECTION
2
ENTITIES
0
LWPOLYLINE
5
100
100
AcDbEntity
8
0
100
AcDbPolyline
90
168
70
1
43
0.0
10
-47.367766952966399
20
-36.100000000000001
10
-52.632233047033601
20
-36.100000000000001
42
-0.19891236737963308
10
-52.985786437626899
20
-35.953553390593299
10
-55.353553390593298
20
-33.585786437626901
42
-0.19891236737963791
10
-55.500000000000007
20
-33.232233047033603
10
-55.500000000000007
20
-32.299999999999997
42
-0.41421356237310025
10
-55
20
-31.800000000000001
10
-53.125
20
-31.800000000000001
10
-53.125
20
-31.455000000000002
10
-54.433553390593303
20
-30.146446609406699
42
0.19891236737966295
10
-54.787106781186509
20
-30
10
-59.5
20
-30
42
0.41421356237307422
10
-60
20
-30.500000000000004
10
-60
20
-35.212893218813399
42
0.19891236737965989
10
-59.853553390593305
20
-35.566446609406697
10
-58.545000000000009
20
-36.875
10
-58.200000000000003
20
-36.875
10
-58.200000000000003
20
-35
42
-0.41421356237308721
10
-57.700000000000003
20
-34.5
10
-56.767766952966397
20
-34.5
42
-0.19891236737965037
10
-56.414213562373099
20
-34.646446609406702
10
-54.046446609406701
20
-37.014213562373101
42
-0.19891236737966447
10
-53.900000000000006
20
-37.367766952966406
10
-53.900000000000006
20
-42.632233047033601
42
-0.19891236737968523
10
-54.046446609406701
20
-42.985786437626899
10
-56.414213562373099
20
-45.353553390593291
42
-0.1989123673796693
10
-56.767766952966397
20
-45.5
10
-57.700000000000003
20
-45.5
42
-0.41421356237309503
10
-58.200000000000003
20
-45
10
-58.200000000000003
20
-43.125
10
-58.545000000000009
20
-43.125
10
-59.853553390593305
20
-44.433553390593303
42
0.19891236737966284
10
-60
20
-44.787106781186601
10
-60
20
-49.5
42
0.41421356237306384
10
-59.5
20
-50
10
-54.787106781186509
20
-50
42
0.19891236737966456
10
-54.433553390593303
20
-49.853553390593305
10
-53.125
20
-48.545000000000009
10
-53.125
20
-48.200000000000003
10
-55
20
-48.200000000000003
42
-0.41421356237310025
10
-55.500000000000007
20
-47.700000000000003
10
-55.500000000000007
20
-46.767766952966397
42
-0.19891236737972517
10
-55.353553390593298
20
-46.414213562373099
10
-52.985786437626899
20
-44.046446609406701
42
-0.19891236737962673
10
-52.632233047033594
20
-43.899999999999999
10
-47.367766952966399
20
-43.899999999999999
42
-0.1989123673796333
10
-47.014213562373108
20
-44.046446609406701
10
-44.646446609406702
20
-46.414213562373092
42
-0.19891236737970416
10
-44.499999999999993
20
-46.767766952966397
10
-44.5
20
-47.700000000000003
42
-0.41421356237309503
10
-45
20
-48.200000000000003
10
-46.875
20
-48.200000000000003
10
-46.875
20
-48.545000000000009
10
-45.566446609406697
20
-49.853553390593305
42
0.19891236737968027
10
-45.212893218813491
20
-50
10
-34.787106781186601
20
-50
42
0.19891236737966217
10
-34.433553390593303
20
-49.853553390593305
10
-33.125
20
-48.545000000000009
10
-33.125
20
-48.200000000000003
10
-35
20
-48.200000000000003
42
-0.41421356237309764
10
-35.5
20
-47.700000000000003
10
-35.5
20
-46.767766952966397
42
-0.19891236737967105
10
-35.353553390593298
20
-46.414213562373099
10
-32.985786437626899
20
-44.046446609406701
42
-0.19891236737963791
10
-32.632233047033601
20
-43.899999999999999
10
-27.367766952966402
20
-43.899999999999999
42
-0.19891236737963791
10
-27.014213562373101
20
-44.046446609406701
10
-24.646446609406702
20
-46.414213562373099
42
-0.19891236737966284
10
-24.5
20
-46.767766952966397
10
-24.499999999999996
20
-47.699999999999996
42
-0.41421356237308721
10
-25
20
-48.200000000000003
10
-26.875
20
-48.200000000000003
10
-26.875
20
-48.545000000000009
10
-25.5664466094067
20
-49.853553390593305
42
0.19891236737967011
10
-25.212893218813505
20
-50
10
-14.787106781186601
20
-50
42
0.19891236737966611
10
-14.433553390593302
20
-49.853553390593305
10
-13.125
20
-48.545000000000009
10
-13.125
20
-48.200000000000003
10
-15
20
-48.200000000000003
42
-0.41421356237309503
10
-15.5
20
-47.700000000000003
10
-15.5
20
-46.767766952966397
42
-0.19891236737967727
10
-15.3535533905933
20
-46.414213562373099
10
-12.985786437626901
20
-44.046446609406701
42
-0.1989123673796363
10
-12.632233047033603
20
-43.899999999999999
10
-7.3677669529663801
20
-43.899999999999999
42
-0.19891236737961968
10
-7.014213562373099
20
-44.046446609406701
10
-4.6464466094067216
20
-46.414213562373099
42
-0.19891236737967682
10
-4.5
20
-46.767766952966397
10
-4.4999999999999991
20
-47.700000000000003
42
-0.41421356237309664
10
-5
20
-48.200000000000003
10
-6.875
20
-48.200000000000003
10
-6.875
20
-48.545000000000009
10
-5.5664466094067313
20
-49.853553390593305
42
0.19891236737963644
10
-5.2128932188134591
20
-50
10
-0.49999999999999989
20
-50
42
0.41421356237307683
10
0
20
-49.5
10
0
20
-44.787106781186601
42
0.19891236737967002
10
-0.14644660940672305
20
-44.433553390593303
10
-1.4550000000000001
20
-43.125
10
-1.8000000000000003
20
-43.125
10
-1.7999999999999994
20
-45
42
-0.41421356237309631
10
-2.2999999999999998
20
-45.5
10
-3.2322330470336302
20
-45.5
42
-0.19891236737964438
10
-3.58578643762691
20
-45.353553390593298
10
-5.9535533905932709
20
-42.985786437626899
42
-0.19891236737970278
10
-6.0999999999999899
20
-42.632233047033594
10
-6.0999999999999908
20
-37.367766952966399
42
-0.19891236737968823
10
-5.95355339059327
20
-37.014213562373101
10
-3.5857864376269104
20
-34.646446609406702
42
-0.19891236737961113
10
-3.2322330470336302
20
-34.5
10
-2.2999999999999998
20
-34.5
42
-0.41421356237310564
10
-1.8000000000000003
20
-35
10
-1.8000000000000003
20
-36.875
10
-1.4550000000000001
20
-36.875
10
-0.14644660940672294
20
-35.566446609406697
42
0.19891236737967991
10
3.4694469519536142e-17
20
-35.212893218813399
10
0
20
-30.500000000000004
42
0.41421356237308904
10
-0.5
20
-30
10
-5.21289321881346
20
-30
42
0.19891236737961127
10
-5.5664466094067313
20
-30.146446609406699
10
-6.875
20
-31.455000000000002
10
-6.875
20
-31.800000000000001
10
-5
20
-31.800000000000001
42
-0.41421356237309503
10
-4.5
20
-32.299999999999997
10
-4.5000000000000009
20
-33.232233047033603
42
-0.19891236737967738
10
-4.6464466094067198
20
-33.585786437626901
10
-7.0142135623731008
20
-35.953553390593299
42
-0.19891236737967324
10
-7.3677669529663792
20
-36.100000000000001
10
-12.632233047033601
20
-36.100000000000001
42
-0.19891236737965395
10
-12.985786437626901
20
-35.953553390593299
10
-15.3535533905933
20
-33.585786437626901
42
-0.19891236737964485
10
-15.5
20
-33.232233047033603
10
-15.500000000000004
20
-32.299999999999997
42
-0.41421356237309764
10
-15
20
-31.800000000000001
10
-13.125
20
-31.800000000000001
10
-13.125
20
-31.455000000000002
10
-14.433553390593302
20
-30.146446609406699
42
0.19891236737966611
10
-14.787106781186601
20
-30
10
-25.212893218813505
20
-30
42
0.19891236737964946
10
-25.5664466094067
20
-30.146446609406699
10
-26.875
20
-31.455000000000002
10
-26.875
20
-31.800000000000001
10
-25
20
-31.800000000000001
42
-0.41421356237308982
10
-24.5
20
-32.299999999999997
10
-24.5
20
-33.232233047033603
42
-0.19891236737966053
10
-24.646446609406702
20
-33.585786437626901
10
-27.014213562373101
20
-35.953553390593299
42
-0.1989123673796924
10
-27.367766952966402
20
-36.100000000000001
10
-32.632233047033601
20
-36.100000000000009
42
-0.19891236737964968
10
-32.985786437626899
20
-35.953553390593299
10
-35.353553390593305
20
-33.585786437626901
42
-0.19891236737965037
10
-35.5
20
-33.232233047033603
10
-35.5
20
-32.299999999999997
42
-0.41421356237310802
10
-35
20
-31.800000000000001
10
-33.125
20
-31.800000000000001
10
-33.125
20
-31.455000000000002
10
-34.433553390593303
20
-30.146446609406699
42
0.19891236737966217
10
-34.787106781186601
20
-30
10
-45.212893218813505
20
-30
42
0.1989123673796343
10
-45.566446609406697
20
-30.146446609406699
10
-46.875
20
-31.455000000000002
10
-46.875
20
-31.800000000000001
10
-45
20
-31.799999999999997
42
-0.41421356237307683
10
-44.5
20
-32.299999999999997
10
-44.5
20
-33.232233047033603
42
-0.19891236737966214
10
-44.646446609406702
20
-33.585786437626901
10
-47.014213562373108
20
-35.953553390593299
42
-0.19891236737968709
0
LWPOLYLINE
5
101
100
AcDbEntity
8
0
100
AcDbPolyline
90
24
70
1
43
0.0
10
-43
20
-33.853553390593298
10
-43
20
-32.299999999999997
42
-0.41421356237309503
10
-42.5
20
-31.800000000000001
10
-37.5
20
-31.800000000000001
42
-0.41421356237308982
10
-37
20
-32.299999999999997
10
-37
20
-33.853553390593198
42
0.19891236737967566
10
-36.853553390593298
20
-34.207106781186511
10
-34.046446609406701
20
-37.014213562373101
42
-0.19891236737965037
10
-33.899999999999999
20
-37.367766952966399
10
-33.899999999999999
20
-42.632233047033601
42
-0.19891236737965362
10
-34.046446609406701
20
-42.985786437626899
10
-36.853553390593298
20
-45.792893218813397
42
0.19891236737952672
10
-37
20
-46.146446609406702
10
-37
20
-47.700000000000003
42
-0.41421356237309503
10
-37.5
20
-48.200000000000003
10
-42.5
20
-48.200000000000003
42
-0.41421356237313667
10
-43
20
-47.700000000000003
10
-43
20
-46.146446609406702
42
0.19891236737957921
10
-43.146446609406709
20
-45.792893218813504
10
-45.953553390593306
20
-42.985786437626899
42
-0.19891236737966284
10
-46.100000000000001
20
-42.632233047033601
10
-46.100000000000001
20
-37.367766952966406
42
-0.19891236737965107
10
-45.953553390593306
20
-37.014213562373101
10
-43.146446609406709
20
-34.207106781186511
42
0.19891236737963469
0
LWPOLYLINE
5
102
100
AcDbEntity
8
0
100
AcDbPolyline
90
24
70
1
43
0.0
10
-23.000000000000004
20
-33.853553390593298
10
-23.000000000000004
20
-32.299999999999997
42
-0.41421356237309243
10
-22.5
20
-31.800000000000001
10
-17.5
20
-31.799999999999997
42
-0.4142135623730937
10
-17
20
-32.299999999999997
10
-17
20
-33.853553390593198
42
0.198912367379666
10
-16.853553390593305
20
-34.207106781186511
10
-14.046446609406702
20
-37.014213562373101
42
-0.19891236737965592
10
-13.900000000000002
20
-37.367766952966399
10
-13.900000000000004
20
-42.632233047033601
42
-0.19891236737964865
10
-14.046446609406702
20
-42.985786437626899
10
-16.853553390593305
20
-45.792893218813397
42
0.19891236737953841
10
-17
20
-46.146446609406702
10
-17
20
-47.700000000000003
42
-0.41421356237309631
10
-17.5
20
-48.200000000000003
10
-22.5
20
-48.200000000000003
42
-0.41421356237311846
10
-23.000000000000004
20
-47.700000000000003
10
-23.000000000000004
20
-46.146446609406702
42
0.19891236737960258
10
-23.146446609406695
20
-45.792893218813504
10
-25.953553390593296
20
-42.985786437626899
42
-0.19891236737967105
10
-26.100000000000001
20
-42.632233047033601
10
-26.100000000000001
20
-37.367766952966399
42
-0.1989123673796632
10
-25.953553390593299
20
-37.014213562373101
10
-23.146446609406702
20
-34.207106781186511
42
0.19891236737963669
0
CIRCLE
5
103
100
AcDbEntity
8
0
100
AcDbCircle
10
-10.000000000000007
20
-39.999999999999986
30
1.1102230246251565e-15
40
2.0999999999999934
210
2.4275571330144295e-17
220
-9.4377150946582567e-16
230
1
0
CIRCLE
5
104
100
AcDbEntity
8
0
100
AcDbCircle
10
-30.000000000000007
20
-39.999999999999986
30
1.1102230246251565e-15
40
2.0999999999999943
210
2.4275571330145827e-17
220
-9.4377150946582429e-16
230
1
0
CIRCLE
5
105
100
AcDbEntity
8
0
100
AcDbCircle
10
-50.000000000000007
20
-39.999999999999986
30
1.1102230246251565e-15
40
2.0999999999999979
210
2.4275571330145734e-17
220
-9.4377150946582409e-16
230
1
0
LWPOLYLINE
5
106
100
AcDbEntity
8
0
100
AcDbPolyline
90
168
70
1
43
0.0
10
-47.367766952966399
20
-36.100000000000001
10
-52.632233047033601
20
-36.100000000000001
42
-0.19891236737963919
10
-52.985786437626899
20
-35.953553390593299
10
-55.353553390593298
20
-33.585786437626901
42
-0.19891236737964507
10
-55.500000000000007
20
-33.232233047033603
10
-55.500000000000007
20
-32.299999999999997
42
-0.41421356237311846
10
-55
20
-31.800000000000001
10
-53.125
20
-31.800000000000001
10
-53.125
20
-31.455000000000002
10
-54.433553390593303
20
-30.146446609406699
42
0.19891236737966295
10
-54.787106781186509
20
-30
10
-59.5
20
-30
42
0.41421356237307422
10
-60
20
-30.500000000000004
10
-60
20
-35.212893218813399
42
0.19891236737965989
10
-59.853553390593305
20
-35.566446609406697
10
-58.545000000000009
20
-36.875
10
-58.200000000000003
20
-36.875
10
-58.200000000000003
20
-35
42
-0.4142135623730846
10
-57.700000000000003
20
-34.5
10
-56.767766952966397
20
-34.5
42
-0.19891236737965201
10
-56.414213562373099
20
-34.646446609406702
10
-54.046446609406701
20
-37.014213562373101
42
-0.19891236737965984
10
-53.900000000000006
20
-37.367766952966399
10
-53.900000000000006
20
-42.632233047033601
42
-0.19891236737971987
10
-54.046446609406701
20
-42.985786437626899
10
-56.414213562373099
20
-45.353553390593305
42
-0.19891236737965501
10
-56.767766952966397
20
-45.5
10
-57.700000000000003
20
-45.5
42
-0.41421356237309503
10
-58.200000000000003
20
-45
10
-58.200000000000003
20
-43.125
10
-58.545000000000009
20
-43.125
10
-59.853553390593305
20
-44.433553390593303
42
0.19891236737966284
10
-60
20
-44.787106781186601
10
-60
20
-49.5
42
0.41421356237306384
10
-59.5
20
-50
10
-54.787106781186509
20
-50
42
0.19891236737966456
10
-54.433553390593303
20
-49.853553390593305
10
-53.125
20
-48.545000000000009
10
-53.125
20
-48.200000000000003
10
-55
20
-48.200000000000003
42
-0.41421356237310025
10
-55.500000000000007
20
-47.700000000000003
10
-55.500000000000014
20
-46.767766952966397
42
-0.19891236737972839
10
-55.353553390593298
20
-46.414213562373099
10
-52.985786437626899
20
-44.046446609406701
42
-0.19891236737962673
10
-52.632233047033594
20
-43.899999999999999
10
-47.367766952966399
20
-43.899999999999999
42
-0.19891236737964116
10
-47.014213562373108
20
-44.046446609406701
10
-44.646446609406702
20
-46.414213562373099
42
-0.19891236737970416
10
-44.5
20
-46.76776695296639
10
-44.5
20
-47.700000000000003
42
-0.41421356237309503
10
-45
20
-48.200000000000003
10
-46.875
20
-48.200000000000003
10
-46.875
20
-48.545000000000009
10
-45.566446609406697
20
-49.853553390593305
42
0.19891236737968027
10
-45.212893218813491
20
-50
10
-34.787106781186601
20
-50
42
0.19891236737966217
10
-34.433553390593303
20
-49.853553390593305
10
-33.125
20
-48.545000000000009
10
-33.125
20
-48.200000000000003
10
-35
20
-48.200000000000003
42
-0.41421356237309503
10
-35.5
20
-47.700000000000003
10
-35.5
20
-46.767766952966397
42
-0.19891236737967266
10
-35.353553390593298
20
-46.414213562373099
10
-32.985786437626906
20
-44.046446609406701
42
-0.19891236737964577
10
-32.632233047033601
20
-43.899999999999999
10
-27.367766952966402
20
-43.899999999999999
42
-0.19891236737964185
10
-27.014213562373101
20
-44.046446609406701
10
-24.646446609406702
20
-46.414213562373099
42
-0.19891236737966447
10
-24.5
20
-46.767766952966397
10
-24.499999999999996
20
-47.699999999999996
42
-0.41421356237308721
10
-25
20
-48.200000000000003
10
-26.875
20
-48.200000000000003
10
-26.875
20
-48.545000000000009
10
-25.5664466094067
20
-49.853553390593305
42
0.19891236737966783
10
-25.212893218813509
20
-50
10
-14.787106781186601
20
-50
42
0.19891236737966611
10
-14.433553390593302
20
-49.853553390593305
10
-13.125
20
-48.545000000000009
10
-13.125
20
-48.200000000000003
10
-15
20
-48.200000000000003
42
-0.4142135623730937
10
-15.5
20
-47.700000000000003
10
-15.500000000000004
20
-46.767766952966397
42
-0.19891236737967971
10
-15.3535533905933
20
-46.414213562373099
10
-12.985786437626903
20
-44.046446609406694
42
-0.19891236737964069
10
-12.632233047033603
20
-43.899999999999999
10
-7.3677669529663801
20
-43.900000000000006
42
-0.19891236737964277
10
-7.0142135623731008
20
-44.046446609406701
10
-4.6464466094067225
20
-46.414213562373099
42
-0.19891236737966908
10
-4.5
20
-46.767766952966397
10
-4.5000000000000018
20
-47.700000000000003
42
-0.41421356237309503
10
-5
20
-48.200000000000003
10
-6.875
20
-48.200000000000003
10
-6.875
20
-48.545000000000009
10
-5.5664466094067313
20
-49.853553390593305
42
0.19891236737963586
10
-5.21289321881346
20
-50
10
-0.49999999999999989
20
-50
42
0.41421356237307683
10
8.1057092265683113e-28
20
-49.5
10
0
20
-44.787106781186601
42
0.19891236737966997
10
-0.14644660940672294
20
-44.433553390593303
10
-1.4550000000000001
20
-43.125
10
-1.8000000000000003
20
-43.125
10
-1.7999999999999974
20
-45
42
-0.41421356237309748
10
-2.2999999999999998
20
-45.5
10
-3.2322330470336302
20
-45.5
42
-0.19891236737962914
10
-3.58578643762691
20
-45.353553390593298
10
-5.9535533905932736
20
-42.985786437626913
42
-0.19891236737970935
10
-6.0999999999999899
20
-42.632233047033594
10
-6.0999999999999925
20
-37.367766952966399
42
-0.1989123673796856
10
-5.95355339059327
20
-37.014213562373101
10
-3.58578643762691
20
-34.646446609406702
42
-0.19891236737961288
10
-3.2322330470336302
20
-34.5
10
-2.2999999999999998
20
-34.5
42
-0.41421356237310675
10
-1.8000000000000003
20
-35
10
-1.8000000000000003
20
-36.875
10
-1.4550000000000001
20
-36.875
10
-0.14644660940672294
20
-35.566446609406697
42
0.19891236737967991
10
3.4694469519536142e-17
20
-35.212893218813399
10
0
20
-30.500000000000004
42
0.41421356237308904
10
-0.50000000000000011
20
-30
10
-5.21289321881346
20
-30
42
0.19891236737961127
10
-5.5664466094067313
20
-30.146446609406699
10
-6.875
20
-31.455000000000002
10
-6.875
20
-31.800000000000001
10
-5
20
-31.800000000000001
42
-0.41421356237309537
10
-4.5
20
-32.299999999999997
10
-4.5000000000000027
20
-33.232233047033603
42
-0.19891236737967599
10
-4.6464466094067198
20
-33.585786437626901
10
-7.0142135623731008
20
-35.953553390593299
42
-0.19891236737966561
10
-7.3677669529663792
20
-36.100000000000001
10
-12.632233047033601
20
-36.100000000000009
42
-0.19891236737965165
10
-12.985786437626901
20
-35.953553390593299
10
-15.3535533905933
20
-33.585786437626901
42
-0.19891236737964865
10
-15.5
20
-33.232233047033603
10
-15.500000000000004
20
-32.299999999999997
42
-0.41421356237309243
10
-15
20
-31.800000000000001
10
-13.125
20
-31.800000000000001
10
-13.125
20
-31.455000000000002
10
-14.433553390593302
20
-30.146446609406699
42
0.19891236737966611
10
-14.787106781186601
20
-30
10
-25.212893218813505
20
-30
42
0.19891236737964946
10
-25.5664466094067
20
-30.146446609406699
10
-26.875
20
-31.455000000000002
10
-26.875
20
-31.800000000000001
10
-25
20
-31.800000000000001
42
-0.41421356237309503
10
-24.5
20
-32.299999999999997
10
-24.5
20
-33.232233047033603
42
-0.19891236737966447
10
-24.646446609406702
20
-33.585786437626901
10
-27.014213562373097
20
-35.953553390593299
42
-0.19891236737970025
10
-27.367766952966402
20
-36.100000000000001
10
-32.632233047033601
20
-36.100000000000001
42
-0.19891236737964405
10
-32.985786437626899
20
-35.953553390593299
10
-35.353553390593298
20
-33.585786437626901
42
-0.19891236737965362
10
-35.5
20
-33.23223304703361
10
-35.5
20
-32.299999999999997
42
-0.41421356237311063
10
-35
20
-31.800000000000001
10
-33.125
20
-31.800000000000001
10
-33.125
20
-31.455000000000002
10
-34.433553390593303
20
-30.146446609406699
42
0.19891236737965989
10
-34.787106781186601
20
-30
10
-45.212893218813505
20
-30
42
0.1989123673796343
10
-45.566446609406697
20
-30.146446609406699
10
-46.875
20
-31.455000000000002
10
-46.875
20
-31.800000000000001
10
-45
20
-31.799999999999994
42
-0.41421356237307944
10
-44.5
20
-32.299999999999997
10
-44.5
20
-33.232233047033603
42
-0.19891236737966284
10
-44.646446609406702
20
-33.585786437626901
10
-47.014213562373108
20
-35.953553390593299
42
-0.19891236737967599
0
LWPOLYLINE
5
107
100
AcDbEntity
8
0
100
AcDbPolyline
90
24
70
1
43
0.0
10
-43
20
-33.853553390593298
10
-42.999999999999986
20
-32.299999999999997
42
-0.41421356237309764
10
-42.5
20
-31.800000000000001
10
-37.5
20
-31.800000000000001
42
-0.41421356237309503
10
-37
20
-32.299999999999997
10
-37
20
-33.853553390593198
42
0.19891236737967566
10
-36.853553390593298
20
-34.207106781186511
10
-34.046446609406701
20
-37.014213562373101
42
-0.19891236737965362
10
-33.899999999999999
20
-37.367766952966399
10
-33.899999999999999
20
-42.632233047033601
42
-0.19891236737966159
10
-34.046446609406701
20
-42.985786437626899
10
-36.853553390593298
20
-45.792893218813397
42
0.19891236737952672
10
-37
20
-46.146446609406702
10
-37
20
-47.700000000000003
42
-0.41421356237309503
10
-37.5
20
-48.200000000000003
10
-42.5
20
-48.199999999999996
42
-0.41421356237313145
10
-43
20
-47.700000000000003
10
-43
20
-46.146446609406702
42
0.19891236737957921
10
-43.146446609406709
20
-45.792893218813504
10
-45.953553390593306
20
-42.985786437626899
42
-0.19891236737967405
10
-46.100000000000001
20
-42.632233047033601
10
-46.100000000000001
20
-37.367766952966399
42
-0.19891236737966284
10
-45.953553390593306
20
-37.014213562373101
10
-43.146446609406709
20
-34.207106781186511
42
0.19891236737963469
0
LWPOLYLINE
5
108
100
AcDbEntity
8
0
100
AcDbPolyline
90
24
70
1
43
0.0
10
-23.000000000000004
20
-33.853553390593298
10
-23.000000000000007
20
-32.299999999999997
42
-0.41421356237308982
10
-22.5
20
-31.800000000000001
10
-17.5
20
-31.799999999999997
42
-0.41421356237309243
10
-17
20
-32.299999999999997
10
-17
20
-33.853553390593198
42
0.198912367379666
10
-16.853553390593305
20
-34.207106781186511
10
-14.046446609406704
20
-37.014213562373108
42
-0.19891236737965118
10
-13.900000000000002
20
-37.367766952966399
10
-13.900000000000004
20
-42.632233047033601
42
-0.19891236737965581
10
-14.046446609406702
20
-42.985786437626899
10
-16.853553390593305
20
-45.792893218813397
42
0.19891236737953841
10
-17
20
-46.146446609406702
10
-17.000000000000004
20
-47.700000000000003
42
-0.4142135623730937
10
-17.5
20
-48.200000000000003
10
-22.5
20
-48.200000000000003
42
-0.41421356237312101
10
-23.000000000000004
20
-47.700000000000003
10
-23.000000000000004
20
-46.146446609406702
42
0.19891236737960258
10
-23.146446609406695
20
-45.792893218813504
10
-25.953553390593299
20
-42.985786437626899
42
-0.19891236737968523
10
-26.100000000000001
20
-42.632233047033601
10
-26.100000000000001
20
-37.367766952966399
42
-0.19891236737967496
10
-25.953553390593299
20
-37.014213562373101
10
-23.146446609406702
20
-34.207106781186511
42
0.19891236737963669
0
CIRCLE
5
109
100
AcDbEntity
8
0
100
AcDbCircle
10
-10.000000000000007
20
-39.999999999999986
30
0
40
2.0999999999999939
210
0
220
-0
230
1
0
CIRCLE
5
110
100
AcDbEntity
8
0
100
AcDbCircle
10
-30.000000000000007
20
-39.999999999999986
30
0
40
2.0999999999999943
210
0
220
-0
230
1
0
CIRCLE
5
111
100
AcDbEntity
8
0
100
AcDbCircle
10
-50.000000000000007
20
-39.999999999999986
30
0
40
2.0999999999999979
210
0
220
-0
230
1
0
ENDSEC
0
SECTION
2
OBJECTS
0
DICTIONARY
5
C
100
AcDbDictionary
3
ACAD_GROUP
350
D
3
ACAD_MLINESTYLE
350
17
0
DICTIONARY
5
D
100
AcDbDictionary
0
DICTIONARY
5
1A
330
C
100
AcDbDictionary
0
DICTIONARY
5
17
100
AcDbDictionary
0
ENDSEC
0
EOF
