0
SECTION
2
HEADER
9
$INSUNITS
70
4
9
$ACADVER
1
AC1014
9
$HANDSEED
5
FFFF
0
ENDSEC
0
SECTION
2
TABLES
0
TABLE
2
VPORT
5
8
100
AcDbSymbolTable
0
ENDTAB
0
TABLE
2
LTYPE
5
5
100
AcDbSymbolTable
0
LTYPE
5
14
100
AcDbSymbolTableRecord
100
AcDbLinetypeTableRecord
2
BYBLOCK
70
0
0
LTYPE
5
15
100
AcDbSymbolTableRecord
100
AcDbLinetypeTableRecord
2
BYLAYER
70
0
0
LTYPE
5
16
100
AcDbSymbolTableRecord
100
AcDbLinetypeTableRecord
2
DASHED
70
0
3
Dashed __ __ __ __ __ __ __ __ __ __ __ __ __ _
72
65
73
2
40
0.75
49
0.5
74
0
49
-0.25
74
0
0
ENDTAB
0
TABLE
2
LAYER
5
2
100
AcDbSymbolTable
70
2
0
LAYER
5
50
100
AcDbSymbolTableRecord
100
AcDbLayerTableRecord
2
0
70
0
62
7
6
CONTINUOUS
0
ENDTAB
0
TABLE
2
STYLE
5
3
100
AcDbSymbolTable
70
1
0
STYLE
5
11
100
AcDbSymbolTableRecord
100
AcDbTextStyleTableRecord
2
STANDARD
70
0
0
ENDTAB
0
TABLE
2
VIEW
5
6
100
AcDbSymbolTable
70
0
0
ENDTAB
0
TABLE
2
UCS
5
7
100
AcDbSymbolTable
70
0
0
ENDTAB
0
TABLE
2
APPID
5
9
100
AcDbSymbolTable
70
2
0
APPID
5
12
100
AcDbSymbolTableRecord
100
AcDbRegAppTableRecord
2
ACAD
70
0
0
ENDTAB
0
TABLE
2
DIMSTYLE
5
A
100
AcDbSymbolTable
70
1
0
ENDTAB
0
TABLE
2
BLOCK_RECORD
5
1
100
AcDbSymbolTable
70
1
0
BLOCK_RECORD
5
1F
100
AcDbSymbolTableRecord
100
AcDbBlockTableRecord
2
*MODEL_SPACE
0
BLOCK_RECORD
5
1B
100
AcDbSymbolTableRecord
100
AcDbBlockTableRecord
2
*PAPER_SPACE
0
ENDTAB
0
ENDSEC
0
SECTION
2
BLOCKS
0
BLOCK
5
20
100
AcDbEntity
100
AcDbBlockBegin
2
*MODEL_SPACE
0
ENDBLK
5
21
100
AcDbEntity
100
AcDbBlockEnd
0
BLOCK
5
1C
100
AcDbEntity
100
AcDbBlockBegin
2
*PAPER_SPACE
0
ENDBLK
5
1D
100
AcDbEntity
100
AcDbBlockEnd
0
ENDSEC
0
SECTION
2
ENTITIES
0
LWPOLYLINE
5
100
100
AcDbEntity
8
0
100
AcDbPolyline
90
208
70
1
43
0.0
10
-27.3677669529664
20
3.9000000000000004
10
-32.63223304703362
20
3.9000000000000004
42
-0.19891236737963444
10
-32.9857864376269
20
4.04644660940672
10
-35.35355339059328
20
6.4142135623730905
42
-0.19891236737965026
10
-35.5
20
6.76776695296637
10
-35.5
20
7.7
42
-0.41421356237309359
10
-35.0
20
8.2
10
-33.125
20
8.2
10
-33.125
20
8.545
10
-34.43355339059326
20
9.853553390593277
42
0.1989123673796595
10
-34.78710678118654
20
10.0
10
-39.5
20
10.0
42
0.41421356237309453
10
-40.0
20
9.5
10
-40.0
20
4.78710678118655
42
0.19891236737966872
10
-39.85355339059328
20
4.433553390593269
10
-38.54500000000002
20
3.125
10
-38.19999999999999
20
3.125
10
-38.19999999999999
20
5.000000000000001
42
-0.41421356237309653
10
-37.69999999999999
20
5.5
10
-36.76776695296638
20
5.499999999999999
42
-0.19891236737970094
10
-36.41421356237311
20
5.35355339059328
10
-34.04644660940673
20
2.985786437626899
42
-0.19891236737969528
10
-33.90000000000001
20
2.6322330470336297
10
-33.90000000000001
20
-2.6322330470336013
42
-0.19891236737972437
10
-34.04644660940673
20
-2.985786437626901
10
-36.41421356237311
20
-5.3535533905933
42
-0.19891236737967888
10
-36.76776695296638
20
-5.5
10
-37.69999999999999
20
-5.5
42
-0.41421356237311829
10
-38.19999999999999
20
-5.0
10
-38.19999999999999
20
-3.125
10
-38.54500000000002
20
-3.125
10
-39.85355339059328
20
-4.433553390593302
42
0.19891236737968798
10
-40.0
20
-4.787106781186502
10
-40.0
20
-9.5
42
0.41421356237309115
10
-39.5
20
-10.0
10
-34.78710678118654
20
-10.0
42
0.19891236737960258
10
-34.43355339059326
20
-9.853553390593301
10
-33.125
20
-8.545000000000002
10
-33.125
20
-8.2
10
-35.0
20
-8.200000000000003
42
-0.4142135623730937
10
-35.5
20
-7.699999999999999
10
-35.5
20
-6.767766952966401
42
-0.19891236737971732
10
-35.35355339059328
20
-6.414213562373099
10
-32.9857864376269
20
-4.046446609406702
42
-0.19891236737966053
10
-32.63223304703362
20
-3.900000000000002
10
-27.3677669529664
20
-3.900000000000002
42
-0.19891236737965431
10
-27.0142135623731
20
-4.046446609406702
10
-24.646446609406702
20
-6.414213562373103
42
-0.19891236737965592
10
-24.5
20
-6.767766952966401
10
-24.499999999999996
20
-7.699999999999999
42
-0.41421356237309115
10
-25.0
20
-8.2
10
-26.875
20
-8.2
10
-26.875
20
-8.545000000000002
10
-25.566446609406697
20
-9.853553390593301
42
0.19891236737965848
10
-25.212893218813498
20
-10.0
10
-14.787106781186598
20
-10.0
42
0.19891236737965104
10
-14.4335533905933
20
-9.853553390593301
10
-13.125
20
-8.545000000000002
10
-13.125
20
-8.2
10
-15.0
20
-8.2
42
-0.41421356237308593
10
-15.5
20
-7.699999999999999
10
-15.5
20
-6.767766952966401
42
-0.19891236737963952
10
-15.353553390593298
20
-6.414213562373099
10
-12.9857864376269
20
-4.046446609406701
42
-0.19891236737967566
10
-12.632233047033598
20
-3.900000000000002
10
-7.367766952966399
20
-3.900000000000002
42
-0.19891236737964485
10
-7.014213562373101
20
-4.046446609406702
10
-4.646446609406702
20
-6.414213562373099
42
-0.19891236737965004
10
-4.5
20
-6.767766952966401
10
-4.499999999999993
20
-7.699999999999999
42
-0.41421356237309764
10
-5.0
20
-8.2
10
-6.875
20
-8.2
10
-6.875
20
-8.545000000000002
10
-5.566446609406697
20
-9.853553390593301
42
0.19891236737966356
10
-5.212893218813491
20
-10.0
10
5.212893218813399
20
-10.0
42
0.19891236737966778
10
5.566446609406697
20
-9.853553390593301
10
6.875
20
-8.545000000000002
10
6.875
20
-8.2
10
5.0
20
-8.2
42
-0.41421356237309503
10
4.5
20
-7.699999999999999
10
4.5
20
-6.767766952966401
42
-0.1989123673796169
10
4.646446609406702
20
-6.414213562373099
10
7.014213562373108
20
-4.046446609406702
42
-0.19891236737966239
10
7.367766952966399
20
-3.900000000000002
10
12.632233047033601
20
-3.8999999999999986
42
-0.19891236737966239
10
12.9857864376269
20
-4.046446609406702
10
15.353553390593298
20
-6.414213562373099
42
-0.19891236737967982
10
15.500000000000007
20
-6.767766952966401
10
15.500000000000007
20
-7.699999999999999
42
-0.41421356237310025
10
15.0
20
-8.2
10
13.125
20
-8.2
10
13.125
20
-8.545000000000002
10
14.433553390593303
20
-9.853553390593301
42
0.19891236737966295
10
14.787106781186509
20
-10.0
10
25.212893218813406
20
-10.0
42
0.19891236737966317
10
25.566446609406697
20
-9.853553390593301
10
26.875
20
-8.545000000000002
10
26.875
20
-8.2
10
25.0
20
-8.200000000000006
42
-0.41421356237310936
10
24.5
20
-7.699999999999999
10
24.500000000000014
20
-6.767766952966401
42
-0.19891236737961299
10
24.646446609406695
20
-6.414213562373099
10
27.0142135623731
20
-4.046446609406702
42
-0.19891236737970255
10
27.367766952966406
20
-3.900000000000002
10
32.632233047033594
20
-3.8999999999999986
42
-0.19891236737966689
10
32.9857864376269
20
-4.046446609406702
10
35.353553390593305
20
-6.414213562373103
42
-0.19891236737966214
10
35.5
20
-6.767766952966401
10
35.5
20
-7.699999999999999
42
-0.41421356237308071
10
35.0
20
-8.2
10
33.125
20
-8.2
10
33.125
20
-8.545000000000002
10
34.4335533905933
20
-9.853553390593301
42
0.19891236737965828
10
34.787106781186495
20
-10.0
10
39.5
20
-10.0
42
0.41421356237307422
10
40.0
20
-9.5
10
40.0
20
-4.787106781186601
42
0.19891236737960319
10
39.853553390593305
20
-4.433553390593302
10
38.545
20
-3.125
10
38.2
20
-3.125
10
38.2
20
-5.0
42
-0.41421356237307422
10
37.7
20
-5.5
10
36.7677669529664
20
-5.5000000000000036
42
-0.19891236737965765
10
36.41421356237311
20
-5.3535533905933
10
34.0464466094067
20
-2.985786437626901
42
-0.19891236737962811
10
33.900000000000006
20
-2.6322330470336013
10
33.900000000000006
20
2.6322330470336297
42
-0.19891236737963169
10
34.0464466094067
20
2.985786437626899
10
36.41421356237311
20
5.35355339059328
42
-0.19891236737966977
10
36.7677669529664
20
5.5
10
37.7
20
5.5000000000000036
42
-0.41421356237307749
10
38.2
20
5.0
10
38.2
20
3.125
10
38.545
20
3.125
10
39.853553390593305
20
4.433553390593269
42
0.1989123673796129
10
40.0
20
4.78710678118655
10
40.0
20
9.5
42
0.41421356237307683
10
39.5
20
10.0
10
34.787106781186495
20
10.0
42
0.19891236737967641
10
34.4335533905933
20
9.853553390593277
10
33.125
20
8.545
10
33.125
20
8.2
10
35.0
20
8.200000000000005
42
-0.41421356237313472
10
35.5
20
7.7
10
35.5
20
6.76776695296637
42
-0.19891236737959464
10
35.353553390593305
20
6.4142135623730905
10
32.9857864376269
20
4.04644660940673
42
-0.19891236737968257
10
32.632233047033594
20
3.9000000000000004
10
27.367766952966406
20
3.9000000000000012
42
-0.1989123673796902
10
27.0142135623731
20
4.04644660940672
10
24.646446609406695
20
6.41421356237309
42
-0.19891236737963319
10
24.5
20
6.76776695296637
10
24.5
20
7.7
42
-0.41421356237307649
10
25.0
20
8.2
10
26.875
20
8.2
10
26.875
20
8.545
10
25.566446609406697
20
9.853553390593277
42
0.19891236737970897
10
25.212893218813406
20
10.0
10
14.787106781186509
20
10.0
42
0.19891236737967818
10
14.433553390593303
20
9.853553390593277
10
13.125
20
8.545
10
13.125
20
8.2
10
15.0
20
8.2
42
-0.4142135623731012
10
15.500000000000007
20
7.7
10
15.500000000000007
20
6.76776695296637
42
-0.1989123673796116
10
15.353553390593298
20
6.4142135623730905
10
12.9857864376269
20
4.046446609406731
42
-0.19891236737967796
10
12.632233047033601
20
3.9000000000000004
10
7.367766952966399
20
3.9000000000000004
42
-0.19891236737964993
10
7.014213562373108
20
4.04644660940672
10
4.646446609406702
20
6.4142135623730905
42
-0.19891236737963677
10
4.5
20
6.76776695296637
10
4.5
20
7.7
42
-0.41421356237307649
10
5.0
20
8.2
10
6.875
20
8.2
10
6.875
20
8.545
10
5.566446609406697
20
9.853553390593277
42
0.19891236737971357
10
5.212893218813399
20
10.0
10
-5.212893218813491
20
10.0
42
0.1989123673796977
10
-5.566446609406697
20
9.853553390593277
10
-6.875
20
8.545
10
-6.875
20
8.2
10
-5.0
20
8.2
42
-0.41421356237310802
10
-4.5
20
7.7
10
-4.5
20
6.76776695296637
42
-0.19891236737962245
10
-4.646446609406702
20
6.4142135623730905
10
-7.014213562373101
20
4.046446609406729
42
-0.19891236737966955
10
-7.367766952966399
20
3.9000000000000004
10
-12.632233047033598
20
3.9000000000000012
42
-0.19891236737965812
10
-12.9857864376269
20
4.04644660940672
10
-15.353553390593298
20
6.4142135623730905
42
-0.19891236737963491
10
-15.5
20
6.76776695296637
10
-15.5
20
7.7
42
-0.4142135623730861
10
-15.0
20
8.2
10
-13.125
20
8.2
10
-13.125
20
8.545
10
-14.4335533905933
20
9.853553390593277
42
0.19891236737970461
10
-14.787106781186598
20
10.0
10
-25.212893218813498
20
10.0
42
0.19891236737969276
10
-25.566446609406697
20
9.853553390593277
10
-26.875
20
8.545
10
-26.875
20
8.2
10
-25.0
20
8.2
42
-0.4142135623730972
10
-24.5
20
7.7
10
-24.499999999999996
20
6.76776695296637
42
-0.19891236737961807
10
-24.646446609406702
20
6.4142135623730905
10
-27.0142135623731
20
4.04644660940673
42
-0.19891236737966481
0
LWPOLYLINE
5
101
100
AcDbEntity
8
0
100
AcDbPolyline
90
24
70
1
43
0.0
10
-23.0
20
6.14644660940672
10
-23.0
20
7.7
42
-0.41421356237308254
10
-22.5
20
8.2
10
-17.5
20
8.2
42
-0.41421356237309825
10
-16.999999999999996
20
7.7
10
-16.999999999999996
20
6.14644660940675
42
0.1989123673796204
10
-16.853553390593298
20
5.79289321881348
10
-14.0464466094067
20
2.985786437626899
42
-0.19891236737961909
10
-13.899999999999999
20
2.6322330470336297
10
-13.899999999999999
20
-2.6322330470336013
42
-0.19891236737965004
10
-14.0464466094067
20
-2.985786437626901
10
-16.853553390593298
20
-5.792893218813502
42
0.19891236737967044
10
-16.999999999999996
20
-6.1464466094066985
10
-16.999999999999996
20
-7.699999999999999
42
-0.41421356237308854
10
-17.5
20
-8.2
10
-22.5
20
-8.2
42
-0.41421356237308593
10
-23.0
20
-7.699999999999999
10
-23.0
20
-6.1464466094066985
42
0.19891236737966767
10
-23.146446609406695
20
-5.792893218813502
10
-25.9535533905933
20
-2.985786437626901
42
-0.1989123673796602
10
-26.099999999999998
20
-2.6322330470336013
10
-26.099999999999998
20
2.6322330470336297
42
-0.19891236737963838
10
-25.953553390593296
20
2.985786437626899
10
-23.146446609406695
20
5.79289321881345
42
0.1989123673796149
0
LWPOLYLINE
5
102
100
AcDbEntity
8
0
100
AcDbPolyline
90
24
70
1
43
0.0
10
-3.0
20
6.14644660940672
10
-3.0
20
7.7
42
-0.41421356237309082
10
-2.5
20
8.2
10
2.5
20
8.2
42
-0.4142135623730957
10
3.0
20
7.7
10
3.0
20
6.14644660940675
42
0.19891236737966403
10
3.146446609406709
20
5.79289321881348
10
5.9535533905933065
20
2.985786437626901
42
-0.19891236737963169
10
6.100000000000001
20
2.6322330470336297
10
6.100000000000001
20
-2.6322330470336013
42
-0.1989123673796169
10
5.9535533905933065
20
-2.985786437626901
10
3.146446609406709
20
-5.792893218813502
42
0.19891236737969137
10
3.0
20
-6.1464466094066985
10
3.0
20
-7.699999999999999
42
-0.41421356237309503
10
2.5
20
-8.2
10
-2.5
20
-8.200000000000003
42
-0.41421356237307161
10
-3.0
20
-7.699999999999999
10
-3.0
20
-6.1464466094066985
42
0.19891236737968879
10
-3.146446609406702
20
-5.792893218813502
10
-5.953553390593299
20
-2.9857864376269028
42
-0.19891236737965512
10
-6.100000000000001
20
-2.6322330470335977
10
-6.100000000000001
20
2.6322330470336297
42
-0.19891236737964207
10
-5.953553390593299
20
2.985786437626899
10
-3.146446609406702
20
5.79289321881345
42
0.19891236737963802
0
LWPOLYLINE
5
103
100
AcDbEntity
8
0
100
AcDbPolyline
90
24
70
1
43
0.0
10
17.0
20
6.14644660940672
10
17.0
20
7.7
42
-0.41421356237308382
10
17.5
20
8.2
10
22.5
20
8.2
42
-0.41421356237310075
10
23.000000000000007
20
7.7
10
23.000000000000007
20
6.14644660940675
42
0.19891236737964338
10
23.14644660940671
20
5.79289321881348
10
25.9535533905933
20
2.985786437626899
42
-0.19891236737965257
10
26.099999999999994
20
2.6322330470336297
10
26.099999999999994
20
-2.6322330470336013
42
-0.19891236737959925
10
25.9535533905933
20
-2.985786437626901
10
23.14644660940671
20
-5.792893218813502
42
0.19891236737967044
10
23.000000000000007
20
-6.1464466094066985
10
23.000000000000007
20
-7.699999999999999
42
-0.41421356237308071
10
22.5
20
-8.2
10
17.5
20
-8.2
42
-0.41421356237306384
10
17.0
20
-7.699999999999999
10
17.0
20
-6.1464466094066985
42
0.19891236737970097
10
16.853553390593305
20
-5.792893218813502
10
14.0464466094067
20
-2.985786437626901
42
-0.19891236737966608
10
13.900000000000006
20
-2.6322330470336013
10
13.900000000000006
20
2.6322330470336297
42
-0.19891236737963169
10
14.0464466094067
20
2.985786437626899
10
16.853553390593305
20
5.79289321881345
42
0.19891236737962764
0
CIRCLE
5
104
100
AcDbEntity
8
0
100
AcDbCircle
10
-30.0
20
-1.7763568394002505e-15
30
0
40
2.1000000000000014
210
2.4275571330138536e-17
220
-9.4377150946582114e-16
230
1
0
CIRCLE
5
105
100
AcDbEntity
8
0
100
AcDbCircle
10
-9.999999999999996
20
-1.7763568394002505e-15
30
0
40
2.1000000000000032
210
2.4275571330138438e-17
220
-9.4377150946582133e-16
230
1
0
CIRCLE
5
106
100
AcDbEntity
8
0
100
AcDbCircle
10
10.000000000000007
20
-1.4210854715202004e-14
30
0
40
2.1000000000000076
210
2.4275571330133994e-17
220
-9.437715094658239e-16
230
1
0
CIRCLE
5
107
100
AcDbEntity
8
0
100
AcDbCircle
10
30.000000000000014
20
-1.5987211554602254e-14
30
0
40
2.0999999999999992
210
2.4275571330133498e-17
220
-9.4377150946582469e-16
230
1
0
LWPOLYLINE
5
108
100
AcDbEntity
8
0
100
AcDbPolyline
90
208
70
1
43
0.0
10
-27.3677669529664
20
3.9000000000000004
10
-32.63223304703362
20
3.8999999999999986
42
-0.19891236737963341
10
-32.9857864376269
20
4.04644660940672
10
-35.35355339059328
20
6.4142135623730905
42
-0.19891236737965073
10
-35.5
20
6.76776695296637
10
-35.5
20
7.7
42
-0.41421356237309265
10
-35.0
20
8.2
10
-33.125
20
8.2
10
-33.125
20
8.545
10
-34.43355339059326
20
9.853553390593277
42
0.19891236737965898
10
-34.78710678118654
20
10.0
10
-39.5
20
10.0
42
0.41421356237309459
10
-40.0
20
9.5
10
-40.0
20
4.78710678118655
42
0.1989123673796688
10
-39.85355339059328
20
4.433553390593269
10
-38.54500000000002
20
3.125
10
-38.19999999999999
20
3.125
10
-38.19999999999999
20
5.000000000000001
42
-0.41421356237309653
10
-37.69999999999999
20
5.5
10
-36.76776695296638
20
5.499999999999999
42
-0.19891236737970117
10
-36.414213562373114
20
5.35355339059328
10
-34.04644660940673
20
2.985786437626899
42
-0.19891236737969528
10
-33.90000000000001
20
2.6322330470336306
10
-33.90000000000001
20
-2.6322330470336013
42
-0.1989123673797239
10
-34.04644660940673
20
-2.985786437626901
10
-36.41421356237311
20
-5.3535533905933
42
-0.19891236737967599
10
-36.76776695296638
20
-5.5
10
-37.69999999999999
20
-5.5000000000000036
42
-0.41421356237311996
10
-38.19999999999999
20
-5.0
10
-38.19999999999999
20
-3.125
10
-38.54500000000002
20
-3.125
10
-39.85355339059328
20
-4.433553390593302
42
0.19891236737968798
10
-40.0
20
-4.787106781186502
10
-40.0
20
-9.5
42
0.41421356237309115
10
-39.5
20
-10.0
10
-34.78710678118654
20
-10.0
42
0.19891236737960258
10
-34.43355339059326
20
-9.853553390593301
10
-33.125
20
-8.545000000000002
10
-33.125
20
-8.2
10
-35.0
20
-8.200000000000003
42
-0.4142135623730937
10
-35.5
20
-7.699999999999999
10
-35.5
20
-6.767766952966401
42
-0.19891236737971754
10
-35.35355339059328
20
-6.414213562373099
10
-32.9857864376269
20
-4.046446609406701
42
-0.19891236737965662
10
-32.63223304703362
20
-3.900000000000002
10
-27.3677669529664
20
-3.900000000000002
42
-0.1989123673796579
10
-27.0142135623731
20
-4.046446609406702
10
-24.6464466094067
20
-6.414213562373099
42
-0.19891236737965431
10
-24.5
20
-6.767766952966397
10
-24.499999999999996
20
-7.699999999999999
42
-0.41421356237308854
10
-25.0
20
-8.2
10
-26.875
20
-8.2
10
-26.875
20
-8.545000000000002
10
-25.566446609406697
20
-9.853553390593301
42
0.19891236737965734
10
-25.2128932188135
20
-10.0
10
-14.787106781186598
20
-10.0
42
0.19891236737965104
10
-14.4335533905933
20
-9.853553390593301
10
-13.125
20
-8.545000000000002
10
-13.125
20
-8.2
10
-15.0
20
-8.2
42
-0.41421356237308593
10
-15.5
20
-7.699999999999999
10
-15.5
20
-6.767766952966401
42
-0.19891236737963919
10
-15.353553390593298
20
-6.414213562373099
10
-12.9857864376269
20
-4.046446609406704
42
-0.19891236737967416
10
-12.632233047033598
20
-3.900000000000002
10
-7.367766952966399
20
-3.900000000000002
42
-0.19891236737963919
10
-7.014213562373101
20
-4.046446609406702
10
-4.646446609406702
20
-6.414213562373099
42
-0.19891236737965085
10
-4.5
20
-6.767766952966397
10
-4.499999999999993
20
-7.699999999999999
42
-0.41421356237309764
10
-5.0
20
-8.2
10
-6.875
20
-8.2
10
-6.875
20
-8.545000000000002
10
-5.566446609406697
20
-9.853553390593301
42
0.19891236737966356
10
-5.212893218813491
20
-10.0
10
5.212893218813399
20
-10.0
42
0.19891236737966778
10
5.566446609406697
20
-9.853553390593301
10
6.875
20
-8.545000000000002
10
6.875
20
-8.2
10
5.0
20
-8.200000000000003
42
-0.41421356237309764
10
4.5
20
-7.699999999999999
10
4.5
20
-6.767766952966401
42
-0.19891236737962015
10
4.646446609406702
20
-6.414213562373099
10
7.014213562373108
20
-4.046446609406704
42
-0.19891236737965765
10
7.367766952966399
20
-3.900000000000002
10
12.632233047033601
20
-3.899999999999997
42
-0.19891236737967266
10
12.9857864376269
20
-4.046446609406702
10
15.353553390593298
20
-6.414213562373099
42
-0.19891236737968743
10
15.500000000000007
20
-6.767766952966401
10
15.500000000000007
20
-7.699999999999999
42
-0.41421356237310936
10
15.0
20
-8.2
10
13.125
20
-8.2
10
13.125
20
-8.545000000000002
10
14.433553390593303
20
-9.853553390593301
42
0.19891236737966295
10
14.787106781186509
20
-10.0
10
25.212893218813406
20
-10.0
42
0.19891236737966317
10
25.566446609406697
20
-9.853553390593301
10
26.875
20
-8.545000000000002
10
26.875
20
-8.2
10
25.0
20
-8.20000000000001
42
-0.41421356237310153
10
24.5
20
-7.699999999999999
10
24.5
20
-6.767766952966401
42
-0.19891236737962015
10
24.646446609406695
20
-6.414213562373099
10
27.0142135623731
20
-4.046446609406704
42
-0.19891236737969711
10
27.367766952966406
20
-3.900000000000002
10
32.632233047033594
20
-3.8999999999999986
42
-0.19891236737965731
10
32.9857864376269
20
-4.046446609406702
10
35.353553390593305
20
-6.414213562373099
42
-0.19891236737965892
10
35.5
20
-6.767766952966401
10
35.5
20
-7.699999999999999
42
-0.41421356237307944
10
35.0
20
-8.2
10
33.125
20
-8.2
10
33.125
20
-8.545000000000002
10
34.4335533905933
20
-9.853553390593301
42
0.19891236737965828
10
34.787106781186495
20
-10.0
10
39.5
20
-10.0
42
0.41421356237307422
10
40.0
20
-9.5
10
40.0
20
-4.787106781186601
42
0.19891236737960319
10
39.853553390593305
20
-4.433553390593302
10
38.545
20
-3.125
10
38.2
20
-3.125
10
38.2
20
-5.0
42
-0.4142135623730846
10
37.7
20
-5.5
10
36.7677669529664
20
-5.499999999999998
42
-0.19891236737965293
10
36.41421356237311
20
-5.3535533905933
10
34.0464466094067
20
-2.9857864376269028
42
-0.19891236737961299
10
33.900000000000006
20
-2.6322330470336013
10
33.900000000000006
20
2.6322330470336297
42
-0.19891236737962775
10
34.0464466094067
20
2.985786437626899
10
36.41421356237311
20
5.353553390593278
42
-0.19891236737966192
10
36.7677669529664
20
5.5
10
37.7
20
5.499999999999999
42
-0.41421356237308526
10
38.2
20
5.0
10
38.2
20
3.125
10
38.545
20
3.125
10
39.853553390593305
20
4.433553390593269
42
0.19891236737961232
10
40.0
20
4.787106781186549
10
40.0
20
9.5
42
0.41421356237307683
10
39.5
20
10.0
10
34.787106781186495
20
10.0
42
0.19891236737967641
10
34.4335533905933
20
9.853553390593277
10
33.125
20
8.545
10
33.125
20
8.2
10
35.0
20
8.2
42
-0.41421356237314272
10
35.5
20
7.7
10
35.5
20
6.76776695296637
42
-0.19891236737957582
10
35.353553390593305
20
6.4142135623730905
10
32.9857864376269
20
4.046446609406732
42
-0.19891236737968465
10
32.632233047033594
20
3.9000000000000004
10
27.367766952966406
20
3.9000000000000012
42
-0.19891236737968154
10
27.0142135623731
20
4.04644660940672
10
24.646446609406695
20
6.4142135623730905
42
-0.19891236737962881
10
24.5
20
6.767766952966369
10
24.5
20
7.7
42
-0.41421356237306545
10
25.0
20
8.2
10
26.875
20
8.2
10
26.875
20
8.545
10
25.566446609406697
20
9.853553390593277
42
0.19891236737970897
10
25.212893218813406
20
10.0
10
14.787106781186509
20
10.0
42
0.19891236737967813
10
14.433553390593303
20
9.853553390593277
10
13.125
20
8.545
10
13.125
20
8.2
10
15.0
20
8.199999999999996
42
-0.41421356237310936
10
15.500000000000007
20
7.7
10
15.500000000000007
20
6.76776695296637
42
-0.19891236737960041
10
15.353553390593298
20
6.4142135623730905
10
12.9857864376269
20
4.046446609406731
42
-0.19891236737967877
10
12.632233047033601
20
3.9000000000000004
10
7.367766952966399
20
3.9000000000000004
42
-0.19891236737964127
10
7.014213562373108
20
4.04644660940672
10
4.646446609406702
20
6.41421356237309
42
-0.19891236737962892
10
4.5
20
6.767766952966369
10
4.5
20
7.7
42
-0.41421356237306545
10
5.0
20
8.2
10
6.875
20
8.2
10
6.875
20
8.545
10
5.566446609406697
20
9.853553390593277
42
0.19891236737971352
10
5.212893218813399
20
10.0
10
-5.212893218813491
20
10.0
42
0.19891236737969764
10
-5.566446609406697
20
9.853553390593277
10
-6.875
20
8.545
10
-6.875
20
8.2
10
-5.0
20
8.200000000000001
42
-0.41421356237310414
10
-4.5
20
7.7
10
-4.5
20
6.76776695296637
42
-0.19891236737961276
10
-4.646446609406702
20
6.4142135623730905
10
-7.014213562373101
20
4.046446609406726
42
-0.19891236737966422
10
-7.367766952966399
20
3.9000000000000004
10
-12.632233047033598
20
3.9000000000000004
42
-0.19891236737965939
10
-12.9857864376269
20
4.04644660940672
10
-15.353553390593298
20
6.41421356237309
42
-0.19891236737962512
10
-15.5
20
6.767766952966369
10
-15.5
20
7.7
42
-0.41421356237308526
10
-15.0
20
8.2
10
-13.125
20
8.2
10
-13.125
20
8.545
10
-14.4335533905933
20
9.853553390593277
42
0.19891236737970461
10
-14.787106781186598
20
10.0
10
-25.212893218813498
20
10.0
42
0.19891236737969278
10
-25.566446609406697
20
9.853553390593277
10
-26.875
20
8.545
10
-26.875
20
8.2
10
-25.0
20
8.200000000000001
42
-0.41421356237309764
10
-24.5
20
7.7
10
-24.5
20
6.76776695296637
42
-0.19891236737961979
10
-24.646446609406702
20
6.4142135623730905
10
-27.0142135623731
20
4.046446609406731
42
-0.1989123673796625
0
LWPOLYLINE
5
109
100
AcDbEntity
8
0
100
AcDbPolyline
90
24
70
1
43
0.0
10
-23.0
20
6.14644660940672
10
-23.0
20
7.7
42
-0.41421356237308493
10
-22.5
20
8.2
10
-17.5
20
8.200000000000001
42
-0.41421356237309948
10
-16.999999999999996
20
7.7
10
-16.999999999999996
20
6.14644660940675
42
0.1989123673796204
10
-16.853553390593298
20
5.79289321881348
10
-14.0464466094067
20
2.985786437626899
42
-0.19891236737961909
10
-13.899999999999999
20
2.6322330470336297
10
-13.899999999999991
20
-2.6322330470336013
42
-0.19891236737965165
10
-14.0464466094067
20
-2.985786437626901
10
-16.853553390593298
20
-5.792893218813502
42
0.19891236737966925
10
-16.999999999999996
20
-6.1464466094066985
10
-16.999999999999993
20
-7.699999999999999
42
-0.41421356237308721
10
-17.5
20
-8.2
10
-22.5
20
-8.2
42
-0.41421356237308593
10
-23.0
20
-7.699999999999999
10
-23.0
20
-6.1464466094066985
42
0.19891236737966767
10
-23.146446609406695
20
-5.792893218813502
10
-25.953553390593296
20
-2.985786437626901
42
-0.1989123673796579
10
-26.099999999999998
20
-2.6322330470336013
10
-26.099999999999998
20
2.6322330470336297
42
-0.19891236737964565
10
-25.9535533905933
20
2.985786437626899
10
-23.146446609406695
20
5.79289321881345
42
0.1989123673796149
0
LWPOLYLINE
5
110
100
AcDbEntity
8
0
100
AcDbPolyline
90
24
70
1
43
0.0
10
-3.0
20
6.14644660940672
10
-3.0
20
7.7
42
-0.4142135623730947
10
-2.5
20
8.2
10
2.5
20
8.200000000000001
42
-0.41421356237309698
10
3.0
20
7.7
10
3.0
20
6.14644660940675
42
0.19891236737966403
10
3.146446609406709
20
5.79289321881348
10
5.9535533905933065
20
2.985786437626901
42
-0.1989123673796355
10
6.100000000000001
20
2.6322330470336297
10
6.100000000000001
20
-2.6322330470336013
42
-0.19891236737962015
10
5.9535533905933065
20
-2.985786437626901
10
3.146446609406709
20
-5.792893218813502
42
0.19891236737969137
10
3.0
20
-6.1464466094066985
10
3.0
20
-7.699999999999999
42
-0.41421356237309631
10
2.5
20
-8.2
10
-2.5
20
-8.200000000000003
42
-0.41421356237307683
10
-3.0
20
-7.699999999999999
10
-3.0
20
-6.1464466094066985
42
0.19891236737968879
10
-3.146446609406702
20
-5.792893218813502
10
-5.953553390593299
20
-2.985786437626901
42
-0.19891236737965512
10
-6.100000000000001
20
-2.6322330470335977
10
-6.100000000000001
20
2.6322330470336297
42
-0.19891236737964391
10
-5.953553390593299
20
2.985786437626899
10
-3.146446609406702
20
5.79289321881345
42
0.19891236737963802
0
LWPOLYLINE
5
111
100
AcDbEntity
8
0
100
AcDbPolyline
90
24
70
1
43
0.0
10
17.0
20
6.14644660940672
10
17.000000000000014
20
7.7
42
-0.41421356237308854
10
17.5
20
8.2
10
22.5
20
8.199999999999996
42
-0.41421356237310936
10
23.000000000000007
20
7.7
10
23.000000000000007
20
6.14644660940675
42
0.19891236737964338
10
23.14644660940671
20
5.79289321881348
10
25.9535533905933
20
2.9857864376268983
42
-0.19891236737965914
10
26.099999999999994
20
2.6322330470336306
10
26.099999999999994
20
-2.6322330470336013
42
-0.19891236737958784
10
25.9535533905933
20
-2.985786437626901
10
23.14644660940671
20
-5.792893218813502
42
0.19891236737966925
10
23.000000000000007
20
-6.1464466094066985
10
23.000000000000007
20
-7.699999999999999
42
-0.41421356237307944
10
22.5
20
-8.2
10
17.500000000000007
20
-8.200000000000003
42
-0.41421356237305601
10
17.0
20
-7.699999999999999
10
17.0
20
-6.1464466094066985
42
0.19891236737970097
10
16.853553390593305
20
-5.792893218813502
10
14.0464466094067
20
-2.985786437626901
42
-0.19891236737965892
10
13.900000000000006
20
-2.6322330470336013
10
13.900000000000006
20
2.6322330470336297
42
-0.19891236737962775
10
14.0464466094067
20
2.985786437626899
10
16.853553390593305
20
5.79289321881345
42
0.19891236737962764
0
CIRCLE
5
112
100
AcDbEntity
8
0
100
AcDbCircle
10
-30.0
20
-1.7763568394002505e-15
30
0
40
2.1000000000000014
210
0
220
-0
230
1
0
CIRCLE
5
113
100
AcDbEntity
8
0
100
AcDbCircle
10
-9.999999999999996
20
-1.7763568394002505e-15
30
0
40
2.1000000000000032
210
0
220
-0
230
1
0
CIRCLE
5
114
100
AcDbEntity
8
0
100
AcDbCircle
10
10.000000000000007
20
-1.4210854715202004e-14
30
0
40
2.1000000000000081
210
0
220
-0
230
1
0
CIRCLE
5
115
100
AcDbEntity
8
0
100
AcDbCircle
10
30.000000000000014
20
-1.5987211554602254e-14
30
0
40
2.0999999999999996
210
0
220
-0
230
1
0
ENDSEC
0
SECTION
2
OBJECTS
0
DICTIONARY
5
C
100
AcDbDictionary
3
ACAD_GROUP
350
D
3
ACAD_MLINESTYLE
350
17
0
DICTIONARY
5
D
100
AcDbDictionary
0
DICTIONARY
5
1A
330
C
100
AcDbDictionary
0
DICTIONARY
5
17
100
AcDbDictionary
0
ENDSEC
0
EOF
