0
SECTION
2
HEADER
9
$INSUNITS
70
4
9
$ACADVER
1
AC1014
9
$HANDSEED
5
FFFF
0
ENDSEC
0
SECTION
2
TABLES
0
TABLE
2
VPORT
5
8
100
AcDbSymbolTable
0
ENDTAB
0
TABLE
2
LTYPE
5
5
100
AcDbSymbolTable
0
LTYPE
5
14
100
AcDbSymbolTableRecord
100
AcDbLinetypeTableRecord
2
BYBLOCK
70
0
0
LTYPE
5
15
100
AcDbSymbolTableRecord
100
AcDbLinetypeTableRecord
2
BYLAYER
70
0
0
LTYPE
5
16
100
AcDbSymbolTableRecord
100
AcDbLinetypeTableRecord
2
DASHED
70
0
3
Dashed __ __ __ __ __ __ __ __ __ __ __ __ __ _
72
65
73
2
40
0.75
49
0.5
74
0
49
-0.25
74
0
0
ENDTAB
0
TABLE
2
LAYER
5
2
100
AcDbSymbolTable
70
2
0
LAYER
5
50
100
AcDbSymbolTableRecord
100
AcDbLayerTableRecord
2
0
70
0
62
7
6
CONTINUOUS
0
ENDTAB
0
TABLE
2
STYLE
5
3
100
AcDbSymbolTable
70
1
0
STYLE
5
11
100
AcDbSymbolTableRecord
100
AcDbTextStyleTableRecord
2
STANDARD
70
0
0
ENDTAB
0
TABLE
2
VIEW
5
6
100
AcDbSymbolTable
70
0
0
ENDTAB
0
TABLE
2
UCS
5
7
100
AcDbSymbolTable
70
0
0
ENDTAB
0
TABLE
2
APPID
5
9
100
AcDbSymbolTable
70
2
0
APPID
5
12
100
AcDbSymbolTableRecord
100
AcDbRegAppTableRecord
2
ACAD
70
0
0
ENDTAB
0
TABLE
2
DIMSTYLE
5
A
100
AcDbSymbolTable
70
1
0
ENDTAB
0
TABLE
2
BLOCK_RECORD
5
1
100
AcDbSymbolTable
70
1
0
BLOCK_RECORD
5
1F
100
AcDbSymbolTableRecord
100
AcDbBlockTableRecord
2
*MODEL_SPACE
0
BLOCK_RECORD
5
1B
100
AcDbSymbolTableRecord
100
AcDbBlockTableRecord
2
*PAPER_SPACE
0
ENDTAB
0
ENDSEC
0
SECTION
2
BLOCKS
0
BLOCK
5
20
100
AcDbEntity
100
AcDbBlockBegin
2
*MODEL_SPACE
0
ENDBLK
5
21
100
AcDbEntity
100
AcDbBlockEnd
0
BLOCK
5
1C
100
AcDbEntity
100
AcDbBlockBegin
2
*PAPER_SPACE
0
ENDBLK
5
1D
100
AcDbEntity
100
AcDbBlockEnd
0
ENDSEC
0
SECTION
2
ENTITIES
0
LWPOLYLINE
5
100
100
AcDbEntity
8
0
100
AcDbPolyline
90
168
70
1
43
0.0
10
7.014213562373101
20
14.0464466094067
10
4.646446609406695
20
16.4142135623731
42
-0.19891236737965037
10
4.5
20
16.767766952966397
10
4.5
20
17.699999999999996
42
-0.41421356237312884
10
5.0
20
18.200000000000003
10
6.875
20
18.200000000000003
10
6.875
20
18.54500000000001
10
5.566446609406697
20
19.853553390593305
42
0.19891236737966217
10
5.212893218813399
20
20.0
10
-5.212893218813505
20
20.0
42
0.19891236737972165
10
-5.566446609406697
20
19.853553390593305
10
-6.875
20
18.54500000000001
10
-6.875
20
18.200000000000003
10
-5.0
20
18.200000000000003
42
-0.41421356237309503
10
-4.5
20
17.700000000000003
10
-4.5
20
16.767766952966397
42
-0.19891236737966284
10
-4.646446609406702
20
16.4142135623731
10
-7.014213562373108
20
14.0464466094067
42
-0.1989123673796333
10
-7.367766952966399
20
13.899999999999999
10
-12.632233047033601
20
13.899999999999999
42
-0.19891236737962212
10
-12.9857864376269
20
14.0464466094067
10
-15.353553390593298
20
16.414213562373092
42
-0.19891236737963791
10
-15.500000000000007
20
16.767766952966397
10
-15.500000000000007
20
17.700000000000003
42
-0.41421356237308982
10
-15.0
20
18.200000000000003
10
-13.125
20
18.200000000000003
10
-13.125
20
18.54500000000001
10
-14.433553390593303
20
19.853553390593305
42
0.19891236737967863
10
-14.787106781186601
20
20.0
10
-19.5
20
20.0
42
0.41421356237306384
10
-20.0
20
19.5
10
-20.0
20
14.787106781186509
42
0.19891236737964554
10
-19.853553390593305
20
14.433553390593303
10
-18.54500000000001
20
13.125
10
-18.200000000000003
20
13.125
10
-18.200000000000003
20
15.0
42
-0.41421356237309503
10
-17.700000000000003
20
15.5
10
-16.767766952966397
20
15.5
42
-0.1989123673796169
10
-16.4142135623731
20
15.353553390593298
10
-14.0464466094067
20
12.9857864376269
42
-0.19891236737962015
10
-13.900000000000006
20
12.632233047033601
10
-13.900000000000006
20
7.367766952966399
42
-0.19891236737966214
10
-14.0464466094067
20
7.014213562373101
10
-16.414213562373106
20
4.646446609406702
42
-0.19891236737959325
10
-16.767766952966397
20
4.500000000000007
10
-17.699999999999996
20
4.500000000000007
42
-0.41421356237308204
10
-18.200000000000003
20
5.0
10
-18.200000000000003
20
6.875
10
-18.54500000000001
20
6.875
10
-19.853553390593305
20
5.566446609406697
42
0.19891236737961787
10
-20.0
20
5.212893218813399
10
-20.0
20
-5.212893218813498
42
0.19891236737966286
10
-19.853553390593305
20
-5.566446609406697
10
-18.54500000000001
20
-6.875
10
-18.200000000000003
20
-6.875
10
-18.200000000000003
20
-5.0
42
-0.41421356237309764
10
-17.700000000000003
20
-4.4999999999999964
10
-16.767766952966397
20
-4.4999999999999964
42
-0.1989123673796438
10
-16.4142135623731
20
-4.646446609406695
10
-14.0464466094067
20
-7.014213562373101
42
-0.19891236737962581
10
-13.900000000000006
20
-7.367766952966399
10
-13.900000000000006
20
-12.632233047033601
42
-0.19891236737966886
10
-14.0464466094067
20
-12.9857864376269
10
-16.4142135623731
20
-15.3535533905933
42
-0.19891236737961529
10
-16.767766952966397
20
-15.499999999999996
10
-17.699999999999996
20
-15.499999999999993
42
-0.41421356237308204
10
-18.200000000000003
20
-15.0
10
-18.200000000000003
20
-13.125
10
-18.54500000000001
20
-13.125
10
-19.853553390593305
20
-14.4335533905933
42
0.19891236737961454
10
-20.0
20
-14.787106781186498
10
-20.0
20
-19.5
42
0.41421356237308332
10
-19.5
20
-19.999999999999996
10
-14.787106781186601
20
-20.0
42
0.19891236737965579
10
-14.433553390593303
20
-19.8535533905933
10
-13.125
20
-18.545
10
-13.125
20
-18.2
10
-15.0
20
-18.200000000000003
42
-0.41421356237310281
10
-15.500000000000007
20
-17.699999999999996
10
-15.500000000000007
20
-16.7677669529664
42
-0.19891236737973059
10
-15.353553390593298
20
-16.4142135623731
10
-12.9857864376269
20
-14.0464466094067
42
-0.19891236737964241
10
-12.632233047033601
20
-13.899999999999999
10
-7.367766952966399
20
-13.899999999999999
42
-0.19891236737965604
10
-7.014213562373108
20
-14.0464466094067
10
-4.646446609406702
20
-16.4142135623731
42
-0.19891236737970566
10
-4.5
20
-16.7677669529664
10
-4.5
20
-17.699999999999996
42
-0.41421356237309764
10
-5.0
20
-18.2
10
-6.875
20
-18.2
10
-6.875
20
-18.545
10
-5.566446609406697
20
-19.853553390593298
42
0.19891236737967105
10
-5.212893218813505
20
-20.0
10
5.212893218813399
20
-20.0
42
0.19891236737965515
10
5.566446609406697
20
-19.853553390593298
10
6.875
20
-18.545
10
6.875
20
-18.2
10
5.0
20
-18.200000000000003
42
-0.41421356237310025
10
4.5
20
-17.699999999999996
10
4.5
20
-16.7677669529664
42
-0.19891236737967774
10
4.646446609406702
20
-16.4142135623731
10
7.014213562373101
20
-14.0464466094067
42
-0.19891236737966064
10
7.367766952966399
20
-13.899999999999999
10
12.632233047033598
20
-13.899999999999999
42
-0.19891236737964807
10
12.9857864376269
20
-14.0464466094067
10
15.353553390593298
20
-16.4142135623731
42
-0.19891236737966203
10
15.5
20
-16.7677669529664
10
15.5
20
-17.699999999999996
42
-0.41421356237308982
10
15.0
20
-18.2
10
13.125
20
-18.2
10
13.125
20
-18.545
10
14.4335533905933
20
-19.853553390593298
42
0.19891236737966539
10
14.787106781186495
20
-20.0
10
19.499999999999996
20
-20.0
42
0.41421356237310025
10
20.0
20
-19.5
10
20.0
20
-14.787106781186598
42
0.19891236737966056
10
19.8535533905933
20
-14.4335533905933
10
18.545
20
-13.125
10
18.2
20
-13.125
10
18.199999999999996
20
-15.0
42
-0.41421356237309631
10
17.7
20
-15.499999999999998
10
16.7677669529664
20
-15.499999999999996
42
-0.19891236737964219
10
16.414213562373096
20
-15.3535533905933
10
14.0464466094067
20
-12.9857864376269
42
-0.19891236737965673
10
13.899999999999999
20
-12.632233047033601
10
13.899999999999999
20
-7.367766952966399
42
-0.19891236737966861
10
14.0464466094067
20
-7.014213562373101
10
16.414213562373096
20
-4.646446609406702
42
-0.19891236737966447
10
16.7677669529664
20
-4.4999999999999964
10
17.7
20
-4.4999999999999964
42
-0.41421356237309764
10
18.2
20
-5.0
10
18.2
20
-6.875
10
18.545
20
-6.875
10
19.8535533905933
20
-5.566446609406697
42
0.19891236737965901
10
20.0
20
-5.212893218813505
10
20.0
20
5.212893218813399
42
0.19891236737965823
10
19.8535533905933
20
5.566446609406697
10
18.545
20
6.875
10
18.2
20
6.875
10
18.2
20
5.0
42
-0.41421356237309503
10
17.7
20
4.5
10
16.7677669529664
20
4.5
42
-0.19891236737963133
10
16.414213562373096
20
4.646446609406702
10
14.046446609406694
20
7.014213562373101
42
-0.19891236737965037
10
13.899999999999999
20
7.367766952966399
10
13.899999999999991
20
12.632233047033601
42
-0.19891236737965362
10
14.0464466094067
20
12.9857864376269
10
16.414213562373096
20
15.353553390593298
42
-0.1989123673796723
10
16.7677669529664
20
15.5
10
17.7
20
15.5
42
-0.41421356237309503
10
18.2
20
15.0
10
18.2
20
13.125
10
18.545
20
13.125
10
19.8535533905933
20
14.433553390593303
42
0.19891236737964224
10
20.0
20
14.787106781186509
10
20.0
20
19.5
42
0.4142135623730846
10
19.499999999999996
20
20.0
10
14.787106781186598
20
20.0
42
0.1989123673797121
10
14.4335533905933
20
19.853553390593305
10
13.125
20
18.54500000000001
10
13.125
20
18.200000000000003
10
15.0
20
18.200000000000003
42
-0.41421356237310542
10
15.5
20
17.700000000000003
10
15.5
20
16.767766952966397
42
-0.19891236737966123
10
15.353553390593298
20
16.4142135623731
10
12.9857864376269
20
14.0464466094067
42
-0.19891236737963791
10
12.632233047033598
20
13.899999999999999
10
7.367766952966399
20
13.899999999999999
42
-0.19891236737963006
0
LWPOLYLINE
5
101
100
AcDbEntity
8
0
100
AcDbPolyline
90
64
70
1
43
0.0
10
7.307106781186597
20
6.100000000000001
10
12.632233047033598
20
6.100000000000001
42
-0.19891236737963688
10
12.9857864376269
20
5.953553390593299
10
15.7928932188134
20
3.146446609406709
42
0.1989123673795736
10
16.1464466094067
20
3.0
10
17.7
20
3.0
42
-0.41421356237309243
10
18.2
20
2.5
10
18.2
20
-2.5
42
-0.4142135623730534
10
17.7
20
-3.0
10
16.1464466094067
20
-3.0
42
0.19891236737969378
10
15.792893218813497
20
-3.146446609406695
10
12.9857864376269
20
-5.953553390593299
42
-0.19891236737965037
10
12.632233047033598
20
-6.099999999999998
10
7.307106781186597
20
-6.099999999999998
42
0.198912367379632
10
6.953553390593299
20
-6.246446609406696
10
6.2464466094067035
20
-6.953553390593296
42
0.19891236737957593
10
6.100000000000001
20
-7.307106781186601
10
6.100000000000001
20
-12.632233047033601
42
-0.19891236737967946
10
5.953553390593299
20
-12.9857864376269
10
3.146446609406702
20
-15.7928932188135
42
0.19891236737962498
10
3.0
20
-16.1464466094067
10
3.0
20
-17.699999999999996
42
-0.41421356237309764
10
2.5
20
-18.2
10
-2.5
20
-18.199999999999996
42
-0.41421356237310542
10
-3.0
20
-17.699999999999996
10
-3.0
20
-16.1464466094067
42
0.19891236737960102
10
-3.146446609406709
20
-15.7928932188135
10
-5.9535533905933065
20
-12.9857864376269
42
-0.19891236737966886
10
-6.100000000000001
20
-12.632233047033601
10
-6.100000000000001
20
-7.307106781186601
42
0.19891236737964549
10
-6.2464466094067035
20
-6.953553390593296
10
-6.953553390593299
20
-6.246446609406696
42
0.19891236737965823
10
-7.307106781186604
20
-6.099999999999998
10
-12.632233047033601
20
-6.100000000000001
42
-0.19891236737965362
10
-12.9857864376269
20
-5.953553390593296
10
-15.792893218813504
20
-3.146446609406695
42
0.1989123673796675
10
-16.146446609406702
20
-3.0
10
-17.699999999999996
20
-3.0000000000000036
42
-0.41421356237308721
10
-18.200000000000003
20
-2.5
10
-18.200000000000003
20
2.5
42
-0.41421356237307422
10
-17.700000000000003
20
3.0
10
-16.146446609406702
20
3.0
42
0.19891236737958409
10
-15.792893218813404
20
3.146446609406709
10
-12.9857864376269
20
5.953553390593299
42
-0.19891236737963308
10
-12.632233047033601
20
6.100000000000001
10
-7.307106781186604
20
6.100000000000001
42
0.19891236737958246
10
-6.953553390593299
20
6.2464466094067035
10
-6.24644660940681
20
6.9535533905932
42
0.19891236737976747
10
-6.100000000000001
20
7.307106781186498
10
-6.100000000000001
20
12.632233047033601
42
-0.19891236737966284
10
-5.9535533905933065
20
12.9857864376269
10
-3.146446609406709
20
15.792893218813504
42
0.19891236737961726
10
-3.0
20
16.146446609406695
10
-3.0
20
17.700000000000003
42
-0.41421356237309503
10
-2.5
20
18.200000000000003
10
2.5
20
18.200000000000003
42
-0.41421356237308721
10
3.0
20
17.700000000000003
10
3.0
20
16.1464466094068
42
0.19891236737965368
10
3.146446609406702
20
15.792893218813504
10
5.953553390593292
20
12.985786437626892
42
-0.19891236737962834
10
6.100000000000001
20
12.632233047033601
10
6.100000000000001
20
7.307106781186604
42
0.19891236737964085
10
6.2464466094067035
20
6.953553390593299
10
6.953553390593299
20
6.2464466094067035
42
0.19891236737963691
0
CIRCLE
5
102
100
AcDbEntity
8
0
100
AcDbCircle
10
-9.999999999999993
20
10.0
30
-1.1102230246251565e-15
40
2.0999999999999979
210
-1.7273790101383117e-16
220
5.2627728192280235e-16
230
1
0
CIRCLE
5
103
100
AcDbEntity
8
0
100
AcDbCircle
10
9.999999999999996
20
-10.000000000000004
30
0
40
2.1000000000000001
210
0
220
0
230
1
0
CIRCLE
5
104
100
AcDbEntity
8
0
100
AcDbCircle
10
-10.000000000000007
20
-10.0
30
0
40
2.1000000000000001
210
0
220
0
230
1
0
CIRCLE
5
105
100
AcDbEntity
8
0
100
AcDbCircle
10
10.000000000000018
20
10.0
30
0
40
2.0999999999999992
210
9.4377150946582409e-16
220
2.4275571330133005e-17
230
1
0
LWPOLYLINE
5
106
100
AcDbEntity
8
0
100
AcDbPolyline
90
168
70
1
43
0.0
10
7.014213562373101
20
14.0464466094067
10
4.646446609406702
20
16.4142135623731
42
-0.19891236737965362
10
4.5
20
16.767766952966397
10
4.499999999999993
20
17.700000000000003
42
-0.41421356237312101
10
5.0
20
18.200000000000003
10
6.875
20
18.200000000000003
10
6.875
20
18.54500000000001
10
5.566446609406697
20
19.853553390593305
42
0.19891236737965989
10
5.212893218813399
20
20.0
10
-5.212893218813505
20
20.0
42
0.19891236737972165
10
-5.566446609406697
20
19.853553390593305
10
-6.875
20
18.54500000000001
10
-6.875
20
18.200000000000003
10
-5.0
20
18.200000000000003
42
-0.41421356237309503
10
-4.5
20
17.700000000000003
10
-4.5
20
16.767766952966397
42
-0.19891236737966608
10
-4.646446609406702
20
16.4142135623731
10
-7.014213562373101
20
14.0464466094067
42
-0.19891236737964116
10
-7.367766952966399
20
13.899999999999999
10
-12.632233047033601
20
13.899999999999999
42
-0.19891236737962673
10
-12.9857864376269
20
14.0464466094067
10
-15.353553390593298
20
16.414213562373092
42
-0.19891236737964116
10
-15.500000000000007
20
16.76776695296639
10
-15.500000000000007
20
17.700000000000003
42
-0.41421356237307944
10
-15.0
20
18.200000000000003
10
-13.125
20
18.200000000000003
10
-13.125
20
18.54500000000001
10
-14.433553390593303
20
19.853553390593305
42
0.19891236737967863
10
-14.787106781186601
20
20.0
10
-19.5
20
20.0
42
0.41421356237306384
10
-20.0
20
19.5
10
-20.0
20
14.787106781186509
42
0.19891236737964554
10
-19.853553390593305
20
14.433553390593303
10
-18.54500000000001
20
13.125
10
-18.200000000000003
20
13.125
10
-18.200000000000003
20
15.0
42
-0.41421356237309503
10
-17.700000000000003
20
15.5
10
-16.767766952966397
20
15.5
42
-0.19891236737962348
10
-16.4142135623731
20
15.353553390593298
10
-14.0464466094067
20
12.9857864376269
42
-0.19891236737960122
10
-13.900000000000006
20
12.632233047033601
10
-13.900000000000006
20
7.367766952966399
42
-0.19891236737966284
10
-14.0464466094067
20
7.014213562373101
10
-16.414213562373106
20
4.646446609406702
42
-0.19891236737959325
10
-16.767766952966397
20
4.500000000000007
10
-17.699999999999996
20
4.500000000000007
42
-0.41421356237308204
10
-18.200000000000003
20
5.0
10
-18.200000000000003
20
6.875
10
-18.54500000000001
20
6.875
10
-19.853553390593305
20
5.566446609406697
42
0.19891236737961066
10
-20.0
20
5.212893218813399
10
-20.0
20
-5.212893218813498
42
0.1989123673796668
10
-19.853553390593305
20
-5.566446609406697
10
-18.54500000000001
20
-6.875
10
-18.200000000000003
20
-6.875
10
-18.200000000000003
20
-5.0
42
-0.41421356237309764
10
-17.700000000000003
20
-4.4999999999999964
10
-16.767766952966397
20
-4.4999999999999964
42
-0.1989123673796438
10
-16.4142135623731
20
-4.646446609406695
10
-14.0464466094067
20
-7.014213562373101
42
-0.19891236737962581
10
-13.900000000000006
20
-7.367766952966399
10
-13.900000000000006
20
-12.632233047033601
42
-0.19891236737966886
10
-14.0464466094067
20
-12.9857864376269
10
-16.4142135623731
20
-15.3535533905933
42
-0.19891236737961529
10
-16.767766952966397
20
-15.499999999999996
10
-17.699999999999996
20
-15.499999999999993
42
-0.41421356237308204
10
-18.200000000000003
20
-15.0
10
-18.200000000000003
20
-13.125
10
-18.54500000000001
20
-13.125
10
-19.853553390593305
20
-14.4335533905933
42
0.19891236737961812
10
-20.0
20
-14.787106781186498
10
-20.0
20
-19.5
42
0.41421356237309115
10
-19.5
20
-19.999999999999993
10
-14.787106781186601
20
-20.0
42
0.19891236737966372
10
-14.433553390593296
20
-19.853553390593305
10
-13.125
20
-18.545
10
-13.125
20
-18.2
10
-15.0
20
-18.200000000000003
42
-0.41421356237310281
10
-15.500000000000007
20
-17.699999999999996
10
-15.500000000000007
20
-16.7677669529664
42
-0.19891236737973059
10
-15.353553390593298
20
-16.4142135623731
10
-12.9857864376269
20
-14.0464466094067
42
-0.19891236737964241
10
-12.632233047033601
20
-13.899999999999999
10
-7.367766952966399
20
-13.899999999999999
42
-0.19891236737965604
10
-7.014213562373108
20
-14.0464466094067
10
-4.646446609406702
20
-16.4142135623731
42
-0.19891236737970935
10
-4.5
20
-16.7677669529664
10
-4.500000000000014
20
-17.699999999999996
42
-0.41421356237309892
10
-5.0
20
-18.2
10
-6.875
20
-18.2
10
-6.875
20
-18.545
10
-5.566446609406697
20
-19.853553390593298
42
0.19891236737967105
10
-5.212893218813505
20
-20.0
10
5.212893218813399
20
-20.0
42
0.19891236737965515
10
5.566446609406697
20
-19.853553390593298
10
6.875
20
-18.545
10
6.875
20
-18.2
10
5.0
20
-18.200000000000003
42
-0.41421356237310025
10
4.5
20
-17.699999999999996
10
4.5
20
-16.7677669529664
42
-0.19891236737967416
10
4.646446609406702
20
-16.4142135623731
10
7.014213562373101
20
-14.0464466094067
42
-0.198912367379667
10
7.367766952966399
20
-13.899999999999999
10
12.632233047033598
20
-13.899999999999999
42
-0.19891236737965201
10
12.9857864376269
20
-14.0464466094067
10
15.353553390593298
20
-16.4142135623731
42
-0.19891236737966722
10
15.5
20
-16.7677669529664
10
15.5
20
-17.699999999999996
42
-0.41421356237309243
10
15.0
20
-18.2
10
13.125
20
-18.2
10
13.125
20
-18.545
10
14.4335533905933
20
-19.853553390593298
42
0.19891236737966539
10
14.787106781186495
20
-20.0
10
19.499999999999996
20
-20.0
42
0.41421356237310025
10
20.0
20
-19.5
10
20.0
20
-14.787106781186598
42
0.19891236737966056
10
19.8535533905933
20
-14.4335533905933
10
18.545
20
-13.125
10
18.2
20
-13.125
10
18.199999999999996
20
-15.0
42
-0.41421356237309892
10
17.7
20
-15.499999999999998
10
16.7677669529664
20
-15.499999999999996
42
-0.19891236737963583
10
16.414213562373096
20
-15.3535533905933
10
14.0464466094067
20
-12.9857864376269
42
-0.19891236737965443
10
13.899999999999999
20
-12.632233047033601
10
13.899999999999991
20
-7.367766952966399
42
-0.19891236737967588
10
14.0464466094067
20
-7.014213562373101
10
16.414213562373096
20
-4.646446609406702
42
-0.19891236737966447
10
16.7677669529664
20
-4.4999999999999964
10
17.7
20
-4.4999999999999964
42
-0.41421356237309764
10
18.2
20
-5.0
10
18.2
20
-6.875
10
18.545
20
-6.875
10
19.8535533905933
20
-5.566446609406697
42
0.19891236737965901
10
20.0
20
-5.212893218813505
10
20.0
20
5.212893218813399
42
0.19891236737965823
10
19.8535533905933
20
5.566446609406697
10
18.545
20
6.875
10
18.2
20
6.875
10
18.2
20
5.0
42
-0.41421356237309503
10
17.7
20
4.5
10
16.7677669529664
20
4.5
42
-0.19891236737962972
10
16.414213562373096
20
4.646446609406702
10
14.0464466094067
20
7.014213562373101
42
-0.19891236737965143
10
13.899999999999999
20
7.367766952966399
10
13.899999999999999
20
12.632233047033601
42
-0.19891236737966159
10
14.0464466094067
20
12.9857864376269
10
16.414213562373096
20
15.353553390593298
42
-0.19891236737966447
10
16.7677669529664
20
15.5
10
17.7
20
15.499999999999986
42
-0.41421356237309764
10
18.2
20
15.0
10
18.2
20
13.125
10
18.545
20
13.125
10
19.8535533905933
20
14.433553390593303
42
0.19891236737964224
10
20.0
20
14.787106781186509
10
20.0
20
19.5
42
0.4142135623730846
10
19.499999999999996
20
20.0
10
14.787106781186598
20
20.0
42
0.1989123673797121
10
14.4335533905933
20
19.853553390593305
10
13.125
20
18.54500000000001
10
13.125
20
18.200000000000003
10
15.0
20
18.200000000000003
42
-0.41421356237309503
10
15.5
20
17.700000000000003
10
15.500000000000004
20
16.767766952966397
42
-0.19891236737966608
10
15.353553390593298
20
16.4142135623731
10
12.985786437626903
20
14.0464466094067
42
-0.19891236737964577
10
12.632233047033598
20
13.899999999999999
10
7.367766952966399
20
13.899999999999999
42
-0.19891236737963389
0
LWPOLYLINE
5
107
100
AcDbEntity
8
0
100
AcDbPolyline
90
64
70
1
43
0.0
10
7.307106781186597
20
6.100000000000001
10
12.632233047033594
20
6.100000000000001
42
-0.19891236737962903
10
12.9857864376269
20
5.953553390593299
10
15.7928932188134
20
3.146446609406709
42
0.1989123673795736
10
16.1464466094067
20
3.0
10
17.7
20
3.000000000000007
42
-0.41421356237308982
10
18.2
20
2.5
10
18.2
20
-2.5
42
-0.41421356237306384
10
17.7
20
-3.0
10
16.1464466094067
20
-3.0
42
0.19891236737969378
10
15.792893218813497
20
-3.146446609406695
10
12.9857864376269
20
-5.953553390593296
42
-0.19891236737965362
10
12.632233047033601
20
-6.099999999999998
10
7.307106781186597
20
-6.099999999999998
42
0.19891236737962878
10
6.953553390593299
20
-6.246446609406693
10
6.2464466094067035
20
-6.953553390593296
42
0.1989123673795736
10
6.100000000000001
20
-7.307106781186597
10
6.100000000000001
20
-12.632233047033601
42
-0.19891236737967544
10
5.953553390593299
20
-12.9857864376269
10
3.146446609406702
20
-15.7928932188135
42
0.19891236737962498
10
3.0
20
-16.1464466094067
10
3.0
20
-17.699999999999996
42
-0.41421356237310025
10
2.5
20
-18.2
10
-2.5
20
-18.199999999999996
42
-0.41421356237310542
10
-3.0
20
-17.699999999999996
10
-3.0
20
-16.1464466094067
42
0.19891236737960102
10
-3.146446609406709
20
-15.7928932188135
10
-5.9535533905933065
20
-12.9857864376269
42
-0.19891236737966886
10
-6.100000000000001
20
-12.632233047033601
10
-6.100000000000001
20
-7.307106781186601
42
0.19891236737964549
10
-6.2464466094067035
20
-6.953553390593296
10
-6.953553390593299
20
-6.246446609406696
42
0.19891236737965823
10
-7.307106781186604
20
-6.099999999999998
10
-12.632233047033601
20
-6.100000000000001
42
-0.19891236737965362
10
-12.9857864376269
20
-5.953553390593296
10
-15.792893218813504
20
-3.146446609406695
42
0.19891236737965501
10
-16.146446609406702
20
-2.999999999999993
10
-17.699999999999996
20
-3.0000000000000036
42
-0.41421356237308721
10
-18.200000000000003
20
-2.5
10
-18.200000000000003
20
2.5
42
-0.41421356237307422
10
-17.700000000000003
20
3.0
10
-16.146446609406702
20
3.0
42
0.19891236737957782
10
-15.792893218813404
20
3.1464466094067163
10
-12.9857864376269
20
5.953553390593299
42
-0.19891236737963919
10
-12.632233047033601
20
6.100000000000001
10
-7.307106781186604
20
6.100000000000001
42
0.19891236737958246
10
-6.953553390593299
20
6.2464466094067035
10
-6.24644660940681
20
6.9535533905932
42
0.19891236737976514
10
-6.100000000000001
20
7.307106781186491
10
-6.100000000000001
20
12.632233047033601
42
-0.19891236737967405
10
-5.9535533905933065
20
12.9857864376269
10
-3.146446609406709
20
15.792893218813504
42
0.19891236737961726
10
-3.0
20
16.146446609406695
10
-3.0
20
17.700000000000003
42
-0.41421356237309503
10
-2.5
20
18.200000000000003
10
2.5
20
18.200000000000003
42
-0.4142135623730846
10
3.0
20
17.700000000000003
10
3.0
20
16.1464466094068
42
0.19891236737965368
10
3.146446609406702
20
15.792893218813504
10
5.953553390593299
20
12.9857864376269
42
-0.19891236737961554
10
6.100000000000001
20
12.632233047033601
10
6.100000000000001
20
7.307106781186604
42
0.19891236737964085
10
6.2464466094067035
20
6.953553390593299
10
6.953553390593299
20
6.2464466094067035
42
0.19891236737963691
0
CIRCLE
5
108
100
AcDbEntity
8
0
100
AcDbCircle
10
-9.999999999999993
20
10.0
30
0
40
2.0999999999999979
210
0
220
-0
230
1
0
CIRCLE
5
109
100
AcDbEntity
8
0
100
AcDbCircle
10
9.999999999999996
20
-10.000000000000004
30
0
40
2.1000000000000001
210
0
220
-0
230
1
0
CIRCLE
5
110
100
AcDbEntity
8
0
100
AcDbCircle
10
-10.000000000000007
20
-10.0
30
0
40
2.1000000000000005
210
0
220
0
230
1
0
CIRCLE
5
111
100
AcDbEntity
8
0
100
AcDbCircle
10
10.000000000000018
20
10.0
30
0
40
2.0999999999999996
210
0
220
-0
230
1
0
ENDSEC
0
SECTION
2
OBJECTS
0
DICTIONARY
5
C
100
AcDbDictionary
3
ACAD_GROUP
350
D
3
ACAD_MLINESTYLE
350
17
0
DICTIONARY
5
D
100
AcDbDictionary
0
DICTIONARY
5
1A
330
C
100
AcDbDictionary
0
DICTIONARY
5
17
100
AcDbDictionary
0
ENDSEC
0
EOF
