0
SECTION
2
HEADER
9
$INSUNITS
70
4
9
$ACADVER
1
AC1014
9
$HANDSEED
5
FFFF
0
ENDSEC
0
SECTION
2
TABLES
0
TABLE
2
VPORT
5
8
100
AcDbSymbolTable
0
ENDTAB
0
TABLE
2
LTYPE
5
5
100
AcDbSymbolTable
0
LTYPE
5
14
100
AcDbSymbolTableRecord
100
AcDbLinetypeTableRecord
2
BYBLOCK
70
0
0
LTYPE
5
15
100
AcDbSymbolTableRecord
100
AcDbLinetypeTableRecord
2
BYLAYER
70
0
0
LTYPE
5
16
100
AcDbSymbolTableRecord
100
AcDbLinetypeTableRecord
2
DASHED
70
0
3
Dashed __ __ __ __ __ __ __ __ __ __ __ __ __ _
72
65
73
2
40
0.75
49
0.5
74
0
49
-0.25
74
0
0
ENDTAB
0
TABLE
2
LAYER
5
2
100
AcDbSymbolTable
70
2
0
LAYER
5
50
100
AcDbSymbolTableRecord
100
AcDbLayerTableRecord
2
0
70
0
62
7
6
CONTINUOUS
0
ENDTAB
0
TABLE
2
STYLE
5
3
100
AcDbSymbolTable
70
1
0
STYLE
5
11
100
AcDbSymbolTableRecord
100
AcDbTextStyleTableRecord
2
STANDARD
70
0
0
ENDTAB
0
TABLE
2
VIEW
5
6
100
AcDbSymbolTable
70
0
0
ENDTAB
0
TABLE
2
UCS
5
7
100
AcDbSymbolTable
70
0
0
ENDTAB
0
TABLE
2
APPID
5
9
100
AcDbSymbolTable
70
2
0
APPID
5
12
100
AcDbSymbolTableRecord
100
AcDbRegAppTableRecord
2
ACAD
70
0
0
ENDTAB
0
TABLE
2
DIMSTYLE
5
A
100
AcDbSymbolTable
70
1
0
ENDTAB
0
TABLE
2
BLOCK_RECORD
5
1
100
AcDbSymbolTable
70
1
0
BLOCK_RECORD
5
1F
100
AcDbSymbolTableRecord
100
AcDbBlockTableRecord
2
*MODEL_SPACE
0
BLOCK_RECORD
5
1B
100
AcDbSymbolTableRecord
100
AcDbBlockTableRecord
2
*PAPER_SPACE
0
ENDTAB
0
ENDSEC
0
SECTION
2
BLOCKS
0
BLOCK
5
20
100
AcDbEntity
100
AcDbBlockBegin
2
*MODEL_SPACE
0
ENDBLK
5
21
100
AcDbEntity
100
AcDbBlockEnd
0
BLOCK
5
1C
100
AcDbEntity
100
AcDbBlockBegin
2
*PAPER_SPACE
0
ENDBLK
5
1D
100
AcDbEntity
100
AcDbBlockEnd
0
ENDSEC
0
SECTION
2
ENTITIES
0
LWPOLYLINE
5
100
100
AcDbEntity
8
0
100
AcDbPolyline
90
296
70
1
43
0.0
10
27.0142135623731
20
14.0464466094067
10
24.646446609406695
20
16.4142135623731
42
-0.19891236737966284
10
24.5
20
16.767766952966397
10
24.5
20
17.700000000000003
42
-0.41421356237309503
10
25.0
20
18.200000000000003
10
26.875
20
18.200000000000003
10
26.875
20
18.54500000000001
10
25.566446609406697
20
19.853553390593305
42
0.19891236737967863
10
25.21289321881339
20
20.0
10
14.787106781186509
20
20.0
42
0.19891236737968818
10
14.433553390593303
20
19.853553390593305
10
13.125
20
18.54500000000001
10
13.125
20
18.200000000000003
10
15.0
20
18.200000000000003
42
-0.41421356237312101
10
15.500000000000007
20
17.700000000000003
10
15.500000000000007
20
16.767766952966397
42
-0.19891236737963791
10
15.353553390593298
20
16.4142135623731
10
12.9857864376269
20
14.0464466094067
42
-0.19891236737965684
10
12.632233047033601
20
13.899999999999999
10
7.367766952966399
20
13.899999999999999
42
-0.1989123673796333
10
7.014213562373108
20
14.0464466094067
10
4.646446609406702
20
16.4142135623731
42
-0.19891236737966284
10
4.5
20
16.767766952966397
10
4.5
20
17.700000000000003
42
-0.41421356237309503
10
5.0
20
18.200000000000003
10
6.875
20
18.200000000000003
10
6.875
20
18.54500000000001
10
5.566446609406697
20
19.853553390593305
42
0.19891236737967863
10
5.212893218813399
20
20.0
10
-5.212893218813491
20
20.0
42
0.19891236737970724
10
-5.566446609406697
20
19.853553390593305
10
-6.875
20
18.54500000000001
10
-6.875
20
18.200000000000003
10
-5.0
20
18.200000000000003
42
-0.41421356237312884
10
-4.5
20
17.700000000000003
10
-4.5
20
16.767766952966397
42
-0.19891236737965037
10
-4.646446609406702
20
16.4142135623731
10
-7.014213562373094
20
14.0464466094067
42
-0.19891236737964577
10
-7.367766952966399
20
13.899999999999999
10
-12.632233047033598
20
13.899999999999991
42
-0.19891236737964829
10
-12.9857864376269
20
14.0464466094067
10
-15.353553390593298
20
16.4142135623731
42
-0.19891236737966284
10
-15.5
20
16.767766952966397
10
-15.5
20
17.700000000000003
42
-0.41421356237310542
10
-15.0
20
18.200000000000003
10
-13.125
20
18.200000000000003
10
-13.125
20
18.54500000000001
10
-14.4335533905933
20
19.853553390593305
42
0.19891236737967002
10
-14.787106781186598
20
20.0
10
-25.212893218813498
20
20.0
42
0.19891236737970247
10
-25.566446609406697
20
19.853553390593305
10
-26.875
20
18.54500000000001
10
-26.875
20
18.200000000000003
10
-25.0
20
18.200000000000003
42
-0.41421356237311713
10
-24.5
20
17.700000000000003
10
-24.5
20
16.767766952966397
42
-0.19891236737964554
10
-24.646446609406702
20
16.4142135623731
10
-27.014213562373097
20
14.0464466094067
42
-0.19891236737964185
10
-27.3677669529664
20
13.899999999999999
10
-32.63223304703362
20
13.899999999999999
42
-0.19891236737960399
10
-32.9857864376269
20
14.0464466094067
10
-35.353553390593284
20
16.414213562373092
42
-0.19891236737965337
10
-35.5
20
16.767766952966397
10
-35.5
20
17.700000000000003
42
-0.41421356237307749
10
-35.0
20
18.200000000000003
10
-33.125
20
18.200000000000003
10
-33.125
20
18.54500000000001
10
-34.43355339059327
20
19.853553390593305
42
0.19891236737962203
10
-34.78710678118655
20
20.0
10
-39.5
20
20.0
42
0.41421356237307683
10
-40.0
20
19.5
10
-40.0
20
14.787106781186509
42
0.19891236737964149
10
-39.85355339059328
20
14.433553390593303
10
-38.545
20
13.125
10
-38.2
20
13.125
10
-38.199999999999996
20
15.0
42
-0.41421356237311519
10
-37.7
20
15.5
10
-36.76776695296637
20
15.5
42
-0.19891236737960999
10
-36.41421356237309
20
15.353553390593298
10
-34.04644660940673
20
12.9857864376269
42
-0.19891236737972945
10
-33.90000000000001
20
12.632233047033601
10
-33.90000000000001
20
7.367766952966399
42
-0.19891236737973303
10
-34.04644660940673
20
7.014213562373101
10
-36.41421356237309
20
4.646446609406702
42
-0.19891236737962059
10
-36.76776695296637
20
4.5
10
-37.7
20
4.5
42
-0.41421356237312157
10
-38.2
20
5.0
10
-38.2
20
6.875
10
-38.545
20
6.875
10
-39.85355339059328
20
5.566446609406697
42
0.19891236737967566
10
-40.0
20
5.212893218813399
10
-40.0
20
-5.212893218813498
42
0.19891236737965931
10
-39.85355339059328
20
-5.566446609406697
10
-38.545
20
-6.875
10
-38.2
20
-6.875
10
-38.199999999999996
20
-5.0
42
-0.41421356237310802
10
-37.7
20
-4.4999999999999964
10
-36.76776695296637
20
-4.4999999999999964
42
-0.19891236737962545
10
-36.41421356237309
20
-4.646446609406695
10
-34.04644660940673
20
-7.014213562373101
42
-0.19891236737973592
10
-33.90000000000001
20
-7.367766952966399
10
-33.900000000000006
20
-12.632233047033601
42
-0.19891236737972678
10
-34.04644660940673
20
-12.9857864376269
10
-36.41421356237309
20
-15.3535533905933
42
-0.19891236737962337
10
-36.76776695296637
20
-15.499999999999998
10
-37.7
20
-15.499999999999998
42
-0.41421356237309098
10
-38.2
20
-15.0
10
-38.2
20
-13.125
10
-38.545
20
-13.125
10
-39.85355339059328
20
-14.4335533905933
42
0.19891236737967807
10
-40.0
20
-14.787106781186598
10
-40.0
20
-19.5
42
0.41421356237309731
10
-39.5
20
-20.0
10
-34.78710678118655
20
-20.0
42
0.19891236737966958
10
-34.43355339059327
20
-19.853553390593298
10
-33.125
20
-18.545
10
-33.125
20
-18.2
10
-35.0
20
-18.2
42
-0.4142135623731022
10
-35.5
20
-17.699999999999996
10
-35.5
20
-16.7677669529664
42
-0.19891236737969989
10
-35.35355339059328
20
-16.4142135623731
10
-32.9857864376269
20
-14.0464466094067
42
-0.19891236737965406
10
-32.63223304703362
20
-13.899999999999999
10
-27.3677669529664
20
-13.899999999999995
42
-0.1989123673796393
10
-27.0142135623731
20
-14.0464466094067
10
-24.646446609406702
20
-16.4142135623731
42
-0.19891236737968235
10
-24.5
20
-16.7677669529664
10
-24.5
20
-17.699999999999996
42
-0.41421356237309503
10
-25.0
20
-18.2
10
-26.875
20
-18.2
10
-26.875
20
-18.545
10
-25.566446609406697
20
-19.853553390593298
42
0.19891236737964482
10
-25.2128932188134
20
-20.0
10
-20.5
20
-20.0
42
0.4142135623730937
10
-20.0
20
-19.5
10
-20.0
20
-14.787106781186598
42
0.19891236737965104
10
-20.1464466094067
20
-14.4335533905933
10
-21.455
20
-13.125
10
-21.8
20
-13.125
10
-21.8
20
-15.0
42
-0.4142135623730937
10
-22.3
20
-15.499999999999998
10
-23.2322330470336
20
-15.499999999999998
42
-0.19891236737963952
10
-23.5857864376269
20
-15.3535533905933
10
-25.953553390593296
20
-12.9857864376269
42
-0.19891236737967416
10
-26.099999999999998
20
-12.632233047033601
10
-26.099999999999998
20
-7.367766952966399
42
-0.19891236737965107
10
-25.9535533905933
20
-7.014213562373101
10
-23.585786437626897
20
-4.646446609406695
42
-0.19891236737966214
10
-23.2322330470336
20
-4.4999999999999964
10
-22.3
20
-4.499999999999993
42
-0.41421356237309764
10
-21.8
20
-5.0
10
-21.8
20
-6.875
10
-21.455
20
-6.875
10
-20.1464466094067
20
-5.566446609406697
42
0.19891236737966206
10
-20.0
20
-5.212893218813498
10
-20.0
20
-0.5
42
-0.41421356237308204
10
-19.499999999999996
20
0.0
10
-14.787106781186598
20
0.0
42
0.19891236737966056
10
-14.4335533905933
20
0.1464466094066985
10
-13.125
20
1.4550000000000018
10
-13.125
20
1.8000000000000007
10
-15.0
20
1.8000000000000007
42
-0.41421356237308982
10
-15.5
20
2.299999999999997
10
-15.500000000000004
20
3.2322330470336027
42
-0.19891236737964876
10
-15.353553390593298
20
3.5857864376269006
10
-12.9857864376269
20
5.953553390593299
42
-0.19891236737965823
10
-12.632233047033598
20
6.100000000000001
10
-7.367766952966399
20
6.100000000000001
42
-0.19891236737967105
10
-7.014213562373101
20
5.953553390593299
10
-4.646446609406695
20
3.5857864376269006
42
-0.19891236737965037
10
-4.5
20
3.2322330470336027
10
-4.5
20
2.299999999999997
42
-0.41421356237309764
10
-5.0
20
1.8000000000000007
10
-6.875
20
1.8000000000000007
10
-6.875
20
1.4550000000000018
10
-5.566446609406697
20
0.1464466094066985
42
0.19891236737966356
10
-5.212893218813491
20
0.0
10
5.212893218813399
20
0.0
42
0.19891236737968027
10
5.566446609406697
20
0.1464466094066985
10
6.875
20
1.4550000000000018
10
6.875
20
1.8000000000000007
10
5.0
20
1.8000000000000007
42
-0.41421356237309503
10
4.5
20
2.299999999999997
10
4.5
20
3.2322330470336027
42
-0.19891236737962811
10
4.646446609406702
20
3.5857864376269006
10
7.014213562373108
20
5.953553390593299
42
-0.19891236737964577
10
7.367766952966399
20
6.100000000000001
10
12.632233047033601
20
6.100000000000001
42
-0.19891236737968848
10
12.9857864376269
20
5.953553390593299
10
15.353553390593298
20
3.5857864376269006
42
-0.19891236737967982
10
15.500000000000007
20
3.2322330470336027
10
15.500000000000007
20
2.299999999999997
42
-0.41421356237310025
10
15.0
20
1.8000000000000007
10
13.125
20
1.8000000000000007
10
13.125
20
1.4550000000000018
10
14.433553390593303
20
0.1464466094066985
42
0.19891236737966295
10
14.787106781186509
20
0.0
10
19.5
20
0.0
42
-0.41421356237306384
10
20.0
20
-0.5
10
20.0
20
-5.212893218813498
42
0.19891236737963006
10
20.14644660940671
20
-5.566446609406697
10
21.455
20
-6.875
10
21.799999999999997
20
-6.875
10
21.799999999999997
20
-5.0
42
-0.41421356237307944
10
22.300000000000004
20
-4.4999999999999964
10
23.23223304703361
20
-4.4999999999999964
42
-0.19891236737966123
10
23.585786437626908
20
-4.646446609406695
10
25.9535533905933
20
-7.014213562373101
42
-0.19891236737969287
10
26.099999999999994
20
-7.367766952966399
10
26.099999999999994
20
-12.632233047033601
42
-0.19891236737964796
10
25.9535533905933
20
-12.9857864376269
10
23.585786437626908
20
-15.353553390593298
42
-0.19891236737964577
10
23.232233047033617
20
-15.499999999999998
10
22.30000000000001
20
-15.500000000000004
42
-0.41421356237306123
10
21.799999999999997
20
-15.0
10
21.799999999999997
20
-13.125
10
21.455
20
-13.125
10
20.14644660940671
20
-14.4335533905933
42
0.19891236737967982
10
20.0
20
-14.787106781186598
10
20.0
20
-19.5
42
0.41421356237310281
10
20.500000000000007
20
-20.0
10
25.212893218813406
20
-20.0
42
0.19891236737967263
10
25.566446609406697
20
-19.853553390593298
10
26.875
20
-18.545
10
26.875
20
-18.2
10
25.0
20
-18.200000000000003
42
-0.41421356237310936
10
24.5
20
-17.699999999999996
10
24.5
20
-16.7677669529664
42
-0.19891236737966331
10
24.646446609406695
20
-16.4142135623731
10
27.0142135623731
20
-14.0464466094067
42
-0.19891236737968929
10
27.367766952966406
20
-13.899999999999999
10
32.632233047033594
20
-13.899999999999999
42
-0.1989123673796265
10
32.9857864376269
20
-14.0464466094067
10
35.353553390593305
20
-16.4142135623731
42
-0.1989123673797516
10
35.5
20
-16.7677669529664
10
35.5
20
-17.699999999999996
42
-0.41421356237310281
10
35.0
20
-18.2
10
33.125
20
-18.2
10
33.125
20
-18.545
10
34.4335533905933
20
-19.853553390593298
42
0.19891236737963952
10
34.787106781186594
20
-20.0
10
39.5
20
-20.0
42
0.41421356237308332
10
40.0
20
-19.5
10
40.0
20
-14.787106781186598
42
0.19891236737964157
10
39.853553390593305
20
-14.4335533905933
10
38.545
20
-13.125
10
38.2
20
-13.125
10
38.2
20
-15.0
42
-0.41421356237309631
10
37.7
20
-15.499999999999998
10
36.7677669529664
20
-15.499999999999998
42
-0.19891236737958876
10
36.41421356237311
20
-15.3535533905933
10
34.0464466094067
20
-12.9857864376269
42
-0.19891236737971096
10
33.900000000000006
20
-12.632233047033601
10
33.900000000000006
20
-7.367766952966402
42
-0.19891236737962581
10
34.0464466094067
20
-7.014213562373101
10
36.41421356237311
20
-4.646446609406691
42
-0.19891236737967566
10
36.7677669529664
20
-4.4999999999999964
10
37.69999999999999
20
-4.4999999999999964
42
-0.41421356237309764
10
38.2
20
-5.0
10
38.2
20
-6.875
10
38.545
20
-6.875
10
39.853553390593305
20
-5.566446609406697
42
0.19891236737964199
10
40.0
20
-5.212893218813498
10
40.0
20
5.212893218813399
42
0.19891236737963894
10
39.853553390593305
20
5.566446609406697
10
38.545
20
6.875
10
38.2
20
6.875
10
38.2
20
5.0
42
-0.41421356237308721
10
37.7
20
4.5
10
36.7677669529664
20
4.500000000000007
42
-0.19891236737958876
10
36.41421356237311
20
4.646446609406702
10
34.0464466094067
20
7.014213562373101
42
-0.19891236737970416
10
33.89999999999999
20
7.367766952966399
10
33.90000000000002
20
12.632233047033601
42
-0.1989123673796438
10
34.0464466094067
20
12.9857864376269
10
36.41421356237311
20
15.353553390593305
42
-0.19891236737967866
10
36.76776695296641
20
15.5
10
37.7
20
15.5
42
-0.41421356237309503
10
38.2
20
15.0
10
38.2
20
13.125
10
38.545
20
13.125
10
39.853553390593305
20
14.433553390593303
42
0.19891236737964499
10
40.0
20
14.787106781186509
10
40.0
20
19.5
42
0.41421356237306384
10
39.5
20
20.0
10
34.787106781186594
20
20.0
42
0.19891236737969953
10
34.4335533905933
20
19.853553390593305
10
33.125
20
18.54500000000001
10
33.125
20
18.200000000000003
10
35.0
20
18.200000000000003
42
-0.41421356237315227
10
35.5
20
17.700000000000003
10
35.5
20
16.767766952966397
42
-0.1989123673796169
10
35.353553390593305
20
16.4142135623731
10
32.9857864376269
20
14.046446609406694
42
-0.19891236737966145
10
32.632233047033594
20
13.899999999999999
10
27.367766952966406
20
13.899999999999999
42
-0.19891236737963791
0
LWPOLYLINE
5
101
100
AcDbEntity
8
0
100
AcDbPolyline
90
22
70
1
43
0.0
10
14.0464466094067
20
12.9857864376269
10
16.853553390593305
20
15.792893218813397
42
0.1989123673795789
10
17.0
20
16.146446609406702
10
17.0
20
17.700000000000003
42
-0.41421356237309503
10
17.5
20
18.200000000000003
10
22.5
20
18.200000000000003
42
-0.41421356237310025
10
23.000000000000007
20
17.700000000000003
10
23.000000000000007
20
16.1464466094068
42
0.19891236737964382
10
23.14644660940671
20
15.792893218813504
10
25.9535533905933
20
12.9857864376269
42
-0.19891236737968779
10
26.099999999999994
20
12.632233047033594
10
26.099999999999994
20
7.367766952966399
42
-0.19891236737961829
10
25.9535533905933
20
7.014213562373101
10
20.885786437626905
20
1.9464466094066992
42
-0.19891236737968351
10
20.5322330470336
20
1.8000000000000007
10
17.5
20
1.8000000000000007
42
-0.41421356237304302
10
17.0
20
2.299999999999997
10
17.0
20
3.853553390593298
42
0.1989123673797174
10
16.853553390593305
20
4.207106781186511
10
14.0464466094067
20
7.014213562373101
42
-0.19891236737966447
10
13.900000000000006
20
7.367766952966406
10
13.900000000000013
20
12.632233047033601
42
-0.1989123673796438
0
LWPOLYLINE
5
102
100
AcDbEntity
8
0
100
AcDbPolyline
90
22
70
1
43
0.0
10
-25.9535533905933
20
12.9857864376269
10
-23.146446609406695
20
15.792893218813397
42
0.19891236737956691
10
-23.0
20
16.146446609406702
10
-23.0
20
17.700000000000003
42
-0.41421356237309631
10
-22.5
20
18.200000000000003
10
-17.5
20
18.200000000000003
42
-0.41421356237309764
10
-16.999999999999996
20
17.700000000000003
10
-16.999999999999996
20
16.1464466094068
42
0.19891236737962184
10
-16.853553390593298
20
15.792893218813504
10
-14.046446609406694
20
12.9857864376269
42
-0.19891236737965037
10
-13.899999999999999
20
12.632233047033601
10
-13.899999999999999
20
7.367766952966399
42
-0.19891236737965914
10
-14.0464466094067
20
7.014213562373101
10
-16.853553390593298
20
4.207106781186603
42
0.19891236737955756
10
-16.999999999999996
20
3.853553390593298
10
-16.999999999999996
20
2.299999999999997
42
-0.41421356237309243
10
-17.5
20
1.8000000000000007
10
-20.5322330470336
20
1.8000000000000007
42
-0.19891236737956983
10
-20.8857864376269
20
1.9464466094066992
10
-25.9535533905933
20
7.014213562373108
42
-0.19891236737966619
10
-26.099999999999998
20
7.367766952966399
10
-26.099999999999994
20
12.632233047033601
42
-0.19891236737964865
0
LWPOLYLINE
5
103
100
AcDbEntity
8
0
100
AcDbPolyline
90
22
70
1
43
0.0
10
-21.8
20
0.5322330470336993
10
-21.799999999999997
20
-2.5
42
-0.41421356237307161
10
-22.3
20
-3.0
10
-23.8535533905933
20
-3.0
42
0.19891236737967832
10
-24.207106781186496
20
-3.146446609406695
10
-27.014213562373097
20
-5.953553390593296
42
-0.19891236737965512
10
-27.367766952966402
20
-6.100000000000001
10
-32.63223304703362
20
-6.099999999999998
42
-0.19891236737961288
10
-32.9857864376269
20
-5.953553390593296
10
-35.79289321881345
20
-3.146446609406695
42
0.19891236737963516
10
-36.146446609406716
20
-3.0
10
-37.7
20
-3.0
42
-0.41421356237308127
10
-38.2
20
-2.5
10
-38.2
20
2.5
42
-0.41421356237311419
10
-37.7
20
3.0
10
-36.14644660940675
20
3.0
42
0.19891236737961362
10
-35.79289321881348
20
3.146446609406709
10
-32.9857864376269
20
5.953553390593299
42
-0.1989123673796423
10
-32.63223304703362
20
6.100000000000001
10
-27.3677669529664
20
6.100000000000001
42
-0.1989123673796287
10
-27.0142135623731
20
5.953553390593299
10
-21.946446609406696
20
0.8857864376269049
42
-0.19891236737965487
0
LWPOLYLINE
5
104
100
AcDbEntity
8
0
100
AcDbPolyline
90
22
70
1
43
0.0
10
21.946446609406706
20
0.8857864376269049
10
27.0142135623731
20
5.953553390593299
42
-0.19891236737968523
10
27.367766952966406
20
6.100000000000001
10
32.632233047033594
20
6.1000000000000085
42
-0.19891236737959325
10
32.9857864376269
20
5.953553390593299
10
35.792893218813404
20
3.146446609406709
42
0.19891236737957915
10
36.146446609406695
20
3.0
10
37.7
20
3.000000000000007
42
-0.41421356237308982
10
38.2
20
2.5
10
38.2
20
-2.5
42
-0.41421356237308721
10
37.7
20
-3.0
10
36.146446609406695
20
-3.0
42
0.19891236737967732
10
35.792893218813504
20
-3.146446609406695
10
32.9857864376269
20
-5.953553390593296
42
-0.19891236737965501
10
32.632233047033594
20
-6.099999999999998
10
27.367766952966406
20
-6.099999999999998
42
-0.19891236737965037
10
27.0142135623731
20
-5.953553390593296
10
24.207106781186596
20
-3.146446609406695
42
0.19891236737958543
10
23.853553390593305
20
-3.0
10
22.300000000000004
20
-3.0
42
-0.41421356237310025
10
21.799999999999997
20
-2.5
10
21.799999999999997
20
0.5322330470336993
42
-0.19891236737968293
0
LWPOLYLINE
5
105
100
AcDbEntity
8
0
100
AcDbPolyline
90
24
70
1
43
0.0
10
-3.0
20
16.146446609406702
10
-3.0
20
17.700000000000003
42
-0.41421356237310542
10
-2.5
20
18.200000000000003
10
2.5
20
18.200000000000003
42
-0.41421356237309503
10
3.0
20
17.700000000000003
10
3.0
20
16.1464466094068
42
0.19891236737966475
10
3.146446609406709
20
15.792893218813504
10
5.9535533905933065
20
12.9857864376269
42
-0.19891236737966284
10
6.100000000000001
20
12.632233047033601
10
6.100000000000001
20
7.367766952966399
42
-0.19891236737963597
10
5.9535533905933065
20
7.014213562373101
10
3.146446609406709
20
4.207106781186603
42
0.19891236737957751
10
3.0
20
3.853553390593298
10
3.0
20
2.299999999999997
42
-0.41421356237309503
10
2.5
20
1.8000000000000007
10
-2.5
20
1.8000000000000007
42
-0.4142135623730534
10
-3.0
20
2.299999999999997
10
-3.0
20
3.853553390593298
42
0.198912367379697
10
-3.146446609406702
20
4.207106781186511
10
-5.953553390593299
20
7.014213562373101
42
-0.19891236737965037
10
-6.100000000000001
20
7.367766952966399
10
-6.100000000000001
20
12.632233047033601
42
-0.19891236737965362
10
-5.953553390593299
20
12.9857864376269
10
-3.146446609406702
20
15.792893218813397
42
0.19891236737958706
0
CIRCLE
5
106
100
AcDbEntity
8
0
100
AcDbCircle
10
30.0
20
9.999999999999993
30
0
40
2.099999999999993
210
9.4377150946583514e-16
220
2.4275571330138536e-17
230
1
0
CIRCLE
5
107
100
AcDbEntity
8
0
100
AcDbCircle
10
29.999999999999986
20
-10.000000000000004
30
0
40
2.0999999999999979
210
9.4377150946583041e-16
220
2.4275571330145331e-17
230
1
0
CIRCLE
5
108
100
AcDbEntity
8
0
100
AcDbCircle
10
-30.0
20
-9.999999999999996
30
0
40
2.1000000000000032
210
9.4377150946582133e-16
220
2.4275571330138536e-17
230
1
0
CIRCLE
5
109
100
AcDbEntity
8
0
100
AcDbCircle
10
-29.999999999999986
20
10.0
30
0
40
2.1000000000000005
210
9.437715094658239e-16
220
2.427557133013429e-17
230
1
0
CIRCLE
5
110
100
AcDbEntity
8
0
100
AcDbCircle
10
-9.999999999999996
20
9.999999999999993
30
0
40
2.1000000000000032
210
2.4275571330136268e-17
220
-9.4377150946581818e-16
230
1
0
CIRCLE
5
111
100
AcDbEntity
8
0
100
AcDbCircle
10
10.000000000000007
20
9.999999999999986
30
0
40
2.100000000000009
210
2.4275571330132761e-17
220
-9.4377150946582035e-16
230
1
0
LWPOLYLINE
5
112
100
AcDbEntity
8
0
100
AcDbPolyline
90
296
70
1
43
0.0
10
27.0142135623731
20
14.0464466094067
10
24.646446609406695
20
16.4142135623731
42
-0.19891236737966608
10
24.5
20
16.767766952966397
10
24.5
20
17.700000000000003
42
-0.41421356237309503
10
25.0
20
18.200000000000003
10
26.875
20
18.200000000000003
10
26.875
20
18.54500000000001
10
25.566446609406697
20
19.853553390593305
42
0.19891236737966941
10
25.21289321881342
20
20.0
10
14.787106781186509
20
20.0
42
0.19891236737968818
10
14.433553390593303
20
19.853553390593305
10
13.125
20
18.54500000000001
10
13.125
20
18.200000000000003
10
15.0
20
18.199999999999996
42
-0.41421356237311585
10
15.500000000000007
20
17.700000000000003
10
15.500000000000007
20
16.767766952966397
42
-0.19891236737964116
10
15.353553390593298
20
16.4142135623731
10
12.9857864376269
20
14.046446609406694
42
-0.19891236737965037
10
12.632233047033601
20
13.899999999999999
10
7.367766952966399
20
13.899999999999999
42
-0.19891236737964116
10
7.014213562373108
20
14.0464466094067
10
4.646446609406702
20
16.4142135623731
42
-0.19891236737966608
10
4.5
20
16.767766952966397
10
4.5
20
17.700000000000003
42
-0.41421356237309503
10
5.0
20
18.200000000000003
10
6.875
20
18.200000000000003
10
6.875
20
18.54500000000001
10
5.566446609406697
20
19.853553390593305
42
0.19891236737967863
10
5.212893218813399
20
20.0
10
-5.212893218813491
20
20.0
42
0.19891236737970724
10
-5.566446609406697
20
19.853553390593305
10
-6.875
20
18.54500000000001
10
-6.875
20
18.200000000000003
10
-5.0
20
18.200000000000003
42
-0.41421356237312101
10
-4.5
20
17.700000000000003
10
-4.499999999999993
20
16.767766952966397
42
-0.19891236737965362
10
-4.646446609406702
20
16.4142135623731
10
-7.014213562373094
20
14.0464466094067
42
-0.19891236737964577
10
-7.367766952966399
20
13.899999999999999
10
-12.632233047033598
20
13.899999999999999
42
-0.19891236737968709
10
-12.9857864376269
20
14.0464466094067
10
-15.353553390593298
20
16.4142135623731
42
-0.19891236737966447
10
-15.5
20
16.767766952966397
10
-15.5
20
17.700000000000003
42
-0.41421356237309503
10
-15.0
20
18.200000000000003
10
-13.125
20
18.200000000000003
10
-13.125
20
18.54500000000001
10
-14.4335533905933
20
19.853553390593305
42
0.19891236737966775
10
-14.787106781186594
20
20.0
10
-25.212893218813498
20
20.0
42
0.19891236737970247
10
-25.566446609406697
20
19.853553390593305
10
-26.875
20
18.54500000000001
10
-26.875
20
18.200000000000003
10
-25.0
20
18.199999999999996
42
-0.41421356237312101
10
-24.5
20
17.700000000000003
10
-24.5
20
16.767766952966397
42
-0.19891236737964255
10
-24.646446609406702
20
16.4142135623731
10
-27.0142135623731
20
14.0464466094067
42
-0.19891236737963791
10
-27.3677669529664
20
13.899999999999999
10
-32.63223304703362
20
13.899999999999999
42
-0.19891236737959325
10
-32.9857864376269
20
14.0464466094067
10
-35.353553390593284
20
16.414213562373092
42
-0.19891236737965337
10
-35.5
20
16.767766952966397
10
-35.5
20
17.700000000000003
42
-0.41421356237308526
10
-35.0
20
18.200000000000003
10
-33.125
20
18.200000000000003
10
-33.125
20
18.54500000000001
10
-34.43355339059327
20
19.853553390593305
42
0.19891236737962203
10
-34.78710678118655
20
20.0
10
-39.5
20
20.0
42
0.41421356237307683
10
-40.0
20
19.5
10
-40.0
20
14.787106781186509
42
0.19891236737964138
10
-39.85355339059328
20
14.433553390593303
10
-38.545
20
13.125
10
-38.2
20
13.125
10
-38.2
20
15.0
42
-0.41421356237310691
10
-37.7
20
15.5
10
-36.76776695296637
20
15.5
42
-0.19891236737962523
10
-36.41421356237309
20
15.353553390593298
10
-34.04644660940673
20
12.985786437626892
42
-0.19891236737974341
10
-33.90000000000001
20
12.632233047033601
10
-33.900000000000006
20
7.367766952966399
42
-0.19891236737972562
10
-34.04644660940673
20
7.014213562373101
10
-36.41421356237309
20
4.646446609406702
42
-0.19891236737961299
10
-36.76776695296637
20
4.5
10
-37.7
20
4.5
42
-0.41421356237312679
10
-38.2
20
5.0
10
-38.2
20
6.875
10
-38.545
20
6.875
10
-39.85355339059328
20
5.566446609406697
42
0.19891236737967563
10
-40.0
20
5.212893218813399
10
-40.0
20
-5.212893218813498
42
0.19891236737965917
10
-39.85355339059328
20
-5.566446609406697
10
-38.545
20
-6.875
10
-38.2
20
-6.875
10
-38.2
20
-5.0
42
-0.41421356237310414
10
-37.7
20
-4.4999999999999964
10
-36.76776695296637
20
-4.4999999999999964
42
-0.19891236737962534
10
-36.41421356237309
20
-4.646446609406695
10
-34.04644660940673
20
-7.014213562373101
42
-0.19891236737973117
10
-33.90000000000001
20
-7.367766952966399
10
-33.900000000000006
20
-12.632233047033601
42
-0.19891236737972678
10
-34.04644660940673
20
-12.9857864376269
10
-36.41421356237309
20
-15.3535533905933
42
-0.19891236737962431
10
-36.76776695296637
20
-15.499999999999998
10
-37.7
20
-15.5
42
-0.41421356237308982
10
-38.2
20
-15.0
10
-38.2
20
-13.125
10
-38.545
20
-13.125
10
-39.85355339059328
20
-14.4335533905933
42
0.19891236737967688
10
-40.0
20
-14.787106781186596
10
-40.0
20
-19.5
42
0.41421356237309731
10
-39.5
20
-20.0
10
-34.78710678118655
20
-20.0
42
0.19891236737966958
10
-34.43355339059327
20
-19.853553390593298
10
-33.125
20
-18.545
10
-33.125
20
-18.2
10
-35.0
20
-18.2
42
-0.41421356237310186
10
-35.5
20
-17.699999999999996
10
-35.5
20
-16.7677669529664
42
-0.19891236737969711
10
-35.35355339059328
20
-16.4142135623731
10
-32.9857864376269
20
-14.046446609406702
42
-0.19891236737965384
10
-32.63223304703362
20
-13.899999999999999
10
-27.3677669529664
20
-13.899999999999999
42
-0.19891236737963849
10
-27.0142135623731
20
-14.0464466094067
10
-24.646446609406702
20
-16.4142135623731
42
-0.19891236737968201
10
-24.5
20
-16.7677669529664
10
-24.5
20
-17.699999999999996
42
-0.41421356237309115
10
-25.0
20
-18.2
10
-26.875
20
-18.2
10
-26.875
20
-18.545
10
-25.566446609406697
20
-19.853553390593298
42
0.19891236737964482
10
-25.2128932188134
20
-20.0
10
-20.5
20
-20.0
42
0.4142135623730937
10
-20.0
20
-19.5
10
-20.0
20
-14.787106781186598
42
0.19891236737965104
10
-20.1464466094067
20
-14.4335533905933
10
-21.455
20
-13.125
10
-21.8
20
-13.125
10
-21.8
20
-15.0
42
-0.4142135623730937
10
-22.3
20
-15.499999999999998
10
-23.2322330470336
20
-15.5
42
-0.19891236737963838
10
-23.5857864376269
20
-15.3535533905933
10
-25.9535533905933
20
-12.9857864376269
42
-0.19891236737967219
10
-26.099999999999998
20
-12.632233047033601
10
-26.099999999999998
20
-7.367766952966399
42
-0.19891236737964726
10
-25.9535533905933
20
-7.014213562373101
10
-23.5857864376269
20
-4.646446609406695
42
-0.19891236737966053
10
-23.2322330470336
20
-4.4999999999999964
10
-22.3
20
-4.499999999999993
42
-0.41421356237309764
10
-21.8
20
-5.0
10
-21.8
20
-6.875
10
-21.455
20
-6.875
10
-20.1464466094067
20
-5.566446609406697
42
0.19891236737966206
10
-20.0
20
-5.212893218813498
10
-20.0
20
-0.5
42
-0.41421356237308721
10
-19.499999999999996
20
0.0
10
-14.787106781186598
20
0.0
42
0.19891236737966056
10
-14.4335533905933
20
0.1464466094066985
10
-13.125
20
1.4550000000000018
10
-13.125
20
1.8000000000000007
10
-15.0
20
1.8000000000000007
42
-0.41421356237309503
10
-15.5
20
2.299999999999997
10
-15.5
20
3.2322330470336027
42
-0.19891236737966447
10
-15.353553390593298
20
3.5857864376269006
10
-12.9857864376269
20
5.953553390593299
42
-0.19891236737965753
10
-12.632233047033598
20
6.100000000000001
10
-7.367766952966399
20
6.100000000000001
42
-0.19891236737968385
10
-7.014213562373094
20
5.953553390593299
10
-4.646446609406702
20
3.5857864376269006
42
-0.19891236737965362
10
-4.5
20
3.23223304703361
10
-4.5
20
2.299999999999997
42
-0.41421356237309764
10
-5.0
20
1.8000000000000007
10
-6.875
20
1.8000000000000007
10
-6.875
20
1.4550000000000018
10
-5.566446609406697
20
0.1464466094066985
42
0.19891236737966356
10
-5.212893218813491
20
0.0
10
5.212893218813399
20
0.0
42
0.19891236737968027
10
5.566446609406697
20
0.1464466094066985
10
6.875
20
1.4550000000000018
10
6.875
20
1.8000000000000007
10
5.0
20
1.7999999999999972
42
-0.41421356237309764
10
4.5
20
2.299999999999997
10
4.5
20
3.2322330470336027
42
-0.19891236737962406
10
4.646446609406702
20
3.5857864376269006
10
7.014213562373108
20
5.953553390593299
42
-0.19891236737965223
10
7.367766952966399
20
6.100000000000001
10
12.632233047033601
20
6.100000000000001
42
-0.19891236737968523
10
12.9857864376269
20
5.953553390593299
10
15.353553390593298
20
3.5857864376269077
42
-0.19891236737969009
10
15.500000000000007
20
3.2322330470336027
10
15.500000000000007
20
2.299999999999997
42
-0.41421356237311846
10
15.0
20
1.8000000000000007
10
13.125
20
1.8000000000000007
10
13.125
20
1.4550000000000018
10
14.433553390593303
20
0.1464466094066985
42
0.19891236737966295
10
14.787106781186509
20
0.0
10
19.5
20
0.0
42
-0.41421356237306384
10
20.0
20
-0.5
10
20.0
20
-5.212893218813498
42
0.19891236737963006
10
20.14644660940671
20
-5.566446609406697
10
21.455
20
-6.875
10
21.799999999999997
20
-6.875
10
21.799999999999997
20
-5.0
42
-0.41421356237310025
10
22.300000000000004
20
-4.4999999999999964
10
23.23223304703361
20
-4.5
42
-0.19891236737965962
10
23.585786437626908
20
-4.646446609406695
10
25.9535533905933
20
-7.014213562373101
42
-0.19891236737968881
10
26.099999999999994
20
-7.367766952966399
10
26.099999999999994
20
-12.632233047033601
42
-0.19891236737964368
10
25.9535533905933
20
-12.9857864376269
10
23.585786437626908
20
-15.353553390593298
42
-0.19891236737964577
10
23.232233047033617
20
-15.499999999999998
10
22.300000000000004
20
-15.5
42
-0.41421356237307033
10
21.799999999999997
20
-15.0
10
21.799999999999997
20
-13.125
10
21.455
20
-13.125
10
20.14644660940671
20
-14.4335533905933
42
0.19891236737967982
10
20.0
20
-14.787106781186598
10
20.0
20
-19.5
42
0.41421356237310281
10
20.500000000000007
20
-20.0
10
25.212893218813406
20
-20.0
42
0.19891236737967263
10
25.566446609406697
20
-19.853553390593298
10
26.875
20
-18.545
10
26.875
20
-18.2
10
25.0
20
-18.200000000000003
42
-0.41421356237310025
10
24.5
20
-17.699999999999996
10
24.5
20
-16.7677669529664
42
-0.19891236737966331
10
24.646446609406695
20
-16.4142135623731
10
27.0142135623731
20
-14.046446609406704
42
-0.19891236737970117
10
27.367766952966406
20
-13.899999999999999
10
32.632233047033594
20
-13.899999999999999
42
-0.19891236737961945
10
32.9857864376269
20
-14.0464466094067
10
35.353553390593305
20
-16.4142135623731
42
-0.19891236737975923
10
35.5
20
-16.7677669529664
10
35.5
20
-17.699999999999996
42
-0.41421356237309115
10
35.0
20
-18.2
10
33.125
20
-18.2
10
33.125
20
-18.545
10
34.4335533905933
20
-19.853553390593298
42
0.19891236737963949
10
34.787106781186594
20
-20.0
10
39.5
20
-20.0
42
0.41421356237308332
10
40.0
20
-19.5
10
40.0
20
-14.787106781186598
42
0.19891236737964157
10
39.853553390593305
20
-14.4335533905933
10
38.545
20
-13.125
10
38.2
20
-13.125
10
38.2
20
-15.0
42
-0.41421356237309503
10
37.7
20
-15.499999999999998
10
36.7677669529664
20
-15.500000000000004
42
-0.19891236737959359
10
36.41421356237311
20
-15.3535533905933
10
34.0464466094067
20
-12.9857864376269
42
-0.19891236737971754
10
33.900000000000006
20
-12.632233047033601
10
33.89999999999999
20
-7.367766952966399
42
-0.1989123673796139
10
34.0464466094067
20
-7.014213562373101
10
36.41421356237311
20
-4.646446609406695
42
-0.19891236737968224
10
36.7677669529664
20
-4.4999999999999964
10
37.7
20
-4.5
42
-0.41421356237309503
10
38.2
20
-5.0
10
38.2
20
-6.875
10
38.545
20
-6.875
10
39.853553390593305
20
-5.566446609406697
42
0.19891236737964199
10
40.0
20
-5.212893218813498
10
40.0
20
5.212893218813399
42
0.19891236737963894
10
39.853553390593305
20
5.566446609406697
10
38.545
20
6.875
10
38.2
20
6.875
10
38.2
20
5.0
42
-0.4142135623730846
10
37.7
20
4.5
10
36.7677669529664
20
4.500000000000014
42
-0.19891236737958379
10
36.41421356237311
20
4.646446609406702
10
34.0464466094067
20
7.014213562373101
42
-0.19891236737971593
10
33.900000000000006
20
7.367766952966399
10
33.900000000000006
20
12.632233047033594
42
-0.19891236737962811
10
34.0464466094067
20
12.9857864376269
10
36.41421356237311
20
15.353553390593298
42
-0.19891236737968052
10
36.7677669529664
20
15.5
10
37.7
20
15.5
42
-0.41421356237309503
10
38.2
20
15.0
10
38.2
20
13.125
10
38.545
20
13.125
10
39.853553390593305
20
14.433553390593303
42
0.1989123673796403
10
40.0
20
14.787106781186495
10
40.0
20
19.5
42
0.41421356237306384
10
39.5
20
20.0
10
34.787106781186594
20
20.0
42
0.19891236737969953
10
34.4335533905933
20
19.853553390593305
10
33.125
20
18.54500000000001
10
33.125
20
18.200000000000003
10
35.0
20
18.199999999999996
42
-0.41421356237315748
10
35.5
20
17.700000000000003
10
35.5
20
16.767766952966397
42
-0.1989123673796169
10
35.353553390593305
20
16.4142135623731
10
32.9857864376269
20
14.046446609406694
42
-0.19891236737965037
10
32.63223304703361
20
13.899999999999999
10
27.367766952966406
20
13.899999999999999
42
-0.19891236737964116
0
LWPOLYLINE
5
113
100
AcDbEntity
8
0
100
AcDbPolyline
90
22
70
1
43
0.0
10
14.0464466094067
20
12.9857864376269
10
16.853553390593305
20
15.792893218813397
42
0.1989123673795789
10
17.0
20
16.146446609406702
10
17.0
20
17.700000000000003
42
-0.41421356237309503
10
17.5
20
18.200000000000003
10
22.5
20
18.200000000000003
42
-0.41421356237310025
10
23.000000000000007
20
17.700000000000003
10
23.000000000000007
20
16.1464466094068
42
0.19891236737964382
10
23.14644660940671
20
15.792893218813504
10
25.9535533905933
20
12.9857864376269
42
-0.19891236737968651
10
26.099999999999994
20
12.632233047033608
10
26.10000000000001
20
7.367766952966399
42
-0.19891236737963341
10
25.9535533905933
20
7.014213562373101
10
20.88578643762689
20
1.9464466094067063
42
-0.19891236737968684
10
20.5322330470336
20
1.8000000000000007
10
17.5
20
1.7999999999999972
42
-0.41421356237303519
10
17.0
20
2.299999999999997
10
17.0
20
3.853553390593298
42
0.1989123673797174
10
16.853553390593305
20
4.207106781186511
10
14.0464466094067
20
7.014213562373101
42
-0.19891236737965984
10
13.900000000000006
20
7.367766952966399
10
13.900000000000006
20
12.632233047033594
42
-0.19891236737962811
0
LWPOLYLINE
5
114
100
AcDbEntity
8
0
100
AcDbPolyline
90
22
70
1
43
0.0
10
-25.9535533905933
20
12.9857864376269
10
-23.146446609406695
20
15.792893218813397
42
0.19891236737956691
10
-23.0
20
16.146446609406702
10
-22.999999999999996
20
17.700000000000003
42
-0.4142135623730937
10
-22.5
20
18.200000000000003
10
-17.5
20
18.200000000000003
42
-0.41421356237309503
10
-16.999999999999996
20
17.700000000000003
10
-16.999999999999996
20
16.1464466094068
42
0.19891236737962184
10
-16.853553390593298
20
15.792893218813504
10
-14.0464466094067
20
12.9857864376269
42
-0.19891236737966159
10
-13.899999999999999
20
12.632233047033601
10
-13.899999999999999
20
7.367766952966399
42
-0.19891236737967496
10
-14.0464466094067
20
7.014213562373101
10
-16.853553390593298
20
4.207106781186603
42
0.19891236737955989
10
-16.999999999999996
20
3.853553390593298
10
-16.999999999999993
20
2.299999999999997
42
-0.41421356237308982
10
-17.5
20
1.8000000000000007
10
-20.5322330470336
20
1.8000000000000007
42
-0.19891236737956233
10
-20.8857864376269
20
1.9464466094066992
10
-25.9535533905933
20
7.014213562373101
42
-0.19891236737966228
10
-26.099999999999998
20
7.367766952966399
10
-26.099999999999994
20
12.632233047033601
42
-0.19891236737965581
0
LWPOLYLINE
5
115
100
AcDbEntity
8
0
100
AcDbPolyline
90
22
70
1
43
0.0
10
-21.8
20
0.5322330470336993
10
-21.799999999999997
20
-2.5
42
-0.41421356237307683
10
-22.3
20
-3.0
10
-23.8535533905933
20
-3.0
42
0.19891236737967832
10
-24.207106781186496
20
-3.146446609406695
10
-27.0142135623731
20
-5.953553390593296
42
-0.19891236737965512
10
-27.367766952966402
20
-6.099999999999998
10
-32.63223304703362
20
-6.099999999999998
42
-0.19891236737961276
10
-32.9857864376269
20
-5.953553390593296
10
-35.79289321881345
20
-3.146446609406695
42
0.19891236737963489
10
-36.146446609406716
20
-3.0
10
-37.7
20
-3.0
42
-0.41421356237308415
10
-38.2
20
-2.5
10
-38.2
20
2.5
42
-0.41421356237311974
10
-37.7
20
3.0
10
-36.14644660940675
20
3.0
42
0.19891236737961362
10
-35.79289321881348
20
3.146446609406709
10
-32.9857864376269
20
5.953553390593299
42
-0.19891236737963747
10
-32.63223304703362
20
6.100000000000001
10
-27.367766952966402
20
6.100000000000001
42
-0.19891236737962786
10
-27.0142135623731
20
5.953553390593299
10
-21.9464466094067
20
0.8857864376269049
42
-0.19891236737966192
0
LWPOLYLINE
5
116
100
AcDbEntity
8
0
100
AcDbPolyline
90
22
70
1
43
0.0
10
21.946446609406706
20
0.8857864376269049
10
27.0142135623731
20
5.953553390593299
42
-0.19891236737968684
10
27.367766952966406
20
6.100000000000001
10
32.632233047033594
20
6.1000000000000085
42
-0.19891236737959325
10
32.9857864376269
20
5.953553390593299
10
35.792893218813404
20
3.146446609406709
42
0.19891236737957915
10
36.146446609406695
20
3.0
10
37.7
20
3.000000000000007
42
-0.41421356237308982
10
38.2
20
2.5
10
38.2
20
-2.5
42
-0.4142135623730846
10
37.7
20
-3.0
10
36.146446609406695
20
-3.0
42
0.19891236737967732
10
35.792893218813504
20
-3.146446609406695
10
32.9857864376269
20
-5.953553390593296
42
-0.19891236737963597
10
32.632233047033594
20
-6.099999999999998
10
27.367766952966406
20
-6.100000000000001
42
-0.19891236737965362
10
27.0142135623731
20
-5.953553390593296
10
24.207106781186596
20
-3.146446609406695
42
0.19891236737958543
10
23.853553390593305
20
-3.0
10
22.300000000000004
20
-2.999999999999993
42
-0.41421356237310802
10
21.799999999999997
20
-2.5
10
21.799999999999997
20
0.5322330470336993
42
-0.19891236737969079
0
CIRCLE
5
117
100
AcDbEntity
8
0
100
AcDbCircle
10
30.0
20
9.999999999999993
30
0
40
2.099999999999993
210
0
220
-0
230
1
0
CIRCLE
5
118
100
AcDbEntity
8
0
100
AcDbCircle
10
29.999999999999986
20
-10.000000000000004
30
0
40
2.0999999999999979
210
0
220
-0
230
1
0
CIRCLE
5
119
100
AcDbEntity
8
0
100
AcDbCircle
10
-30.0
20
-9.999999999999996
30
0
40
2.1000000000000032
210
0
220
-0
230
1
0
CIRCLE
5
120
100
AcDbEntity
8
0
100
AcDbCircle
10
-29.999999999999986
20
10.0
30
0
40
2.1000000000000005
210
0
220
-0
230
1
0
LWPOLYLINE
5
121
100
AcDbEntity
8
0
100
AcDbPolyline
90
24
70
1
43
0.0
10
-3.0
20
16.146446609406702
10
-3.0
20
17.700000000000003
42
-0.41421356237309503
10
-2.5
20
18.200000000000003
10
2.5
20
18.200000000000003
42
-0.41421356237309503
10
3.0
20
17.700000000000003
10
3.0
20
16.1464466094068
42
0.19891236737966475
10
3.146446609406709
20
15.792893218813504
10
5.9535533905933065
20
12.9857864376269
42
-0.19891236737967405
10
6.100000000000001
20
12.632233047033601
10
6.100000000000001
20
7.367766952966399
42
-0.19891236737962406
10
5.9535533905933065
20
7.014213562373101
10
3.146446609406709
20
4.207106781186603
42
0.19891236737957288
10
3.0
20
3.853553390593305
10
2.999999999999986
20
2.299999999999997
42
-0.41421356237309764
10
2.5
20
1.8000000000000007
10
-2.5
20
1.8000000000000007
42
-0.41421356237306384
10
-3.0
20
2.299999999999997
10
-3.0
20
3.853553390593298
42
0.198912367379697
10
-3.146446609406702
20
4.207106781186511
10
-5.953553390593299
20
7.014213562373101
42
-0.19891236737965362
10
-6.100000000000001
20
7.367766952966399
10
-6.100000000000001
20
12.632233047033601
42
-0.19891236737966159
10
-5.953553390593299
20
12.9857864376269
10
-3.146446609406702
20
15.792893218813397
42
0.19891236737958706
0
CIRCLE
5
122
100
AcDbEntity
8
0
100
AcDbCircle
10
-9.999999999999996
20
9.999999999999993
30
0
40
2.1000000000000032
210
0
220
-0
230
1
0
CIRCLE
5
123
100
AcDbEntity
8
0
100
AcDbCircle
10
10.000000000000007
20
9.999999999999986
30
0
40
2.100000000000009
210
0
220
-0
230
1
0
ENDSEC
0
SECTION
2
OBJECTS
0
DICTIONARY
5
C
100
AcDbDictionary
3
ACAD_GROUP
350
D
3
ACAD_MLINESTYLE
350
17
0
DICTIONARY
5
D
100
AcDbDictionary
0
DICTIONARY
5
1A
330
C
100
AcDbDictionary
0
DICTIONARY
5
17
100
AcDbDictionary
0
ENDSEC
0
EOF
