0
SECTION
2
HEADER
9
$INSUNITS
70
4
9
$ACADVER
1
AC1014
9
$HANDSEED
5
FFFF
0
ENDSEC
0
SECTION
2
TABLES
0
TABLE
2
VPORT
5
8
100
AcDbSymbolTable
0
ENDTAB
0
TABLE
2
LTYPE
5
5
100
AcDbSymbolTable
0
LTYPE
5
14
100
AcDbSymbolTableRecord
100
AcDbLinetypeTableRecord
2
BYBLOCK
70
0
0
LTYPE
5
15
100
AcDbSymbolTableRecord
100
AcDbLinetypeTableRecord
2
BYLAYER
70
0
0
LTYPE
5
16
100
AcDbSymbolTableRecord
100
AcDbLinetypeTableRecord
2
DASHED
70
0
3
Dashed __ __ __ __ __ __ __ __ __ __ __ __ __ _
72
65
73
2
40
0.75
49
0.5
74
0
49
-0.25
74
0
0
ENDTAB
0
TABLE
2
LAYER
5
2
100
AcDbSymbolTable
70
2
0
LAYER
5
50
100
AcDbSymbolTableRecord
100
AcDbLayerTableRecord
2
0
70
0
62
7
6
CONTINUOUS
0
ENDTAB
0
TABLE
2
STYLE
5
3
100
AcDbSymbolTable
70
1
0
STYLE
5
11
100
AcDbSymbolTableRecord
100
AcDbTextStyleTableRecord
2
STANDARD
70
0
0
ENDTAB
0
TABLE
2
VIEW
5
6
100
AcDbSymbolTable
70
0
0
ENDTAB
0
TABLE
2
UCS
5
7
100
AcDbSymbolTable
70
0
0
ENDTAB
0
TABLE
2
APPID
5
9
100
AcDbSymbolTable
70
2
0
APPID
5
12
100
AcDbSymbolTableRecord
100
AcDbRegAppTableRecord
2
ACAD
70
0
0
ENDTAB
0
TABLE
2
DIMSTYLE
5
A
100
AcDbSymbolTable
70
1
0
ENDTAB
0
TABLE
2
BLOCK_RECORD
5
1
100
AcDbSymbolTable
70
1
0
BLOCK_RECORD
5
1F
100
AcDbSymbolTableRecord
100
AcDbBlockTableRecord
2
*MODEL_SPACE
0
BLOCK_RECORD
5
1B
100
AcDbSymbolTableRecord
100
AcDbBlockTableRecord
2
*PAPER_SPACE
0
ENDTAB
0
ENDSEC
0
SECTION
2
BLOCKS
0
BLOCK
5
20
100
AcDbEntity
100
AcDbBlockBegin
2
*MODEL_SPACE
0
ENDBLK
5
21
100
AcDbEntity
100
AcDbBlockEnd
0
BLOCK
5
1C
100
AcDbEntity
100
AcDbBlockBegin
2
*PAPER_SPACE
0
ENDBLK
5
1D
100
AcDbEntity
100
AcDbBlockEnd
0
ENDSEC
0
SECTION
2
ENTITIES
0
LWPOLYLINE
5
100
100
AcDbEntity
8
0
100
AcDbPolyline
90
88
70
1
43
0.0
10
63.23223304703361
20
-45.5
10
62.300000000000004
20
-45.5
42
-0.41421356237312101
10
61.799999999999997
20
-45
10
61.799999999999997
20
-43.125
10
61.454999999999998
20
-43.125
10
60.146446609406709
20
-44.433553390593303
42
0.19891236737959525
10
60
20
-44.787106781186601
10
60
20
-49.5
42
0.4142135623730846
10
60.500000000000007
20
-50
10
65.212893218813406
20
-50
42
0.19891236737967263
10
65.566446609406697
20
-49.853553390593305
10
66.875
20
-48.545000000000009
10
66.875
20
-48.200000000000003
10
65
20
-48.200000000000003
42
-0.41421356237311585
10
64.5
20
-47.700000000000003
10
64.5
20
-46.767766952966397
42
-0.1989123673796169
10
64.646446609406695
20
-46.414213562373099
10
67.014213562373101
20
-44.046446609406701
42
-0.19891236737967266
10
67.367766952966406
20
-43.899999999999999
10
72.632233047033594
20
-43.899999999999999
42
-0.19891236737966145
10
72.985786437626899
20
-44.046446609406701
10
75.353553390593305
20
-46.414213562373099
42
-0.19891236737966284
10
75.5
20
-46.767766952966397
10
75.5
20
-47.700000000000003
42
-0.41421356237308982
10
75
20
-48.200000000000003
10
73.125
20
-48.200000000000003
10
73.125
20
-48.545000000000009
10
74.433553390593303
20
-49.853553390593305
42
0.19891236737965823
10
74.787106781186594
20
-50
10
79.5
20
-50
42
0.41421356237306384
10
80
20
-49.5
10
80
20
-44.787106781186601
42
0.19891236737959928
10
79.853553390593305
20
-44.433553390593303
10
78.545000000000002
20
-43.125
10
78.200000000000003
20
-43.125
10
78.200000000000003
20
-45
42
-0.4142135623730846
10
77.700000000000003
20
-45.5
10
76.767766952966397
20
-45.5
42
-0.19891236737967266
10
76.414213562373106
20
-45.353553390593298
10
74.046446609406701
20
-42.985786437626899
42
-0.19891236737962015
10
73.900000000000006
20
-42.632233047033601
10
73.900000000000006
20
-37.367766952966406
42
-0.19891236737965107
10
74.046446609406701
20
-37.014213562373101
10
76.414213562373106
20
-34.646446609406702
42
-0.19891236737962373
10
76.767766952966397
20
-34.5
10
77.699999999999989
20
-34.5
42
-0.41421356237307683
10
78.200000000000003
20
-35
10
78.200000000000003
20
-36.875
10
78.545000000000002
20
-36.875
10
79.853553390593305
20
-35.566446609406697
42
0.19891236737964685
10
80
20
-35.212893218813399
10
80
20
-30.500000000000004
42
0.41421356237307422
10
79.5
20
-30
10
74.787106781186594
20
-30
42
0.19891236737963461
10
74.433553390593303
20
-30.146446609406699
10
73.125
20
-31.455000000000002
10
73.125
20
-31.800000000000001
10
75
20
-31.800000000000004
42
-0.41421356237313928
10
75.5
20
-32.299999999999997
10
75.5
20
-33.232233047033603
42
-0.1989123673796169
10
75.353553390593305
20
-33.585786437626901
10
72.985786437626899
20
-35.953553390593299
42
-0.19891236737971535
10
72.632233047033594
20
-36.100000000000001
10
67.367766952966406
20
-36.100000000000001
42
-0.19891236737968523
10
67.014213562373101
20
-35.953553390593299
10
64.646446609406695
20
-33.585786437626901
42
-0.19891236737966447
10
64.5
20
-33.232233047033603
10
64.5
20
-32.299999999999997
42
-0.41421356237308204
10
65
20
-31.800000000000001
10
66.875
20
-31.800000000000001
10
66.875
20
-31.455000000000002
10
65.566446609406697
20
-30.146446609406699
42
0.19891236737967566
10
65.212893218813406
20
-30
10
60.500000000000007
20
-30
42
0.41421356237309503
10
60
20
-30.500000000000004
10
60
20
-35.212893218813399
42
0.1989123673796539
10
60.146446609406709
20
-35.566446609406697
10
61.454999999999998
20
-36.875
10
61.799999999999997
20
-36.875
10
61.799999999999997
20
-35
42
-0.41421356237313145
10
62.300000000000004
20
-34.5
10
63.23223304703361
20
-34.5
42
-0.19891236737963308
10
63.585786437626908
20
-34.646446609406702
10
65.953553390593299
20
-37.014213562373101
42
-0.19891236737968615
10
66.099999999999994
20
-37.367766952966406
10
66.099999999999994
20
-42.632233047033601
42
-0.19891236737958021
10
65.953553390593299
20
-42.985786437626899
10
63.585786437626908
20
-45.353553390593298
42
-0.19891236737973891
0
CIRCLE
5
101
100
AcDbEntity
8
0
100
AcDbCircle
10
70
20
-40.000000000000007
30
1.1102230246251565e-15
40
2.0999999999999894
210
2.4275571330135972e-17
220
-9.4377150946583119e-16
230
1
0
LWPOLYLINE
5
102
100
AcDbEntity
8
0
100
AcDbPolyline
90
88
70
1
43
0.0
10
63.23223304703361
20
-45.5
10
62.300000000000004
20
-45.5
42
-0.41421356237313145
10
61.799999999999997
20
-45
10
61.799999999999997
20
-43.125
10
61.454999999999998
20
-43.125
10
60.146446609406709
20
-44.433553390593303
42
0.19891236737959062
10
60
20
-44.787106781186594
10
60
20
-49.5
42
0.4142135623730846
10
60.500000000000007
20
-50
10
65.212893218813406
20
-50
42
0.19891236737967263
10
65.566446609406697
20
-49.853553390593305
10
66.875
20
-48.545000000000009
10
66.875
20
-48.200000000000003
10
65
20
-48.199999999999996
42
-0.41421356237313145
10
64.5
20
-47.700000000000003
10
64.5
20
-46.767766952966397
42
-0.19891236737962348
10
64.646446609406695
20
-46.414213562373099
10
67.014213562373101
20
-44.046446609406701
42
-0.19891236737968709
10
67.367766952966406
20
-43.899999999999999
10
72.632233047033594
20
-43.899999999999999
42
-0.19891236737962673
10
72.985786437626899
20
-44.046446609406701
10
75.353553390593305
20
-46.414213562373099
42
-0.19891236737966608
10
75.5
20
-46.767766952966397
10
75.5
20
-47.700000000000003
42
-0.41421356237307944
10
75
20
-48.200000000000003
10
73.125
20
-48.200000000000003
10
73.125
20
-48.545000000000009
10
74.433553390593303
20
-49.853553390593305
42
0.19891236737965362
10
74.78710678118658
20
-50
10
79.5
20
-50
42
0.41421356237306384
10
80
20
-49.5
10
80
20
-44.787106781186601
42
0.19891236737959928
10
79.853553390593305
20
-44.433553390593303
10
78.545000000000002
20
-43.125
10
78.200000000000003
20
-43.125
10
78.200000000000003
20
-45
42
-0.41421356237309503
10
77.700000000000003
20
-45.5
10
76.767766952966397
20
-45.5
42
-0.1989123673796647
10
76.414213562373106
20
-45.353553390593298
10
74.046446609406701
20
-42.985786437626899
42
-0.19891236737960122
10
73.900000000000006
20
-42.632233047033601
10
73.900000000000006
20
-37.367766952966399
42
-0.19891236737966284
10
74.046446609406701
20
-37.014213562373101
10
76.414213562373106
20
-34.646446609406702
42
-0.19891236737961229
10
76.767766952966412
20
-34.5
10
77.700000000000003
20
-34.5
42
-0.4142135623730846
10
78.200000000000003
20
-35
10
78.200000000000003
20
-36.875
10
78.545000000000002
20
-36.875
10
79.853553390593305
20
-35.566446609406697
42
0.19891236737964685
10
80
20
-35.212893218813399
10
80
20
-30.500000000000004
42
0.41421356237307422
10
79.5
20
-30
10
74.787106781186594
20
-30
42
0.19891236737963461
10
74.433553390593303
20
-30.146446609406699
10
73.125
20
-31.455000000000002
10
73.125
20
-31.800000000000001
10
75
20
-31.800000000000011
42
-0.41421356237314705
10
75.5
20
-32.299999999999997
10
75.5
20
-33.232233047033603
42
-0.1989123673796169
10
75.353553390593305
20
-33.585786437626901
10
72.985786437626899
20
-35.953553390593299
42
-0.1989123673796992
10
72.632233047033594
20
-36.100000000000001
10
67.367766952966406
20
-36.100000000000001
42
-0.19891236737968684
10
67.014213562373101
20
-35.953553390593299
10
64.646446609406695
20
-33.585786437626901
42
-0.19891236737965984
10
64.5
20
-33.23223304703361
10
64.5
20
-32.299999999999997
42
-0.41421356237308721
10
65
20
-31.800000000000001
10
66.875
20
-31.800000000000001
10
66.875
20
-31.455000000000002
10
65.566446609406697
20
-30.146446609406699
42
0.19891236737967566
10
65.212893218813406
20
-30
10
60.500000000000007
20
-30
42
0.41421356237309503
10
60
20
-30.500000000000004
10
60
20
-35.212893218813399
42
0.1989123673796539
10
60.146446609406709
20
-35.566446609406697
10
61.454999999999998
20
-36.875
10
61.799999999999997
20
-36.875
10
61.799999999999997
20
-35
42
-0.41421356237312101
10
62.300000000000004
20
-34.5
10
63.23223304703361
20
-34.500000000000007
42
-0.19891236737963919
10
63.585786437626908
20
-34.646446609406702
10
65.953553390593299
20
-37.014213562373101
42
-0.19891236737969678
10
66.099999999999994
20
-37.367766952966399
10
66.09999999999998
20
-42.632233047033601
42
-0.19891236737958481
10
65.953553390593299
20
-42.985786437626899
10
63.585786437626908
20
-45.353553390593298
42
-0.19891236737971213
0
CIRCLE
5
103
100
AcDbEntity
8
0
100
AcDbCircle
10
70
20
-40.000000000000007
30
0
40
2.0999999999999894
210
0
220
-0
230
1
0
ENDSEC
0
SECTION
2
OBJECTS
0
DICTIONARY
5
C
100
AcDbDictionary
3
ACAD_GROUP
350
D
3
ACAD_MLINESTYLE
350
17
0
DICTIONARY
5
D
100
AcDbDictionary
0
DICTIONARY
5
1A
330
C
100
AcDbDictionary
0
DICTIONARY
5
17
100
AcDbDictionary
0
ENDSEC
0
EOF
