0
SECTION
2
HEADER
9
$INSUNITS
70
4
9
$ACADVER
1
AC1014
9
$HANDSEED
5
FFFF
0
ENDSEC
0
SECTION
2
TABLES
0
TABLE
2
VPORT
5
8
100
AcDbSymbolTable
0
ENDTAB
0
TABLE
2
LTYPE
5
5
100
AcDbSymbolTable
0
LTYPE
5
14
100
AcDbSymbolTableRecord
100
AcDbLinetypeTableRecord
2
BYBLOCK
70
0
0
LTYPE
5
15
100
AcDbSymbolTableRecord
100
AcDbLinetypeTableRecord
2
BYLAYER
70
0
0
LTYPE
5
16
100
AcDbSymbolTableRecord
100
AcDbLinetypeTableRecord
2
DASHED
70
0
3
Dashed __ __ __ __ __ __ __ __ __ __ __ __ __ _
72
65
73
2
40
0.75
49
0.5
74
0
49
-0.25
74
0
0
ENDTAB
0
TABLE
2
LAYER
5
2
100
AcDbSymbolTable
70
2
0
LAYER
5
50
100
AcDbSymbolTableRecord
100
AcDbLayerTableRecord
2
0
70
0
62
7
6
CONTINUOUS
0
ENDTAB
0
TABLE
2
STYLE
5
3
100
AcDbSymbolTable
70
1
0
STYLE
5
11
100
AcDbSymbolTableRecord
100
AcDbTextStyleTableRecord
2
STANDARD
70
0
0
ENDTAB
0
TABLE
2
VIEW
5
6
100
AcDbSymbolTable
70
0
0
ENDTAB
0
TABLE
2
UCS
5
7
100
AcDbSymbolTable
70
0
0
ENDTAB
0
TABLE
2
APPID
5
9
100
AcDbSymbolTable
70
2
0
APPID
5
12
100
AcDbSymbolTableRecord
100
AcDbRegAppTableRecord
2
ACAD
70
0
0
ENDTAB
0
TABLE
2
DIMSTYLE
5
A
100
AcDbSymbolTable
70
1
0
ENDTAB
0
TABLE
2
BLOCK_RECORD
5
1
100
AcDbSymbolTable
70
1
0
BLOCK_RECORD
5
1F
100
AcDbSymbolTableRecord
100
AcDbBlockTableRecord
2
*MODEL_SPACE
0
BLOCK_RECORD
5
1B
100
AcDbSymbolTableRecord
100
AcDbBlockTableRecord
2
*PAPER_SPACE
0
ENDTAB
0
ENDSEC
0
SECTION
2
BLOCKS
0
BLOCK
5
20
100
AcDbEntity
100
AcDbBlockBegin
2
*MODEL_SPACE
0
ENDBLK
5
21
100
AcDbEntity
100
AcDbBlockEnd
0
BLOCK
5
1C
100
AcDbEntity
100
AcDbBlockBegin
2
*PAPER_SPACE
0
ENDBLK
5
1D
100
AcDbEntity
100
AcDbBlockEnd
0
ENDSEC
0
SECTION
2
ENTITIES
0
LWPOLYLINE
5
100
100
AcDbEntity
8
0
100
AcDbPolyline
90
168
70
1
43
0.0
10
-32.985786437626899
20
44.046446609406701
10
-35.353553390593305
20
46.414213562373099
42
-0.19891236737965037
10
-35.5
20
46.767766952966397
10
-35.5
20
47.699999999999996
42
-0.41421356237312884
10
-35
20
48.200000000000003
10
-33.125
20
48.200000000000003
10
-33.125
20
48.545000000000009
10
-34.433553390593303
20
49.853553390593305
42
0.19891236737966217
10
-34.787106781186601
20
50
10
-45.212893218813505
20
50
42
0.19891236737972165
10
-45.566446609406697
20
49.853553390593305
10
-46.875
20
48.545000000000009
10
-46.875
20
48.200000000000003
10
-45
20
48.200000000000003
42
-0.41421356237309503
10
-44.5
20
47.700000000000003
10
-44.5
20
46.767766952966397
42
-0.19891236737966284
10
-44.646446609406702
20
46.414213562373099
10
-47.014213562373108
20
44.046446609406701
42
-0.1989123673796333
10
-47.367766952966399
20
43.899999999999999
10
-52.632233047033601
20
43.899999999999999
42
-0.19891236737962212
10
-52.985786437626899
20
44.046446609406701
10
-55.353553390593298
20
46.414213562373092
42
-0.19891236737963791
10
-55.500000000000007
20
46.767766952966397
10
-55.500000000000007
20
47.700000000000003
42
-0.41421356237308982
10
-55
20
48.200000000000003
10
-53.125
20
48.200000000000003
10
-53.125
20
48.545000000000009
10
-54.433553390593303
20
49.853553390593305
42
0.19891236737967863
10
-54.787106781186601
20
50
10
-59.5
20
50
42
0.41421356237306384
10
-60
20
49.5
10
-60
20
44.787106781186509
42
0.19891236737964554
10
-59.853553390593305
20
44.433553390593303
10
-58.545000000000009
20
43.125
10
-58.200000000000003
20
43.125
10
-58.200000000000003
20
45
42
-0.41421356237309503
10
-57.700000000000003
20
45.5
10
-56.767766952966397
20
45.5
42
-0.1989123673796169
10
-56.414213562373099
20
45.353553390593298
10
-54.046446609406701
20
42.985786437626899
42
-0.19891236737962015
10
-53.900000000000006
20
42.632233047033601
10
-53.900000000000006
20
37.367766952966399
42
-0.19891236737966214
10
-54.046446609406701
20
37.014213562373101
10
-56.414213562373106
20
34.646446609406702
42
-0.19891236737959325
10
-56.767766952966397
20
34.500000000000007
10
-57.699999999999996
20
34.500000000000007
42
-0.41421356237308204
10
-58.200000000000003
20
35
10
-58.200000000000003
20
36.875
10
-58.545000000000009
20
36.875
10
-59.853553390593305
20
35.566446609406697
42
0.19891236737961787
10
-60
20
35.212893218813399
10
-60
20
24.787106781186502
42
0.19891236737966286
10
-59.853553390593305
20
24.433553390593303
10
-58.545000000000009
20
23.125
10
-58.200000000000003
20
23.125
10
-58.200000000000003
20
25
42
-0.41421356237309764
10
-57.700000000000003
20
25.500000000000004
10
-56.767766952966397
20
25.500000000000004
42
-0.1989123673796438
10
-56.414213562373099
20
25.353553390593305
10
-54.046446609406701
20
22.985786437626899
42
-0.19891236737962581
10
-53.900000000000006
20
22.632233047033601
10
-53.900000000000006
20
17.367766952966399
42
-0.19891236737966886
10
-54.046446609406701
20
17.014213562373101
10
-56.414213562373099
20
14.6464466094067
42
-0.19891236737961529
10
-56.767766952966397
20
14.500000000000004
10
-57.699999999999996
20
14.500000000000007
42
-0.41421356237308204
10
-58.200000000000003
20
15
10
-58.200000000000003
20
16.875
10
-58.545000000000009
20
16.875
10
-59.853553390593305
20
15.5664466094067
42
0.19891236737961454
10
-60
20
15.212893218813502
10
-60
20
10.5
42
0.41421356237308332
10
-59.5
20
10.000000000000004
10
-54.787106781186601
20
10
42
0.19891236737965579
10
-54.433553390593303
20
10.146446609406699
10
-53.125
20
11.455
10
-53.125
20
11.800000000000001
10
-55
20
11.799999999999999
42
-0.41421356237310281
10
-55.500000000000007
20
12.300000000000002
10
-55.500000000000007
20
13.232233047033599
42
-0.19891236737973059
10
-55.353553390593298
20
13.585786437626901
10
-52.985786437626899
20
15.953553390593299
42
-0.19891236737964241
10
-52.632233047033601
20
16.100000000000001
10
-47.367766952966399
20
16.100000000000001
42
-0.19891236737965604
10
-47.014213562373108
20
15.953553390593299
10
-44.646446609406702
20
13.585786437626901
42
-0.19891236737970566
10
-44.5
20
13.232233047033599
10
-44.5
20
12.300000000000002
42
-0.41421356237309764
10
-45
20
11.800000000000001
10
-46.875
20
11.800000000000001
10
-46.875
20
11.455
10
-45.566446609406697
20
10.1464466094067
42
0.19891236737967105
10
-45.212893218813505
20
10
10
-34.787106781186601
20
10
42
0.19891236737965515
10
-34.433553390593303
20
10.1464466094067
10
-33.125
20
11.455
10
-33.125
20
11.800000000000001
10
-35
20
11.799999999999999
42
-0.41421356237310025
10
-35.5
20
12.300000000000002
10
-35.5
20
13.232233047033599
42
-0.19891236737967774
10
-35.353553390593298
20
13.585786437626901
10
-32.985786437626899
20
15.953553390593299
42
-0.19891236737966064
10
-32.632233047033601
20
16.100000000000001
10
-27.367766952966402
20
16.100000000000001
42
-0.19891236737964807
10
-27.014213562373101
20
15.953553390593299
10
-24.646446609406702
20
13.585786437626901
42
-0.19891236737966203
10
-24.5
20
13.232233047033599
10
-24.5
20
12.300000000000002
42
-0.41421356237308982
10
-25
20
11.800000000000001
10
-26.875
20
11.800000000000001
10
-26.875
20
11.455
10
-25.5664466094067
20
10.1464466094067
42
0.19891236737966539
10
-25.212893218813505
20
9.9999999999999982
10
-20.500000000000004
20
10
42
0.41421356237310025
10
-20
20
10.5
10
-20
20
15.212893218813402
42
0.19891236737966056
10
-20.146446609406699
20
15.5664466094067
10
-21.454999999999998
20
16.875
10
-21.800000000000001
20
16.875
10
-21.800000000000004
20
15
42
-0.41421356237309631
10
-22.300000000000001
20
14.500000000000002
10
-23.232233047033599
20
14.500000000000004
42
-0.19891236737964219
10
-23.585786437626904
20
14.6464466094067
10
-25.953553390593299
20
17.014213562373101
42
-0.19891236737965673
10
-26.100000000000001
20
17.367766952966399
10
-26.100000000000001
20
22.632233047033601
42
-0.19891236737966861
10
-25.953553390593299
20
22.985786437626899
10
-23.585786437626904
20
25.353553390593298
42
-0.19891236737966447
10
-23.232233047033599
20
25.500000000000004
10
-22.300000000000001
20
25.500000000000004
42
-0.41421356237309764
10
-21.800000000000001
20
25
10
-21.800000000000001
20
23.125
10
-21.454999999999998
20
23.125
10
-20.146446609406699
20
24.433553390593303
42
0.19891236737965901
10
-20
20
24.787106781186495
10
-20
20
35.212893218813399
42
0.19891236737965823
10
-20.146446609406699
20
35.566446609406697
10
-21.454999999999998
20
36.875
10
-21.800000000000001
20
36.875
10
-21.800000000000001
20
35
42
-0.41421356237309503
10
-22.300000000000001
20
34.5
10
-23.232233047033599
20
34.5
42
-0.19891236737963133
10
-23.585786437626904
20
34.646446609406702
10
-25.953553390593306
20
37.014213562373101
42
-0.19891236737965037
10
-26.100000000000001
20
37.367766952966399
10
-26.100000000000009
20
42.632233047033601
42
-0.19891236737965362
10
-25.953553390593299
20
42.985786437626899
10
-23.585786437626904
20
45.353553390593298
42
-0.1989123673796723
10
-23.232233047033599
20
45.5
10
-22.300000000000001
20
45.5
42
-0.41421356237309503
10
-21.800000000000001
20
45
10
-21.800000000000001
20
43.125
10
-21.454999999999998
20
43.125
10
-20.146446609406699
20
44.433553390593303
42
0.19891236737964224
10
-20
20
44.787106781186509
10
-20
20
49.5
42
0.4142135623730846
10
-20.500000000000004
20
50
10
-25.212893218813402
20
50
42
0.1989123673797121
10
-25.5664466094067
20
49.853553390593305
10
-26.875
20
48.545000000000009
10
-26.875
20
48.200000000000003
10
-25
20
48.200000000000003
42
-0.41421356237310542
10
-24.5
20
47.700000000000003
10
-24.5
20
46.767766952966397
42
-0.19891236737966123
10
-24.646446609406702
20
46.414213562373099
10
-27.014213562373101
20
44.046446609406701
42
-0.19891236737963791
10
-27.367766952966402
20
43.899999999999999
10
-32.632233047033601
20
43.899999999999999
42
-0.19891236737963006
0
LWPOLYLINE
5
101
100
AcDbEntity
8
0
100
AcDbPolyline
90
64
70
1
43
0.0
10
-32.692893218813403
20
36.100000000000001
10
-27.367766952966402
20
36.100000000000001
42
-0.19891236737963688
10
-27.014213562373101
20
35.953553390593299
10
-24.207106781186599
20
33.146446609406709
42
0.1989123673795736
10
-23.853553390593301
20
33
10
-22.300000000000001
20
33
42
-0.41421356237309243
10
-21.800000000000001
20
32.5
10
-21.800000000000001
20
27.5
42
-0.4142135623730534
10
-22.300000000000001
20
27
10
-23.853553390593301
20
27
42
0.19891236737969378
10
-24.207106781186503
20
26.853553390593305
10
-27.014213562373101
20
24.046446609406701
42
-0.19891236737965037
10
-27.367766952966402
20
23.900000000000002
10
-32.692893218813403
20
23.900000000000002
42
0.198912367379632
10
-33.046446609406701
20
23.753553390593304
10
-33.753553390593297
20
23.046446609406704
42
0.19891236737957593
10
-33.899999999999999
20
22.692893218813399
10
-33.899999999999999
20
17.367766952966399
42
-0.19891236737967946
10
-34.046446609406701
20
17.014213562373101
10
-36.853553390593298
20
14.2071067811865
42
0.19891236737962498
10
-37
20
13.853553390593301
10
-37
20
12.300000000000002
42
-0.41421356237309764
10
-37.5
20
11.800000000000001
10
-42.5
20
11.800000000000004
42
-0.41421356237310542
10
-43
20
12.300000000000002
10
-43
20
13.853553390593301
42
0.19891236737960102
10
-43.146446609406709
20
14.2071067811865
10
-45.953553390593306
20
17.014213562373101
42
-0.19891236737966886
10
-46.100000000000001
20
17.367766952966399
10
-46.100000000000001
20
22.692893218813399
42
0.19891236737964549
10
-46.246446609406703
20
23.046446609406704
10
-46.953553390593299
20
23.753553390593304
42
0.19891236737965823
10
-47.307106781186604
20
23.900000000000002
10
-52.632233047033601
20
23.899999999999999
42
-0.19891236737965362
10
-52.985786437626899
20
24.046446609406704
10
-55.792893218813504
20
26.853553390593305
42
0.1989123673796675
10
-56.146446609406702
20
27
10
-57.699999999999996
20
26.999999999999996
42
-0.41421356237308721
10
-58.200000000000003
20
27.5
10
-58.200000000000003
20
32.5
42
-0.41421356237307422
10
-57.700000000000003
20
33
10
-56.146446609406702
20
33
42
0.19891236737958409
10
-55.792893218813404
20
33.146446609406709
10
-52.985786437626899
20
35.953553390593299
42
-0.19891236737963308
10
-52.632233047033601
20
36.100000000000001
10
-47.307106781186604
20
36.100000000000001
42
0.19891236737958246
10
-46.953553390593299
20
36.246446609406703
10
-46.24644660940681
20
36.9535533905932
42
0.19891236737976747
10
-46.100000000000001
20
37.307106781186498
10
-46.100000000000001
20
42.632233047033601
42
-0.19891236737966284
10
-45.953553390593306
20
42.985786437626899
10
-43.146446609406709
20
45.792893218813504
42
0.19891236737961726
10
-43
20
46.146446609406695
10
-43
20
47.700000000000003
42
-0.41421356237309503
10
-42.5
20
48.200000000000003
10
-37.5
20
48.200000000000003
42
-0.41421356237308721
10
-37
20
47.700000000000003
10
-37
20
46.146446609406802
42
0.19891236737965368
10
-36.853553390593298
20
45.792893218813504
10
-34.046446609406708
20
42.985786437626892
42
-0.19891236737962834
10
-33.899999999999999
20
42.632233047033601
10
-33.899999999999999
20
37.307106781186604
42
0.19891236737964085
10
-33.753553390593297
20
36.953553390593299
10
-33.046446609406701
20
36.246446609406703
42
0.19891236737963691
0
CIRCLE
5
102
100
AcDbEntity
8
0
100
AcDbCircle
10
-49.999999999999993
20
40
30
-1.1102230246251565e-15
40
2.0999999999999979
210
-1.7273790101383117e-16
220
5.2627728192280235e-16
230
1
0
CIRCLE
5
103
100
AcDbEntity
8
0
100
AcDbCircle
10
-30.000000000000004
20
19.999999999999996
30
0
40
2.1000000000000001
210
0
220
0
230
1
0
CIRCLE
5
104
100
AcDbEntity
8
0
100
AcDbCircle
10
-50.000000000000007
20
20
30
0
40
2.1000000000000001
210
0
220
0
230
1
0
CIRCLE
5
105
100
AcDbEntity
8
0
100
AcDbCircle
10
-29.999999999999982
20
40
30
0
40
2.0999999999999992
210
9.4377150946582409e-16
220
2.4275571330133005e-17
230
1
0
LWPOLYLINE
5
106
100
AcDbEntity
8
0
100
AcDbPolyline
90
168
70
1
43
0.0
10
-32.985786437626899
20
44.046446609406701
10
-35.353553390593298
20
46.414213562373099
42
-0.19891236737965362
10
-35.5
20
46.767766952966397
10
-35.500000000000007
20
47.700000000000003
42
-0.41421356237312101
10
-35
20
48.200000000000003
10
-33.125
20
48.200000000000003
10
-33.125
20
48.545000000000009
10
-34.433553390593303
20
49.853553390593305
42
0.19891236737965989
10
-34.787106781186601
20
50
10
-45.212893218813505
20
50
42
0.19891236737972165
10
-45.566446609406697
20
49.853553390593305
10
-46.875
20
48.545000000000009
10
-46.875
20
48.200000000000003
10
-45
20
48.200000000000003
42
-0.41421356237309503
10
-44.5
20
47.700000000000003
10
-44.5
20
46.767766952966397
42
-0.19891236737966608
10
-44.646446609406702
20
46.414213562373099
10
-47.014213562373101
20
44.046446609406701
42
-0.19891236737964116
10
-47.367766952966399
20
43.899999999999999
10
-52.632233047033601
20
43.899999999999999
42
-0.19891236737962673
10
-52.985786437626899
20
44.046446609406701
10
-55.353553390593298
20
46.414213562373092
42
-0.19891236737964116
10
-55.500000000000007
20
46.76776695296639
10
-55.500000000000007
20
47.700000000000003
42
-0.41421356237307944
10
-55
20
48.200000000000003
10
-53.125
20
48.200000000000003
10
-53.125
20
48.545000000000009
10
-54.433553390593303
20
49.853553390593305
42
0.19891236737967863
10
-54.787106781186601
20
50
10
-59.5
20
50
42
0.41421356237306384
10
-60
20
49.5
10
-60
20
44.787106781186509
42
0.19891236737964554
10
-59.853553390593305
20
44.433553390593303
10
-58.545000000000009
20
43.125
10
-58.200000000000003
20
43.125
10
-58.200000000000003
20
45
42
-0.41421356237309503
10
-57.700000000000003
20
45.5
10
-56.767766952966397
20
45.5
42
-0.19891236737962348
10
-56.414213562373099
20
45.353553390593298
10
-54.046446609406701
20
42.985786437626899
42
-0.19891236737960122
10
-53.900000000000006
20
42.632233047033601
10
-53.900000000000006
20
37.367766952966399
42
-0.19891236737966284
10
-54.046446609406701
20
37.014213562373101
10
-56.414213562373106
20
34.646446609406702
42
-0.19891236737959325
10
-56.767766952966397
20
34.500000000000007
10
-57.699999999999996
20
34.500000000000007
42
-0.41421356237308204
10
-58.200000000000003
20
35
10
-58.200000000000003
20
36.875
10
-58.545000000000009
20
36.875
10
-59.853553390593305
20
35.566446609406697
42
0.19891236737961066
10
-60
20
35.212893218813399
10
-60
20
24.787106781186502
42
0.1989123673796668
10
-59.853553390593305
20
24.433553390593303
10
-58.545000000000009
20
23.125
10
-58.200000000000003
20
23.125
10
-58.200000000000003
20
25
42
-0.41421356237309764
10
-57.700000000000003
20
25.500000000000004
10
-56.767766952966397
20
25.500000000000004
42
-0.1989123673796438
10
-56.414213562373099
20
25.353553390593305
10
-54.046446609406701
20
22.985786437626899
42
-0.19891236737962581
10
-53.900000000000006
20
22.632233047033601
10
-53.900000000000006
20
17.367766952966399
42
-0.19891236737966886
10
-54.046446609406701
20
17.014213562373101
10
-56.414213562373099
20
14.6464466094067
42
-0.19891236737961529
10
-56.767766952966397
20
14.500000000000004
10
-57.699999999999996
20
14.500000000000007
42
-0.41421356237308204
10
-58.200000000000003
20
15
10
-58.200000000000003
20
16.875
10
-58.545000000000009
20
16.875
10
-59.853553390593305
20
15.5664466094067
42
0.19891236737961812
10
-60
20
15.212893218813502
10
-60
20
10.5
42
0.41421356237309115
10
-59.5
20
10.000000000000009
10
-54.787106781186601
20
10
42
0.19891236737966372
10
-54.433553390593296
20
10.146446609406697
10
-53.125
20
11.455
10
-53.125
20
11.800000000000001
10
-55
20
11.799999999999999
42
-0.41421356237310281
10
-55.500000000000007
20
12.300000000000002
10
-55.500000000000007
20
13.232233047033599
42
-0.19891236737973059
10
-55.353553390593298
20
13.585786437626901
10
-52.985786437626899
20
15.953553390593299
42
-0.19891236737964241
10
-52.632233047033601
20
16.100000000000001
10
-47.367766952966399
20
16.100000000000001
42
-0.19891236737965604
10
-47.014213562373108
20
15.953553390593299
10
-44.646446609406702
20
13.585786437626901
42
-0.19891236737970935
10
-44.5
20
13.232233047033599
10
-44.500000000000014
20
12.300000000000002
42
-0.41421356237309892
10
-45
20
11.800000000000001
10
-46.875
20
11.800000000000001
10
-46.875
20
11.455
10
-45.566446609406697
20
10.1464466094067
42
0.19891236737967105
10
-45.212893218813505
20
9.9999999999999982
10
-34.787106781186601
20
10
42
0.19891236737965515
10
-34.433553390593303
20
10.1464466094067
10
-33.125
20
11.455
10
-33.125
20
11.800000000000001
10
-35
20
11.799999999999999
42
-0.41421356237310025
10
-35.5
20
12.300000000000002
10
-35.5
20
13.232233047033599
42
-0.19891236737967416
10
-35.353553390593298
20
13.585786437626901
10
-32.985786437626899
20
15.953553390593299
42
-0.198912367379667
10
-32.632233047033601
20
16.100000000000001
10
-27.367766952966402
20
16.100000000000001
42
-0.19891236737965201
10
-27.014213562373101
20
15.953553390593299
10
-24.646446609406702
20
13.585786437626899
42
-0.19891236737966722
10
-24.5
20
13.232233047033599
10
-24.5
20
12.300000000000002
42
-0.41421356237309243
10
-25
20
11.800000000000001
10
-26.875
20
11.800000000000001
10
-26.875
20
11.455
10
-25.5664466094067
20
10.1464466094067
42
0.19891236737966539
10
-25.212893218813505
20
10
10
-20.500000000000004
20
10
42
0.41421356237310025
10
-20
20
10.5
10
-20
20
15.212893218813402
42
0.19891236737966056
10
-20.146446609406699
20
15.5664466094067
10
-21.454999999999998
20
16.875
10
-21.800000000000001
20
16.875
10
-21.800000000000004
20
15
42
-0.41421356237309892
10
-22.300000000000001
20
14.500000000000002
10
-23.232233047033599
20
14.500000000000004
42
-0.19891236737963583
10
-23.585786437626904
20
14.6464466094067
10
-25.953553390593299
20
17.014213562373101
42
-0.19891236737965443
10
-26.100000000000001
20
17.367766952966399
10
-26.100000000000009
20
22.632233047033601
42
-0.19891236737967588
10
-25.953553390593299
20
22.985786437626899
10
-23.585786437626904
20
25.353553390593298
42
-0.19891236737966447
10
-23.232233047033599
20
25.500000000000004
10
-22.300000000000001
20
25.500000000000004
42
-0.41421356237309764
10
-21.800000000000001
20
25
10
-21.800000000000001
20
23.125
10
-21.454999999999998
20
23.125
10
-20.146446609406699
20
24.433553390593303
42
0.19891236737965901
10
-20
20
24.787106781186495
10
-20
20
35.212893218813399
42
0.19891236737965823
10
-20.146446609406699
20
35.566446609406697
10
-21.454999999999998
20
36.875
10
-21.800000000000001
20
36.875
10
-21.800000000000001
20
35
42
-0.41421356237309503
10
-22.300000000000001
20
34.5
10
-23.232233047033599
20
34.5
42
-0.19891236737962972
10
-23.585786437626904
20
34.646446609406702
10
-25.953553390593299
20
37.014213562373101
42
-0.19891236737965143
10
-26.100000000000001
20
37.367766952966399
10
-26.100000000000001
20
42.632233047033601
42
-0.19891236737966159
10
-25.953553390593299
20
42.985786437626899
10
-23.585786437626904
20
45.353553390593298
42
-0.19891236737966447
10
-23.232233047033599
20
45.5
10
-22.300000000000001
20
45.499999999999986
42
-0.41421356237309764
10
-21.800000000000001
20
45
10
-21.800000000000001
20
43.125
10
-21.454999999999998
20
43.125
10
-20.146446609406699
20
44.433553390593303
42
0.19891236737964224
10
-20
20
44.787106781186509
10
-20
20
49.5
42
0.4142135623730846
10
-20.500000000000004
20
50
10
-25.212893218813402
20
50
42
0.1989123673797121
10
-25.5664466094067
20
49.853553390593305
10
-26.875
20
48.545000000000009
10
-26.875
20
48.200000000000003
10
-25
20
48.200000000000003
42
-0.41421356237309503
10
-24.5
20
47.700000000000003
10
-24.499999999999996
20
46.767766952966397
42
-0.19891236737966608
10
-24.646446609406702
20
46.414213562373099
10
-27.014213562373097
20
44.046446609406701
42
-0.19891236737964577
10
-27.367766952966402
20
43.899999999999999
10
-32.632233047033601
20
43.899999999999999
42
-0.19891236737963389
0
LWPOLYLINE
5
107
100
AcDbEntity
8
0
100
AcDbPolyline
90
64
70
1
43
0.0
10
-32.692893218813403
20
36.100000000000001
10
-27.367766952966406
20
36.100000000000001
42
-0.19891236737962903
10
-27.014213562373101
20
35.953553390593299
10
-24.207106781186599
20
33.146446609406709
42
0.1989123673795736
10
-23.853553390593301
20
33
10
-22.300000000000001
20
33.000000000000007
42
-0.41421356237308982
10
-21.800000000000001
20
32.5
10
-21.800000000000001
20
27.5
42
-0.41421356237306384
10
-22.300000000000001
20
27
10
-23.853553390593301
20
27
42
0.19891236737969378
10
-24.207106781186503
20
26.853553390593305
10
-27.014213562373101
20
24.046446609406704
42
-0.19891236737965362
10
-27.367766952966399
20
23.900000000000002
10
-32.692893218813403
20
23.900000000000002
42
0.19891236737962878
10
-33.046446609406701
20
23.753553390593307
10
-33.753553390593297
20
23.046446609406704
42
0.1989123673795736
10
-33.899999999999999
20
22.692893218813403
10
-33.899999999999999
20
17.367766952966399
42
-0.19891236737967544
10
-34.046446609406701
20
17.014213562373101
10
-36.853553390593298
20
14.2071067811865
42
0.19891236737962498
10
-37
20
13.853553390593301
10
-37
20
12.300000000000002
42
-0.41421356237310025
10
-37.5
20
11.800000000000001
10
-42.5
20
11.800000000000004
42
-0.41421356237310542
10
-43
20
12.300000000000002
10
-43
20
13.853553390593301
42
0.19891236737960102
10
-43.146446609406709
20
14.2071067811865
10
-45.953553390593306
20
17.014213562373101
42
-0.19891236737966886
10
-46.100000000000001
20
17.367766952966399
10
-46.100000000000001
20
22.692893218813399
42
0.19891236737964549
10
-46.246446609406703
20
23.046446609406704
10
-46.953553390593299
20
23.753553390593304
42
0.19891236737965823
10
-47.307106781186604
20
23.900000000000002
10
-52.632233047033601
20
23.899999999999999
42
-0.19891236737965362
10
-52.985786437626899
20
24.046446609406704
10
-55.792893218813504
20
26.853553390593305
42
0.19891236737965501
10
-56.146446609406702
20
27.000000000000007
10
-57.699999999999996
20
26.999999999999996
42
-0.41421356237308721
10
-58.200000000000003
20
27.5
10
-58.200000000000003
20
32.5
42
-0.41421356237307422
10
-57.700000000000003
20
33
10
-56.146446609406702
20
33
42
0.19891236737957782
10
-55.792893218813404
20
33.146446609406716
10
-52.985786437626899
20
35.953553390593299
42
-0.19891236737963919
10
-52.632233047033601
20
36.100000000000001
10
-47.307106781186604
20
36.100000000000001
42
0.19891236737958246
10
-46.953553390593299
20
36.246446609406703
10
-46.24644660940681
20
36.9535533905932
42
0.19891236737976514
10
-46.100000000000001
20
37.307106781186491
10
-46.100000000000001
20
42.632233047033601
42
-0.19891236737967405
10
-45.953553390593306
20
42.985786437626899
10
-43.146446609406709
20
45.792893218813504
42
0.19891236737961726
10
-43
20
46.146446609406695
10
-43
20
47.700000000000003
42
-0.41421356237309503
10
-42.5
20
48.200000000000003
10
-37.5
20
48.200000000000003
42
-0.4142135623730846
10
-37
20
47.700000000000003
10
-37
20
46.146446609406802
42
0.19891236737965368
10
-36.853553390593298
20
45.792893218813504
10
-34.046446609406701
20
42.985786437626899
42
-0.19891236737961554
10
-33.899999999999999
20
42.632233047033601
10
-33.899999999999999
20
37.307106781186604
42
0.19891236737964085
10
-33.753553390593297
20
36.953553390593299
10
-33.046446609406701
20
36.246446609406703
42
0.19891236737963691
0
CIRCLE
5
108
100
AcDbEntity
8
0
100
AcDbCircle
10
-49.999999999999993
20
40
30
0
40
2.0999999999999979
210
0
220
-0
230
1
0
CIRCLE
5
109
100
AcDbEntity
8
0
100
AcDbCircle
10
-30.000000000000004
20
19.999999999999996
30
0
40
2.1000000000000001
210
0
220
-0
230
1
0
CIRCLE
5
110
100
AcDbEntity
8
0
100
AcDbCircle
10
-50.000000000000007
20
20
30
0
40
2.1000000000000005
210
0
220
0
230
1
0
CIRCLE
5
111
100
AcDbEntity
8
0
100
AcDbCircle
10
-29.999999999999982
20
40
30
0
40
2.0999999999999996
210
0
220
-0
230
1
0
ENDSEC
0
SECTION
2
OBJECTS
0
DICTIONARY
5
C
100
AcDbDictionary
3
ACAD_GROUP
350
D
3
ACAD_MLINESTYLE
350
17
0
DICTIONARY
5
D
100
AcDbDictionary
0
DICTIONARY
5
1A
330
C
100
AcDbDictionary
0
DICTIONARY
5
17
100
AcDbDictionary
0
ENDSEC
0
EOF
